<?xml version="1.0" encoding="UTF-8"?>
<!DOCTYPE svg PUBLIC "-//W3C//DTD SVG 1.1//EN" "http://www.w3.org/Graphics/SVG/1.1/DTD/svg11.dtd">
<svg xmlns="http://www.w3.org/2000/svg" version="1.1" width="1215px" height="556px" style="shape-rendering:geometricPrecision; text-rendering:geometricPrecision; image-rendering:optimizeQuality; fill-rule:evenodd; clip-rule:evenodd" xmlns:xlink="http://www.w3.org/1999/xlink">
<g><path style="opacity:1" fill="#2d2d2d" d="M -0.5,-0.5 C 404.5,-0.5 809.5,-0.5 1214.5,-0.5C 1214.5,162.5 1214.5,325.5 1214.5,488.5C 1210.67,498.614 1203.34,504.781 1192.5,507C 1172.53,508.366 1152.53,508.866 1132.5,508.5C 1132.5,506.833 1132.5,505.167 1132.5,503.5C 782.5,503.5 432.5,503.5 82.5,503.5C 82.5,504.833 82.5,506.167 82.5,507.5C 82.5,507.833 82.5,508.167 82.5,508.5C 65.83,508.667 49.1633,508.5 32.5,508C 15.0738,508.689 4.07375,500.856 -0.5,484.5C -0.5,322.833 -0.5,161.167 -0.5,-0.5 Z"/></g>
<g><path style="opacity:1" fill="#292929" d="M 1197.5,7.5 C 1144.83,7.5 1092.17,7.5 1039.5,7.5C 986.167,7.5 932.833,7.5 879.5,7.5C 849.833,7.5 820.167,7.5 790.5,7.5C 737.5,7.5 684.5,7.5 631.5,7.5C 603.833,7.5 576.167,7.5 548.5,7.5C 522.833,7.5 497.167,7.5 471.5,7.5C 445.5,7.5 419.5,7.5 393.5,7.5C 365.5,7.5 337.5,7.5 309.5,7.5C 283.5,7.5 257.5,7.5 231.5,7.5C 203.5,7.5 175.5,7.5 147.5,7.5C 121.5,7.5 95.5,7.5 69.5,7.5C 52.1667,7.5 34.8333,7.5 17.5,7.5C 19.9647,5.16326 22.9647,3.66326 26.5,3C 413.833,2.33333 801.167,2.33333 1188.5,3C 1192.04,3.66326 1195.04,5.16326 1197.5,7.5 Z"/></g>
<g><path style="opacity:1" fill="#a78686" d="M 69.5,7.5 C 95.5,7.5 121.5,7.5 147.5,7.5C 147.082,8.22158 146.416,8.72158 145.5,9C 146.167,9.33333 146.833,9.66667 147.5,10C 142.167,10.6667 142.167,11.3333 147.5,12C 144.833,12.6667 144.833,13.3333 147.5,14C 144.833,14.6667 144.833,15.3333 147.5,16C 146.584,16.2784 145.918,16.7784 145.5,17.5C 119.5,17.5 93.5,17.5 67.5,17.5C 67.9175,16.7784 68.5842,16.2784 69.5,16C 68.8333,15.6667 68.1667,15.3333 67.5,15C 72.8333,14.3333 72.8333,13.6667 67.5,13C 70.1667,12.3333 70.1667,11.6667 67.5,11C 70.1667,10.3333 70.1667,9.66667 67.5,9C 68.4158,8.72158 69.0825,8.22158 69.5,7.5 Z"/></g>
<g><path style="opacity:1" fill="#9a8a8a" d="M 147.5,7.5 C 175.5,7.5 203.5,7.5 231.5,7.5C 231.082,8.22158 230.416,8.72158 229.5,9C 230.167,9.33333 230.833,9.66667 231.5,10C 226.167,10.6667 226.167,11.3333 231.5,12C 228.833,12.6667 228.833,13.3333 231.5,14C 228.833,14.6667 228.833,15.3333 231.5,16C 230.584,16.2784 229.918,16.7784 229.5,17.5C 201.5,17.5 173.5,17.5 145.5,17.5C 145.918,16.7784 146.584,16.2784 147.5,16C 144.833,15.3333 144.833,14.6667 147.5,14C 144.833,13.3333 144.833,12.6667 147.5,12C 142.167,11.3333 142.167,10.6667 147.5,10C 146.833,9.66667 146.167,9.33333 145.5,9C 146.416,8.72158 147.082,8.22158 147.5,7.5 Z"/></g>
<g><path style="opacity:1" fill="#8e8e8f" d="M 231.5,7.5 C 257.5,7.5 283.5,7.5 309.5,7.5C 311.931,9.06818 311.931,10.5682 309.5,12C 312.167,13.3333 312.167,14.6667 309.5,16C 310.056,16.3826 310.389,16.8826 310.5,17.5C 283.5,17.5 256.5,17.5 229.5,17.5C 229.918,16.7784 230.584,16.2784 231.5,16C 228.833,15.3333 228.833,14.6667 231.5,14C 228.833,13.3333 228.833,12.6667 231.5,12C 226.167,11.3333 226.167,10.6667 231.5,10C 230.833,9.66667 230.167,9.33333 229.5,9C 230.416,8.72158 231.082,8.22158 231.5,7.5 Z"/></g>
<g><path style="opacity:1" fill="#829192" d="M 309.5,7.5 C 337.5,7.5 365.5,7.5 393.5,7.5C 393.082,8.22158 392.416,8.72158 391.5,9C 394.167,9.66667 394.167,10.3333 391.5,11C 394.167,11.6667 394.167,12.3333 391.5,13C 394.167,13.6667 394.167,14.3333 391.5,15C 392.167,15.3333 392.833,15.6667 393.5,16C 392.584,16.2784 391.918,16.7784 391.5,17.5C 364.5,17.5 337.5,17.5 310.5,17.5C 310.389,16.8826 310.056,16.3826 309.5,16C 312.167,14.6667 312.167,13.3333 309.5,12C 311.931,10.5682 311.931,9.06818 309.5,7.5 Z"/></g>
<g><path style="opacity:1" fill="#759596" d="M 393.5,7.5 C 419.5,7.5 445.5,7.5 471.5,7.5C 471.082,8.22158 470.416,8.72158 469.5,9C 470.167,9.33333 470.833,9.66667 471.5,10C 466.167,10.6667 466.167,11.3333 471.5,12C 468.833,12.6667 468.833,13.3333 471.5,14C 468.833,14.6667 468.833,15.3333 471.5,16C 470.584,16.2784 469.918,16.7784 469.5,17.5C 443.5,17.5 417.5,17.5 391.5,17.5C 391.918,16.7784 392.584,16.2784 393.5,16C 392.833,15.6667 392.167,15.3333 391.5,15C 394.167,14.3333 394.167,13.6667 391.5,13C 394.167,12.3333 394.167,11.6667 391.5,11C 394.167,10.3333 394.167,9.66667 391.5,9C 392.416,8.72158 393.082,8.22158 393.5,7.5 Z"/></g>
<g><path style="opacity:1" fill="#69999a" d="M 471.5,7.5 C 497.167,7.5 522.833,7.5 548.5,7.5C 549.263,8.26791 550.263,8.76791 551.5,9C 547.5,9.66667 547.5,10.3333 551.5,11C 550.167,11.6667 550.167,12.3333 551.5,13C 550.5,13.3333 549.5,13.6667 548.5,14C 550.881,14.2233 552.547,15.39 553.5,17.5C 552.167,17.5 550.833,17.5 549.5,17.5C 534.089,17.1832 518.755,17.5166 503.5,18.5C 492.346,17.5052 481.012,17.1719 469.5,17.5C 469.918,16.7784 470.584,16.2784 471.5,16C 468.833,15.3333 468.833,14.6667 471.5,14C 468.833,13.3333 468.833,12.6667 471.5,12C 466.167,11.3333 466.167,10.6667 471.5,10C 470.833,9.66667 470.167,9.33333 469.5,9C 470.416,8.72158 471.082,8.22158 471.5,7.5 Z"/></g>
<g><path style="opacity:1" fill="#5c9d9e" d="M 548.5,7.5 C 576.167,7.5 603.833,7.5 631.5,7.5C 631.577,8.74975 632.244,9.58309 633.5,10C 632.167,10.3333 630.833,10.6667 629.5,11C 630.833,12 632.167,13 633.5,14C 630.833,14.6667 630.833,15.3333 633.5,16C 632.584,16.2784 631.918,16.7784 631.5,17.5C 622.833,17.5 614.167,17.5 605.5,17.5C 602.167,17.5 598.833,17.5 595.5,17.5C 581.5,17.5 567.5,17.5 553.5,17.5C 552.547,15.39 550.881,14.2233 548.5,14C 549.5,13.6667 550.5,13.3333 551.5,13C 550.167,12.3333 550.167,11.6667 551.5,11C 547.5,10.3333 547.5,9.66667 551.5,9C 550.263,8.76791 549.263,8.26791 548.5,7.5 Z"/></g>
<g><path style="opacity:1" fill="#48a3a5" d="M 631.5,7.5 C 684.5,7.5 737.5,7.5 790.5,7.5C 791.598,9.71843 791.598,11.8851 790.5,14C 791.71,15.0391 792.71,16.2058 793.5,17.5C 758.833,17.5 724.167,17.5 689.5,17.5C 674.833,17.5 660.167,17.5 645.5,17.5C 640.833,17.5 636.167,17.5 631.5,17.5C 631.918,16.7784 632.584,16.2784 633.5,16C 630.833,15.3333 630.833,14.6667 633.5,14C 632.167,13 630.833,12 629.5,11C 630.833,10.6667 632.167,10.3333 633.5,10C 632.244,9.58309 631.577,8.74975 631.5,7.5 Z"/></g>
<g><path style="opacity:1" fill="#37a9aa" d="M 790.5,7.5 C 820.167,7.5 849.833,7.5 879.5,7.5C 879.082,8.22158 878.416,8.72158 877.5,9C 878.167,9.33333 878.833,9.66667 879.5,10C 874.167,10.6667 874.167,11.3333 879.5,12C 876.833,12.6667 876.833,13.3333 879.5,14C 874.167,14.6667 874.167,15.3333 879.5,16C 878.584,16.2784 877.918,16.7784 877.5,17.5C 849.5,17.5 821.5,17.5 793.5,17.5C 792.71,16.2058 791.71,15.0391 790.5,14C 791.598,11.8851 791.598,9.71843 790.5,7.5 Z"/></g>
<g><path style="opacity:1" fill="#22afb1" d="M 879.5,7.5 C 932.833,7.5 986.167,7.5 1039.5,7.5C 1039.58,8.74975 1040.24,9.58309 1041.5,10C 1040.17,10.3333 1038.83,10.6667 1037.5,11C 1038.83,12 1040.17,13 1041.5,14C 1038.83,14.6667 1038.83,15.3333 1041.5,16C 1040.58,16.2784 1039.92,16.7784 1039.5,17.5C 985.5,17.5 931.5,17.5 877.5,17.5C 877.918,16.7784 878.584,16.2784 879.5,16C 874.167,15.3333 874.167,14.6667 879.5,14C 876.833,13.3333 876.833,12.6667 879.5,12C 874.167,11.3333 874.167,10.6667 879.5,10C 878.833,9.66667 878.167,9.33333 877.5,9C 878.416,8.72158 879.082,8.22158 879.5,7.5 Z"/></g>
<g><path style="opacity:1" fill="#b18283" d="M 17.5,7.5 C 34.8333,7.5 52.1667,7.5 69.5,7.5C 69.0825,8.22158 68.4158,8.72158 67.5,9C 70.1667,9.66667 70.1667,10.3333 67.5,11C 70.1667,11.6667 70.1667,12.3333 67.5,13C 72.8333,13.6667 72.8333,14.3333 67.5,15C 68.1667,15.3333 68.8333,15.6667 69.5,16C 68.5842,16.2784 67.9175,16.7784 67.5,17.5C 53.1667,17.5 38.8333,17.5 24.5,17.5C 21.4816,17.6646 18.4816,17.498 15.5,17C 20.5409,15.9924 20.2076,15.4924 14.5,15.5C 14.5,13.8333 14.5,12.1667 14.5,10.5C 14.5,9.5 14.5,8.5 14.5,7.5C 15.5,7.5 16.5,7.5 17.5,7.5 Z"/></g>
<g><path style="opacity:1" fill="#292929" d="M 14.5,10.5 C 14.5,12.1667 14.5,13.8333 14.5,15.5C 14.5,41.5 14.5,67.5 14.5,93.5C 14.5,108.5 14.5,123.5 14.5,138.5C 14.5,163.5 14.5,188.5 14.5,213.5C 14.5,238.833 14.5,264.167 14.5,289.5C 14.5,304.167 14.5,318.833 14.5,333.5C 14.5,358.833 14.5,384.167 14.5,409.5C 14.5,436.167 14.5,462.833 14.5,489.5C 12.1633,487.035 10.6633,484.035 10,480.5C 9.33333,326.833 9.33333,173.167 10,19.5C 10.6633,15.9647 12.1633,12.9647 14.5,10.5 Z"/></g>
<g><path style="opacity:1" fill="#292929" d="M 1200.5,10.5 C 1202.84,12.9647 1204.34,15.9647 1205,19.5C 1205.67,173.167 1205.67,326.833 1205,480.5C 1204.34,484.035 1202.84,487.035 1200.5,489.5C 1200.5,462.833 1200.5,436.167 1200.5,409.5C 1200.5,357.167 1200.5,304.833 1200.5,252.5C 1200.5,171.833 1200.5,91.1667 1200.5,10.5 Z"/></g>
<g><path style="opacity:1" fill="#eff7fe" d="M 24.5,17.5 C 38.8333,17.5 53.1667,17.5 67.5,17.5C 93.5,17.5 119.5,17.5 145.5,17.5C 173.5,17.5 201.5,17.5 229.5,17.5C 256.5,17.5 283.5,17.5 310.5,17.5C 337.5,17.5 364.5,17.5 391.5,17.5C 417.5,17.5 443.5,17.5 469.5,17.5C 481.012,17.1719 492.346,17.5052 503.5,18.5C 492.705,26.232 481.038,32.3986 468.5,37C 465.819,39.194 464.319,42.0273 464,45.5C 452.319,39.1276 439.819,36.9609 426.5,39C 419.297,41.1969 413.463,45.3635 409,51.5C 399.474,62.2149 392.807,74.5482 389,88.5C 385.123,116.994 388.79,144.327 400,170.5C 402.171,174.844 404.837,178.844 408,182.5C 412.049,194.271 418.383,204.605 427,213.5C 428,215.5 429,217.5 430,219.5C 435.188,225.168 441.021,230.002 447.5,234C 457.106,237.904 467.106,239.404 477.5,238.5C 496.619,237.682 515.619,235.682 534.5,232.5C 537.641,239.826 541.475,246.826 546,253.5C 547.443,263.385 549.777,273.052 553,282.5C 557.366,284.48 560.366,283.147 562,278.5C 562.038,273.394 561.205,268.394 559.5,263.5C 560.18,262.14 560.847,260.807 561.5,259.5C 566.054,257.953 570.721,256.953 575.5,256.5C 577.911,256.863 579.411,255.863 580,253.5C 580.782,250.743 580.282,248.243 578.5,246C 570.438,245.864 562.438,245.197 554.5,244C 551.179,239.852 548.512,235.352 546.5,230.5C 547.058,229.21 548.058,228.377 549.5,228C 562.614,225.073 575.281,220.739 587.5,215C 590.667,211.833 593.833,208.667 597,205.5C 602.498,195.836 608.498,186.503 615,177.5C 616.604,172.023 618.604,166.689 621,161.5C 622.024,153.706 622.524,145.873 622.5,138C 621.167,121.839 620,105.672 619,89.5C 617.178,82.1904 614.012,75.5238 609.5,69.5C 610.438,68.4471 611.605,67.7804 613,67.5C 623.099,73.9287 632.932,80.7621 642.5,88C 657.636,94.4048 665.803,105.905 667,122.5C 667.667,176.833 667.667,231.167 667,285.5C 666.743,308.362 659.243,328.529 644.5,346C 643.833,346.667 643.167,346.667 642.5,346C 639.318,340.489 634.651,336.822 628.5,335C 609.713,335.121 591.713,331.454 574.5,324C 571.833,323.667 569.167,323.333 566.5,323C 545.574,315.7 524.574,308.7 503.5,302C 501.016,299.256 498.016,297.256 494.5,296C 471.553,286.523 448.219,278.19 424.5,271C 413.179,265.343 401.179,262.676 388.5,263C 387.167,262.333 385.833,261.667 384.5,261C 359.5,260.333 334.5,260.333 309.5,261C 277.248,264.507 244.914,267.507 212.5,270C 190.309,278.531 176.142,294.364 170,317.5C 169.333,331.167 169.333,344.833 170,358.5C 175.676,376.519 184.01,393.186 195,408.5C 196.802,414.905 198.802,421.239 201,427.5C 204.432,431.364 207.099,435.698 209,440.5C 227.582,455.707 248.416,466.541 271.5,473C 286.262,473.857 300.929,475.19 315.5,477C 322.81,478.205 329.81,480.039 336.5,482.5C 322.833,482.5 309.167,482.5 295.5,482.5C 270.167,482.5 244.833,482.5 219.5,482.5C 204.167,482.5 188.833,482.5 173.5,482.5C 147.5,482.5 121.5,482.5 95.5,482.5C 71.8333,482.5 48.1667,482.5 24.5,482.5C 24.5,458.833 24.5,435.167 24.5,411.5C 24.5,386.167 24.5,360.833 24.5,335.5C 24.5,320.833 24.5,306.167 24.5,291.5C 24.5,265.5 24.5,239.5 24.5,213.5C 24.5,188.5 24.5,163.5 24.5,138.5C 24.5,123.5 24.5,108.5 24.5,93.5C 24.5,68.1667 24.5,42.8333 24.5,17.5 Z"/></g>
<g><path style="opacity:1" fill="#1a662d" d="M 549.5,17.5 C 545.778,19.0161 542.111,20.6828 538.5,22.5C 532.465,18.7698 529.465,20.4365 529.5,27.5C 524.887,30.8122 519.887,33.6455 514.5,36C 511.58,37.9461 508.913,40.1128 506.5,42.5C 503.482,42.3354 500.482,42.502 497.5,43C 496.594,44.6995 496.261,46.5328 496.5,48.5C 491.389,49.0903 487.389,51.5903 484.5,56C 491.226,64.8209 489.56,71.3209 479.5,75.5C 474.493,75.1635 470.493,72.9968 467.5,69C 457.546,64.4485 447.213,60.9485 436.5,58.5C 434.803,58.8988 433.137,59.3988 431.5,60C 420.101,69.2826 412.601,81.1159 409,95.5C 405.35,130.26 414.683,160.927 437,187.5C 440.588,194.454 444.255,201.454 448,208.5C 456.352,215.896 466.185,219.229 477.5,218.5C 491.484,217.167 505.484,215.834 519.5,214.5C 535.511,209.998 551.511,205.498 567.5,201C 571.281,197.794 574.615,194.128 577.5,190C 579.901,189.205 582.068,188.038 584,186.5C 586.22,181.616 589.22,177.282 593,173.5C 595.563,168.478 596.896,163.145 597,157.5C 600.397,155.442 602.063,152.442 602,148.5C 602.667,141.5 602.667,134.5 602,127.5C 599.864,117.386 598.864,107.053 599,96.5C 595.765,90.3596 592.765,84.0263 590,77.5C 589.5,77 589,76.5 588.5,76C 581.726,75.9221 575.059,75.2554 568.5,74C 564.673,70.6923 563.506,66.5256 565,61.5C 566.167,59 568,57.1667 570.5,56C 576.833,55.6667 583.167,55.3333 589.5,55C 599.606,46.6611 610.939,44.3278 623.5,48C 633.5,55.3333 643.5,62.6667 653.5,70C 672.988,78.8496 684.155,94.0163 687,115.5C 687.5,140.831 687.667,166.164 687.5,191.5C 687.5,224.167 687.5,256.833 687.5,289.5C 685.871,298.05 685.037,306.717 685,315.5C 680.807,325.895 676.307,336.229 671.5,346.5C 668.011,350.794 664.511,355.127 661,359.5C 655.531,370.096 649.198,380.096 642,389.5C 636.581,395.59 630.081,400.09 622.5,403C 612.735,404.388 603.735,407.721 595.5,413C 586.996,414.419 579.33,417.752 572.5,423C 563.167,427 553.833,431 544.5,435C 528.681,438.945 512.681,441.612 496.5,443C 455.122,444.274 413.788,445.274 372.5,446C 363.537,444.725 354.537,443.725 345.5,443C 334.603,437.77 323.936,432.103 313.5,426C 310.296,422.964 307.296,419.797 304.5,416.5C 300.545,411.373 296.378,406.373 292,401.5C 289.394,396.565 286.394,391.898 283,387.5C 278.56,378.341 276.727,368.675 277.5,358.5C 277.14,350.999 277.973,343.665 280,336.5C 284.167,332.333 288.333,328.167 292.5,324C 298.546,320.905 304.879,318.571 311.5,317C 331.167,316.333 350.833,316.333 370.5,317C 375.714,318.637 381.047,319.637 386.5,320C 391.232,322.598 396.232,324.432 401.5,325.5C 411.79,328.831 422.124,332.331 432.5,336C 436.418,337.156 440.418,337.656 444.5,337.5C 451.269,340.031 458.269,341.864 465.5,343C 478.708,341.739 491.041,344.405 502.5,351C 531.537,358.111 559.704,367.611 587,379.5C 589.164,382.447 589.998,385.781 589.5,389.5C 597.669,386.874 606.002,384.707 614.5,383C 622.412,380.017 627.745,374.517 630.5,366.5C 631.627,365.878 632.627,365.045 633.5,364C 628.888,360.222 623.888,357.055 618.5,354.5C 618.995,349.165 616.662,346.665 611.5,347C 608.769,349.897 607.769,353.397 608.5,357.5C 602.023,354.932 595.357,352.932 588.5,351.5C 588.666,346.821 588.499,342.155 588,337.5C 585,333.5 582,333.5 579,337.5C 578.824,341.688 578.324,345.688 577.5,349.5C 564.681,345.005 551.681,340.671 538.5,336.5C 538.666,331.489 538.499,326.489 538,321.5C 535.504,317.998 532.671,317.665 529.5,320.5C 528.567,324.429 528.234,328.429 528.5,332.5C 517.757,329.298 507.09,325.798 496.5,322C 492.517,318.841 488.183,316.341 483.5,314.5C 483.665,310.818 483.499,307.152 483,303.5C 479.667,299.5 476.333,299.5 473,303.5C 472.666,305.847 472.833,308.181 473.5,310.5C 464.817,307.104 456.151,303.604 447.5,300C 438.374,298.571 429.374,296.738 420.5,294.5C 420.303,286.944 416.97,284.944 410.5,288.5C 410.389,287.883 410.056,287.383 409.5,287C 405.347,286.616 401.347,285.616 397.5,284C 384.313,281.721 370.979,280.554 357.5,280.5C 357.597,276.358 355.597,274.024 351.5,273.5C 347.465,274.493 346.132,276.826 347.5,280.5C 328.418,280.269 309.418,281.102 290.5,283C 283.689,284.125 277.022,285.291 270.5,286.5C 268.228,281.893 264.562,280.393 259.5,282C 257.859,283.129 256.859,284.629 256.5,286.5C 244.49,287.331 232.49,288.498 220.5,290C 217.564,291.045 214.564,291.879 211.5,292.5C 209.851,294.333 208.184,296 206.5,297.5C 195.212,307.086 189.545,319.419 189.5,334.5C 190.5,334.5 191.5,334.5 192.5,334.5C 189.281,334.859 186.447,336.192 184,338.5C 182.879,343.21 184.712,345.877 189.5,346.5C 192.161,360.16 197.328,372.826 205,384.5C 207.381,385.435 209.881,385.768 212.5,385.5C 206.852,385.013 203.185,387.513 201.5,393C 201.643,395.151 202.643,396.818 204.5,398C 207.332,398.326 209.999,397.826 212.5,396.5C 216.123,407.199 220.623,417.532 226,427.5C 227.774,428.965 229.608,430.298 231.5,431.5C 227.581,434.673 227.581,437.84 231.5,441C 236.631,442.194 241.298,441.361 245.5,438.5C 245.953,439.458 246.619,440.292 247.5,441C 257.792,446.152 268.459,450.152 279.5,453C 289.095,453.306 298.428,454.473 307.5,456.5C 302.914,461.556 303.58,465.556 309.5,468.5C 311.728,467.781 313.561,466.448 315,464.5C 317.41,461.603 319.577,458.603 321.5,455.5C 324.861,456.556 328.194,457.556 331.5,458.5C 353.96,465.193 376.96,469.86 400.5,472.5C 399.416,477.145 401.083,480.145 405.5,481.5C 410.023,479.778 411.689,476.445 410.5,471.5C 422.505,471.667 434.505,471.5 446.5,471C 448.087,470.138 449.754,469.471 451.5,469C 460.874,468.065 470.208,466.899 479.5,465.5C 479.232,463.901 479.566,462.568 480.5,461.5C 481.306,465.525 482.472,469.525 484,473.5C 487,477.5 490,477.5 493,473.5C 493.667,471.167 493.667,468.833 493,466.5C 491.519,465.529 490.685,464.196 490.5,462.5C 502.716,460.606 515.049,459.44 527.5,459C 529.087,458.138 530.754,457.471 532.5,457C 541.167,456.667 549.833,456.333 558.5,456C 564.365,453.967 570.365,452.467 576.5,451.5C 577.264,457.392 580.598,459.559 586.5,458C 590.419,454.84 590.419,451.673 586.5,448.5C 590.757,445.706 595.423,444.039 600.5,443.5C 611.669,439.409 622.669,435.076 633.5,430.5C 633.5,429.833 633.833,429.5 634.5,429.5C 637.021,433.354 639.688,437.188 642.5,441C 648.74,444.061 651.906,442.228 652,435.5C 648.533,431.88 645.7,427.88 643.5,423.5C 647.764,423.124 651.764,421.79 655.5,419.5C 662.353,417.484 668.353,413.984 673.5,409C 676.85,407.39 680.184,405.89 683.5,404.5C 685.648,412.705 690.314,414.538 697.5,410C 700.637,404.287 698.97,400.787 692.5,399.5C 693.794,398.71 694.961,397.71 696,396.5C 697.507,397.535 699.007,397.368 700.5,396C 702.705,393.46 705.205,391.293 708,389.5C 719.002,374.49 728.169,358.49 735.5,341.5C 739.603,342.231 743.103,341.231 746,338.5C 746.92,335.692 746.087,333.525 743.5,332C 737.319,331.828 731.319,331.328 725.5,330.5C 730.762,330.805 735.928,330.471 741,329.5C 745.782,316.936 750.282,304.269 754.5,291.5C 754.253,290.287 753.586,289.62 752.5,289.5C 755.42,288.122 758.254,286.455 761,284.5C 763.386,280.206 762.886,276.373 759.5,273C 757.735,272.36 756.068,272.527 754.5,273.5C 755.146,260.788 754.48,248.455 752.5,236.5C 758.482,234.178 762.482,229.845 764.5,223.5C 762.232,217.767 758.899,217.101 754.5,221.5C 755.085,211.358 754.252,201.358 752,191.5C 752.207,180.184 751.04,169.184 748.5,158.5C 752.771,157.858 755.771,155.524 757.5,151.5C 756.032,146.739 753.032,145.405 748.5,147.5C 745.841,130.357 740.674,114.024 733,98.5C 729.239,94.23 725.072,90.5633 720.5,87.5C 722.522,83.4623 723.022,79.1289 722,74.5C 717.793,70.1767 714.626,70.8433 712.5,76.5C 706.883,68.2139 701.716,59.5472 697,50.5C 686.111,39.6426 673.278,32.3093 658.5,28.5C 657.106,22.3533 653.773,21.02 648.5,24.5C 645.908,22.9639 644.908,20.6305 645.5,17.5C 660.167,17.5 674.833,17.5 689.5,17.5C 694.925,21.7238 700.591,25.7238 706.5,29.5C 709.106,33.6092 712.273,37.2759 716,40.5C 720.481,49.4613 725.481,58.128 731,66.5C 735.422,68.5866 738.422,71.92 740,76.5C 746.43,80.9286 751.43,86.5952 755,93.5C 760.137,106.911 764.47,120.578 768,134.5C 770.238,153.784 772.238,173.117 774,192.5C 774.667,228.5 774.667,264.5 774,300.5C 769.868,311.368 766.201,322.368 763,333.5C 762.333,334.167 761.667,334.833 761,335.5C 758.792,343.807 755.625,351.641 751.5,359C 766.833,359.667 782.167,359.667 797.5,359C 807.88,355.573 817.546,350.906 826.5,345C 835.749,342.251 844.749,338.918 853.5,335C 859.65,331.183 864.816,326.349 869,320.5C 870.297,312.907 873.464,306.241 878.5,300.5C 884.497,298.581 889.497,299.914 893.5,304.5C 894.11,305.391 894.443,306.391 894.5,307.5C 893.343,311.216 893.343,314.883 894.5,318.5C 889.821,318.334 885.155,318.501 880.5,319C 876.518,321.952 876.518,324.952 880.5,328C 883.146,328.497 885.813,328.664 888.5,328.5C 885.761,332.304 883.261,336.304 881,340.5C 878.004,342.733 875.171,345.066 872.5,347.5C 869.243,346.538 866.243,345.038 863.5,343C 857.172,341.029 854.006,343.195 854,349.5C 854.833,350.333 855.667,351.167 856.5,352C 859.191,352.156 861.524,352.989 863.5,354.5C 855.611,357.088 847.944,360.088 840.5,363.5C 836.611,362.035 832.611,361.535 828.5,362C 825.474,364.298 824.808,367.131 826.5,370.5C 821.018,372.884 815.351,374.884 809.5,376.5C 808.069,374.563 806.402,372.73 804.5,371C 799.567,369.318 796.234,370.818 794.5,375.5C 794.752,377.073 795.418,378.406 796.5,379.5C 788.833,379.5 781.167,379.5 773.5,379.5C 773.65,375.317 771.65,372.984 767.5,372.5C 763.35,372.984 761.35,375.317 761.5,379.5C 754.137,379.169 746.803,379.503 739.5,380.5C 734.872,388.258 729.872,395.758 724.5,403C 726.667,403.167 728.833,403.333 731,403.5C 747.838,402.142 764.672,401.642 781.5,402C 804.824,397.435 827.824,391.768 850.5,385C 860.275,382.196 869.109,377.696 877,371.5C 879.833,365.83 883.166,360.497 887,355.5C 889.299,347.092 892.466,339.092 896.5,331.5C 898.392,332.851 900.558,333.518 903,333.5C 907.081,332.881 908.414,330.548 907,326.5C 904.648,324.97 902.481,323.303 900.5,321.5C 902.343,319.147 903.677,316.48 904.5,313.5C 905.268,310.631 906.601,307.964 908.5,305.5C 914.342,302.397 919.675,303.064 924.5,307.5C 925.611,312.416 925.778,317.416 925,322.5C 917.155,335.985 910.822,350.318 906,365.5C 901.601,370.704 897.934,376.37 895,382.5C 882.477,395.511 867.311,403.344 849.5,406C 846.833,407.333 844.167,408.667 841.5,410C 824.881,413.873 808.214,417.54 791.5,421C 790.167,421.667 788.833,422.333 787.5,423C 763.167,423.667 738.833,423.667 714.5,423C 711.689,421.356 709.356,419.19 707.5,416.5C 699.575,420.516 691.575,424.349 683.5,428C 680.365,431.401 676.698,434.067 672.5,436C 667.325,437.387 662.658,439.72 658.5,443C 652.726,443.807 647.726,446.14 643.5,450C 626.739,456.346 610.072,462.679 593.5,469C 583.826,471.335 574.159,473.668 564.5,476C 556.167,476.333 547.833,476.667 539.5,477C 537.913,477.862 536.246,478.529 534.5,479C 528.5,479.333 522.5,479.667 516.5,480C 514.277,480.566 512.277,481.4 510.5,482.5C 506.167,482.5 501.833,482.5 497.5,482.5C 471.5,482.5 445.5,482.5 419.5,482.5C 405.833,482.5 392.167,482.5 378.5,482.5C 364.5,482.5 350.5,482.5 336.5,482.5C 329.81,480.039 322.81,478.205 315.5,477C 300.929,475.19 286.262,473.857 271.5,473C 248.416,466.541 227.582,455.707 209,440.5C 207.099,435.698 204.432,431.364 201,427.5C 198.802,421.239 196.802,414.905 195,408.5C 184.01,393.186 175.676,376.519 170,358.5C 169.333,344.833 169.333,331.167 170,317.5C 176.142,294.364 190.309,278.531 212.5,270C 244.914,267.507 277.248,264.507 309.5,261C 334.5,260.333 359.5,260.333 384.5,261C 385.833,261.667 387.167,262.333 388.5,263C 401.179,262.676 413.179,265.343 424.5,271C 448.219,278.19 471.553,286.523 494.5,296C 498.016,297.256 501.016,299.256 503.5,302C 524.574,308.7 545.574,315.7 566.5,323C 569.167,323.333 571.833,323.667 574.5,324C 591.713,331.454 609.713,335.121 628.5,335C 634.651,336.822 639.318,340.489 642.5,346C 643.167,346.667 643.833,346.667 644.5,346C 659.243,328.529 666.743,308.362 667,285.5C 667.667,231.167 667.667,176.833 667,122.5C 665.803,105.905 657.636,94.4048 642.5,88C 632.932,80.7621 623.099,73.9287 613,67.5C 611.605,67.7804 610.438,68.4471 609.5,69.5C 614.012,75.5238 617.178,82.1904 619,89.5C 620,105.672 621.167,121.839 622.5,138C 622.524,145.873 622.024,153.706 621,161.5C 618.604,166.689 616.604,172.023 615,177.5C 608.498,186.503 602.498,195.836 597,205.5C 593.833,208.667 590.667,211.833 587.5,215C 575.281,220.739 562.614,225.073 549.5,228C 548.058,228.377 547.058,229.21 546.5,230.5C 542.427,230.808 538.427,231.475 534.5,232.5C 515.619,235.682 496.619,237.682 477.5,238.5C 467.106,239.404 457.106,237.904 447.5,234C 441.021,230.002 435.188,225.168 430,219.5C 429,217.5 428,215.5 427,213.5C 418.383,204.605 412.049,194.271 408,182.5C 404.837,178.844 402.171,174.844 400,170.5C 388.79,144.327 385.123,116.994 389,88.5C 392.807,74.5482 399.474,62.2149 409,51.5C 413.463,45.3635 419.297,41.1969 426.5,39C 439.819,36.9609 452.319,39.1276 464,45.5C 464.319,42.0273 465.819,39.194 468.5,37C 481.038,32.3986 492.705,26.232 503.5,18.5C 518.755,17.5166 534.089,17.1832 549.5,17.5 Z"/></g>
<g><path style="opacity:1" fill="#109330" d="M 549.5,17.5 C 550.833,17.5 552.167,17.5 553.5,17.5C 567.5,17.5 581.5,17.5 595.5,17.5C 595.334,22.5111 595.501,27.5111 596,32.5C 599,36.5 602,36.5 605,32.5C 605.499,27.5111 605.666,22.5111 605.5,17.5C 614.167,17.5 622.833,17.5 631.5,17.5C 636.167,17.5 640.833,17.5 645.5,17.5C 644.908,20.6305 645.908,22.9639 648.5,24.5C 647.227,26.6173 647.227,28.784 648.5,31C 646.862,34.442 645.362,37.942 644,41.5C 643.223,44.4294 643.39,47.2628 644.5,50C 646.568,50.6869 648.568,50.5202 650.5,49.5C 652.982,44.5363 655.482,39.5363 658,34.5C 658.495,32.5273 658.662,30.5273 658.5,28.5C 673.278,32.3093 686.111,39.6426 697,50.5C 701.716,59.5472 706.883,68.2139 712.5,76.5C 712.66,78.1992 712.494,79.8659 712,81.5C 704.429,87.6822 699.763,95.3489 698,104.5C 700.064,105.591 702.231,105.758 704.5,105C 708.735,101.72 711.902,97.5529 714,92.5C 716.287,90.9456 718.454,89.2789 720.5,87.5C 725.072,90.5633 729.239,94.23 733,98.5C 740.674,114.024 745.841,130.357 748.5,147.5C 744.056,147.778 740.389,149.611 737.5,153C 731.123,154.511 724.79,156.177 718.5,158C 716.174,163.023 717.674,165.856 723,166.5C 731.81,164.675 740.31,162.009 748.5,158.5C 751.04,169.184 752.207,180.184 752,191.5C 754.252,201.358 755.085,211.358 754.5,221.5C 753.639,223.386 752.639,225.22 751.5,227C 744.048,228.034 736.714,229.534 729.5,231.5C 726.933,231.721 724.599,232.388 722.5,233.5C 718.951,234.957 717.784,237.623 719,241.5C 719.383,242.056 719.883,242.389 720.5,242.5C 721.274,243.147 722.274,243.48 723.5,243.5C 728.986,242.275 734.32,240.942 739.5,239.5C 743.615,238.057 747.948,237.057 752.5,236.5C 754.48,248.455 755.146,260.788 754.5,273.5C 753.261,275.701 751.928,277.868 750.5,280C 741.909,281.244 733.242,281.911 724.5,282C 721.701,285.339 722.034,288.339 725.5,291C 733.5,291.667 741.5,291.667 749.5,291C 750.737,290.768 751.737,290.268 752.5,289.5C 753.586,289.62 754.253,290.287 754.5,291.5C 750.282,304.269 745.782,316.936 741,329.5C 735.928,330.471 730.762,330.805 725.5,330.5C 722.859,329.737 720.192,329.57 717.5,330C 715.771,331.789 715.104,333.956 715.5,336.5C 716.687,338.975 718.687,339.975 721.5,339.5C 725.881,341.211 730.547,341.877 735.5,341.5C 728.169,358.49 719.002,374.49 708,389.5C 705.205,391.293 702.705,393.46 700.5,396C 699.007,397.368 697.507,397.535 696,396.5C 694.961,397.71 693.794,398.71 692.5,399.5C 691.756,395.075 689.756,391.241 686.5,388C 682.167,386.511 679.833,388.011 679.5,392.5C 680.889,395.672 681.889,399.005 682.5,402.5C 679.925,401.432 677.758,399.765 676,397.5C 672.728,399.108 669.728,401.108 667,403.5C 662.948,408.712 659.115,414.045 655.5,419.5C 651.764,421.79 647.764,423.124 643.5,423.5C 641.639,420.978 639.639,418.478 637.5,416C 633.167,414.511 630.833,416.011 630.5,420.5C 631.03,423.89 632.363,426.89 634.5,429.5C 633.833,429.5 633.5,429.833 633.5,430.5C 626.111,432.014 618.778,433.847 611.5,436C 607.42,438.029 603.754,440.529 600.5,443.5C 595.423,444.039 590.757,445.706 586.5,448.5C 584.186,442.093 581.186,435.926 577.5,430C 575.5,429.333 573.5,429.333 571.5,430C 570.903,431.062 570.57,432.228 570.5,433.5C 571.888,438.605 573.554,443.605 575.5,448.5C 574.373,447.878 573.373,447.045 572.5,446C 571.167,445.833 569.833,445.667 568.5,445.5C 554.048,449.553 539.382,452.719 524.5,455C 507.833,455.333 491.167,455.667 474.5,456C 470.916,457.073 467.25,457.74 463.5,458C 440.16,459.378 416.827,459.544 393.5,458.5C 391.091,459.064 388.758,459.897 386.5,461C 381.667,461.167 376.833,461.333 372,461.5C 358.593,459.957 345.093,458.957 331.5,458.5C 328.194,457.556 324.861,456.556 321.5,455.5C 321.512,450.675 319.179,448.509 314.5,449C 312.859,450.129 311.859,451.629 311.5,453.5C 296.543,449.366 281.543,445.199 266.5,441C 261.833,440.333 257.167,439.667 252.5,439C 250.934,438.392 249.6,437.558 248.5,436.5C 253.696,434.266 258.863,431.933 264,429.5C 265.176,422.806 262.343,420.306 255.5,422C 249.748,424.711 244.082,427.711 238.5,431C 236.19,431.497 233.857,431.663 231.5,431.5C 229.608,430.298 227.774,428.965 226,427.5C 220.623,417.532 216.123,407.199 212.5,396.5C 222.441,394.614 232.441,392.948 242.5,391.5C 244.04,388.709 243.706,386.209 241.5,384C 231.769,383.379 222.103,383.879 212.5,385.5C 209.881,385.768 207.381,385.435 205,384.5C 197.328,372.826 192.161,360.16 189.5,346.5C 204.776,339.785 220.776,337.618 237.5,340C 240.089,343.097 243.089,345.597 246.5,347.5C 250.254,346.148 251.421,343.482 250,339.5C 247.46,337.295 245.293,334.795 243.5,332C 242.167,331.333 240.833,330.667 239.5,330C 228.5,329.333 217.5,329.333 206.5,330C 201.909,331.813 197.242,333.313 192.5,334.5C 191.5,334.5 190.5,334.5 189.5,334.5C 189.545,319.419 195.212,307.086 206.5,297.5C 216.663,294.634 226.996,292.467 237.5,291C 244.156,290.289 250.822,289.789 257.5,289.5C 259.022,290.431 260.355,291.598 261.5,293C 261.975,297.317 262.975,301.484 264.5,305.5C 270.583,306.754 273.25,304.088 272.5,297.5C 272.124,293.76 271.457,290.094 270.5,286.5C 296.167,286.5 321.833,286.5 347.5,286.5C 347.334,290.514 347.501,294.514 348,298.5C 350.932,302.388 353.932,302.388 357,298.5C 357.499,294.848 357.665,291.182 357.5,287.5C 371.504,287.333 385.504,287.5 399.5,288C 402.536,290.006 405.869,290.84 409.5,290.5C 410.207,296.8 410.707,303.133 411,309.5C 413.818,313.424 416.818,313.424 420,309.5C 420.499,304.511 420.666,299.511 420.5,294.5C 429.374,296.738 438.374,298.571 447.5,300C 456.151,303.604 464.817,307.104 473.5,310.5C 473.715,314.501 473.048,318.335 471.5,322C 472.515,329.084 475.681,330.251 481,325.5C 482.904,322.077 483.737,318.41 483.5,314.5C 488.183,316.341 492.517,318.841 496.5,322C 507.09,325.798 517.757,329.298 528.5,332.5C 527.518,338.337 529.851,341.17 535.5,341C 537.141,339.871 538.141,338.371 538.5,336.5C 551.681,340.671 564.681,345.005 577.5,349.5C 577.66,352.884 577.327,356.217 576.5,359.5C 577.555,364.385 580.389,365.719 585,363.5C 586.698,359.621 587.865,355.621 588.5,351.5C 595.357,352.932 602.023,354.932 608.5,357.5C 607.921,362.243 606.921,366.91 605.5,371.5C 605.57,372.772 605.903,373.938 606.5,375C 609.347,375.944 611.847,375.444 614,373.5C 616.365,369.779 617.865,365.779 618.5,361.5C 622.797,362.655 626.797,364.321 630.5,366.5C 627.745,374.517 622.412,380.017 614.5,383C 606.002,384.707 597.669,386.874 589.5,389.5C 589.998,385.781 589.164,382.447 587,379.5C 559.704,367.611 531.537,358.111 502.5,351C 491.041,344.405 478.708,341.739 465.5,343C 458.269,341.864 451.269,340.031 444.5,337.5C 441.898,335.19 438.898,333.357 435.5,332C 424.192,329.504 412.859,327.338 401.5,325.5C 396.232,324.432 391.232,322.598 386.5,320C 381.047,319.637 375.714,318.637 370.5,317C 350.833,316.333 331.167,316.333 311.5,317C 304.879,318.571 298.546,320.905 292.5,324C 288.333,328.167 284.167,332.333 280,336.5C 277.973,343.665 277.14,350.999 277.5,358.5C 276.698,359.952 276.198,361.618 276,363.5C 275.333,373.167 275.333,382.833 276,392.5C 279.77,399.561 284.603,405.728 290.5,411C 294.863,413.684 299.53,415.518 304.5,416.5C 307.296,419.797 310.296,422.964 313.5,426C 323.936,432.103 334.603,437.77 345.5,443C 354.537,443.725 363.537,444.725 372.5,446C 413.788,445.274 455.122,444.274 496.5,443C 512.681,441.612 528.681,438.945 544.5,435C 553.833,431 563.167,427 572.5,423C 579.33,417.752 586.996,414.419 595.5,413C 603.735,407.721 612.735,404.388 622.5,403C 630.081,400.09 636.581,395.59 642,389.5C 649.198,380.096 655.531,370.096 661,359.5C 664.511,355.127 668.011,350.794 671.5,346.5C 676.307,336.229 680.807,325.895 685,315.5C 685.037,306.717 685.871,298.05 687.5,289.5C 688.935,287.402 690.102,285.069 691,282.5C 691.667,259.5 691.667,236.5 691,213.5C 689.223,206.127 688.056,198.794 687.5,191.5C 687.667,166.164 687.5,140.831 687,115.5C 684.155,94.0163 672.988,78.8496 653.5,70C 643.5,62.6667 633.5,55.3333 623.5,48C 610.939,44.3278 599.606,46.6611 589.5,55C 583.167,55.3333 576.833,55.6667 570.5,56C 568,57.1667 566.167,59 565,61.5C 563.506,66.5256 564.673,70.6923 568.5,74C 575.059,75.2554 581.726,75.9221 588.5,76C 589,76.5 589.5,77 590,77.5C 592.765,84.0263 595.765,90.3596 599,96.5C 598.864,107.053 599.864,117.386 602,127.5C 602.667,134.5 602.667,141.5 602,148.5C 602.063,152.442 600.397,155.442 597,157.5C 596.896,163.145 595.563,168.478 593,173.5C 589.22,177.282 586.22,181.616 584,186.5C 582.068,188.038 579.901,189.205 577.5,190C 574.615,194.128 571.281,197.794 567.5,201C 551.511,205.498 535.511,209.998 519.5,214.5C 505.484,215.834 491.484,217.167 477.5,218.5C 466.185,219.229 456.352,215.896 448,208.5C 444.255,201.454 440.588,194.454 437,187.5C 414.683,160.927 405.35,130.26 409,95.5C 412.601,81.1159 420.101,69.2826 431.5,60C 433.137,59.3988 434.803,58.8988 436.5,58.5C 447.213,60.9485 457.546,64.4485 467.5,69C 470.493,72.9968 474.493,75.1635 479.5,75.5C 489.56,71.3209 491.226,64.8209 484.5,56C 487.389,51.5903 491.389,49.0903 496.5,48.5C 497.29,49.7942 498.29,50.9609 499.5,52C 505.367,51.932 510.7,53.5986 515.5,57C 520.612,56.7254 524.945,58.3921 528.5,62C 535.237,64.7258 538.071,62.5591 537,55.5C 532.571,52.7455 528.404,49.5788 524.5,46C 521.577,44.2896 518.577,44.123 515.5,45.5C 512.418,44.3655 509.418,43.3655 506.5,42.5C 508.913,40.1128 511.58,37.9461 514.5,36C 519.887,33.6455 524.887,30.8122 529.5,27.5C 539.642,33.7405 549.642,40.2405 559.5,47C 565.553,47.9443 567.72,45.4443 566,39.5C 562.6,36.8865 559.767,33.7199 557.5,30C 555.045,28.3695 552.545,28.2028 550,29.5C 546.555,26.5277 542.722,24.1943 538.5,22.5C 542.111,20.6828 545.778,19.0161 549.5,17.5 Z"/></g>
<g><path style="opacity:1" fill="#000401" d="M 595.5,17.5 C 598.833,17.5 602.167,17.5 605.5,17.5C 605.666,22.5111 605.499,27.5111 605,32.5C 602,36.5 599,36.5 596,32.5C 595.501,27.5111 595.334,22.5111 595.5,17.5 Z"/></g>
<g><path style="opacity:1" fill="#eff7fe" d="M 689.5,17.5 C 724.167,17.5 758.833,17.5 793.5,17.5C 821.5,17.5 849.5,17.5 877.5,17.5C 931.5,17.5 985.5,17.5 1039.5,17.5C 1089.83,17.5 1140.17,17.5 1190.5,17.5C 1190.5,95.8333 1190.5,174.167 1190.5,252.5C 1190.5,304.5 1190.5,356.5 1190.5,408.5C 1190.5,433.167 1190.5,457.833 1190.5,482.5C 1187.17,482.5 1183.83,482.5 1180.5,482.5C 1129.5,482.5 1078.5,482.5 1027.5,482.5C 999.5,482.5 971.5,482.5 943.5,482.5C 918.167,482.5 892.833,482.5 867.5,482.5C 840.5,482.5 813.5,482.5 786.5,482.5C 758.833,482.5 731.167,482.5 703.5,482.5C 675.5,482.5 647.5,482.5 619.5,482.5C 594.167,482.5 568.833,482.5 543.5,482.5C 532.5,482.5 521.5,482.5 510.5,482.5C 512.277,481.4 514.277,480.566 516.5,480C 522.5,479.667 528.5,479.333 534.5,479C 536.246,478.529 537.913,477.862 539.5,477C 547.833,476.667 556.167,476.333 564.5,476C 574.159,473.668 583.826,471.335 593.5,469C 610.072,462.679 626.739,456.346 643.5,450C 647.726,446.14 652.726,443.807 658.5,443C 662.658,439.72 667.325,437.387 672.5,436C 676.698,434.067 680.365,431.401 683.5,428C 691.575,424.349 699.575,420.516 707.5,416.5C 709.356,419.19 711.689,421.356 714.5,423C 738.833,423.667 763.167,423.667 787.5,423C 788.833,422.333 790.167,421.667 791.5,421C 808.214,417.54 824.881,413.873 841.5,410C 844.167,408.667 846.833,407.333 849.5,406C 867.311,403.344 882.477,395.511 895,382.5C 897.934,376.37 901.601,370.704 906,365.5C 910.822,350.318 917.155,335.985 925,322.5C 925.778,317.416 925.611,312.416 924.5,307.5C 926.836,305.996 928.669,303.996 930,301.5C 930.667,293.5 930.667,285.5 930,277.5C 928.697,275.06 927.53,272.56 926.5,270C 927.619,262.203 927.786,254.37 927,246.5C 925.566,243.071 923.399,240.238 920.5,238C 921.637,232.918 921.804,227.751 921,222.5C 920.027,220.36 918.527,218.693 916.5,217.5C 915.328,207.914 910.328,205.081 901.5,209C 899.374,211.433 898.041,214.266 897.5,217.5C 894.623,218.343 892.456,220.01 891,222.5C 890.797,228.266 890.631,233.932 890.5,239.5C 887.192,238.974 885.026,240.307 884,243.5C 881.278,250.898 879.778,258.565 879.5,266.5C 871.863,272.334 869.363,280 872,289.5C 873.528,292.417 874.861,295.417 876,298.5C 876.995,299.066 877.828,299.733 878.5,300.5C 873.464,306.241 870.297,312.907 869,320.5C 864.816,326.349 859.65,331.183 853.5,335C 844.749,338.918 835.749,342.251 826.5,345C 817.546,350.906 807.88,355.573 797.5,359C 782.167,359.667 766.833,359.667 751.5,359C 755.625,351.641 758.792,343.807 761,335.5C 761.667,334.833 762.333,334.167 763,333.5C 766.201,322.368 769.868,311.368 774,300.5C 774.667,264.5 774.667,228.5 774,192.5C 772.238,173.117 770.238,153.784 768,134.5C 764.47,120.578 760.137,106.911 755,93.5C 751.43,86.5952 746.43,80.9286 740,76.5C 738.422,71.92 735.422,68.5866 731,66.5C 725.481,58.128 720.481,49.4613 716,40.5C 712.273,37.2759 709.106,33.6092 706.5,29.5C 700.591,25.7238 694.925,21.7238 689.5,17.5 Z"/></g>
<g><path style="opacity:1" fill="#010501" d="M 538.5,22.5 C 542.722,24.1943 546.555,26.5277 550,29.5C 552.545,28.2028 555.045,28.3695 557.5,30C 559.767,33.7199 562.6,36.8865 566,39.5C 567.72,45.4443 565.553,47.9443 559.5,47C 549.642,40.2405 539.642,33.7405 529.5,27.5C 529.465,20.4365 532.465,18.7698 538.5,22.5 Z"/></g>
<g><path style="opacity:1" fill="#010401" d="M 658.5,28.5 C 658.662,30.5273 658.495,32.5273 658,34.5C 655.482,39.5363 652.982,44.5363 650.5,49.5C 648.568,50.5202 646.568,50.6869 644.5,50C 643.39,47.2628 643.223,44.4294 644,41.5C 645.362,37.942 646.862,34.442 648.5,31C 647.227,28.784 647.227,26.6173 648.5,24.5C 653.773,21.02 657.106,22.3533 658.5,28.5 Z"/></g>
<g><path style="opacity:1" fill="#0fb6b8" d="M 1039.5,7.5 C 1092.17,7.5 1144.83,7.5 1197.5,7.5C 1198.5,7.5 1199.5,7.5 1200.5,7.5C 1200.5,8.5 1200.5,9.5 1200.5,10.5C 1200.5,91.1667 1200.5,171.833 1200.5,252.5C 1197.17,252.5 1193.83,252.5 1190.5,252.5C 1190.5,174.167 1190.5,95.8333 1190.5,17.5C 1140.17,17.5 1089.83,17.5 1039.5,17.5C 1039.92,16.7784 1040.58,16.2784 1041.5,16C 1038.83,15.3333 1038.83,14.6667 1041.5,14C 1040.17,13 1038.83,12 1037.5,11C 1038.83,10.6667 1040.17,10.3333 1041.5,10C 1040.24,9.58309 1039.58,8.74975 1039.5,7.5 Z"/></g>
<g><path style="opacity:1" fill="#000401" d="M 506.5,42.5 C 509.418,43.3655 512.418,44.3655 515.5,45.5C 518.577,44.123 521.577,44.2896 524.5,46C 528.404,49.5788 532.571,52.7455 537,55.5C 538.071,62.5591 535.237,64.7258 528.5,62C 524.945,58.3921 520.612,56.7254 515.5,57C 510.7,53.5986 505.367,51.932 499.5,52C 498.29,50.9609 497.29,49.7942 496.5,48.5C 496.261,46.5328 496.594,44.6995 497.5,43C 500.482,42.502 503.482,42.3354 506.5,42.5 Z"/></g>
<g><path style="opacity:1" fill="#bc7f80" d="M 14.5,15.5 C 20.2076,15.4924 20.5409,15.9924 15.5,17C 18.4816,17.498 21.4816,17.6646 24.5,17.5C 24.5,42.8333 24.5,68.1667 24.5,93.5C 21.1667,93.5 17.8333,93.5 14.5,93.5C 14.5,67.5 14.5,41.5 14.5,15.5 Z"/></g>
<g><path style="opacity:1" fill="#000301" d="M 720.5,87.5 C 718.454,89.2789 716.287,90.9456 714,92.5C 711.902,97.5529 708.735,101.72 704.5,105C 702.231,105.758 700.064,105.591 698,104.5C 699.763,95.3489 704.429,87.6822 712,81.5C 712.494,79.8659 712.66,78.1992 712.5,76.5C 714.626,70.8433 717.793,70.1767 722,74.5C 723.022,79.1289 722.522,83.4623 720.5,87.5 Z"/></g>
<g><path style="opacity:1" fill="#c47d7d" d="M 14.5,93.5 C 17.8333,93.5 21.1667,93.5 24.5,93.5C 24.5,108.5 24.5,123.5 24.5,138.5C 21.1667,138.5 17.8333,138.5 14.5,138.5C 14.5,123.5 14.5,108.5 14.5,93.5 Z"/></g>
<g><path style="opacity:1" fill="#7d1715" d="M 462.5,92.5 C 464.722,92.178 466.556,92.8446 468,94.5C 470.525,108.091 471.025,121.757 469.5,135.5C 467.5,135.5 465.5,135.5 463.5,135.5C 463.005,123.922 462.005,112.422 460.5,101C 460.278,97.8524 460.945,95.019 462.5,92.5 Z"/></g>
<g><path style="opacity:1" fill="#7d1715" d="M 542.5,93.5 C 544.722,93.178 546.556,93.8446 548,95.5C 548.667,106.5 548.667,117.5 548,128.5C 545.667,131.167 543.333,131.167 541,128.5C 540.333,117.5 540.333,106.5 541,95.5C 541.717,94.9558 542.217,94.2891 542.5,93.5 Z"/></g>
<g><path style="opacity:1" fill="#020902" d="M 748.5,158.5 C 740.31,162.009 731.81,164.675 723,166.5C 717.674,165.856 716.174,163.023 718.5,158C 724.79,156.177 731.123,154.511 737.5,153C 740.389,149.611 744.056,147.778 748.5,147.5C 753.032,145.405 756.032,146.739 757.5,151.5C 755.771,155.524 752.771,157.858 748.5,158.5 Z"/></g>
<g><path style="opacity:1" fill="#7b1c15" d="M 514.5,154.5 C 515.496,154.414 516.329,154.748 517,155.5C 517.667,161.5 517.667,167.5 517,173.5C 516,176.167 515,176.167 514,173.5C 513.21,167.085 513.376,160.752 514.5,154.5 Z"/></g>
<g><path style="opacity:1" fill="#772217" d="M 487.5,155.5 C 488.822,155.33 489.989,155.663 491,156.5C 491.667,161.167 491.667,165.833 491,170.5C 490,171.833 489,171.833 488,170.5C 487.774,166.113 487.274,161.779 486.5,157.5C 486.863,156.817 487.196,156.15 487.5,155.5 Z"/></g>
<g><path style="opacity:1" fill="#cf797a" d="M 14.5,138.5 C 17.8333,138.5 21.1667,138.5 24.5,138.5C 24.5,163.5 24.5,188.5 24.5,213.5C 21.1667,213.5 17.8333,213.5 14.5,213.5C 14.5,188.5 14.5,163.5 14.5,138.5 Z"/></g>
<g><path style="opacity:1" fill="#3d7b2d" d="M 687.5,191.5 C 688.056,198.794 689.223,206.127 691,213.5C 691.667,236.5 691.667,259.5 691,282.5C 690.102,285.069 688.935,287.402 687.5,289.5C 687.5,256.833 687.5,224.167 687.5,191.5 Z"/></g>
<g><path style="opacity:1" fill="#3f7232" d="M 924.5,307.5 C 919.675,303.064 914.342,302.397 908.5,305.5C 907.685,304.163 906.518,303.163 905,302.5C 902.196,292.011 903.363,282.011 908.5,272.5C 907.167,270.5 905.833,268.5 904.5,266.5C 903.436,270.396 901.103,273.229 897.5,275C 898.46,276.419 899.293,277.919 900,279.5C 901.126,287.045 900.46,294.379 898,301.5C 896.729,302.883 895.229,303.883 893.5,304.5C 889.497,299.914 884.497,298.581 878.5,300.5C 877.828,299.733 876.995,299.066 876,298.5C 874.861,295.417 873.528,292.417 872,289.5C 869.363,280 871.863,272.334 879.5,266.5C 879.778,258.565 881.278,250.898 884,243.5C 885.026,240.307 887.192,238.974 890.5,239.5C 890.631,233.932 890.797,228.266 891,222.5C 892.456,220.01 894.623,218.343 897.5,217.5C 898.041,214.266 899.374,211.433 901.5,209C 910.328,205.081 915.328,207.914 916.5,217.5C 918.527,218.693 920.027,220.36 921,222.5C 921.804,227.751 921.637,232.918 920.5,238C 923.399,240.238 925.566,243.071 927,246.5C 927.786,254.37 927.619,262.203 926.5,270C 927.53,272.56 928.697,275.06 930,277.5C 930.667,285.5 930.667,293.5 930,301.5C 928.669,303.996 926.836,305.996 924.5,307.5 Z"/></g>
<g><path style="opacity:1" fill="#010501" d="M 752.5,236.5 C 747.948,237.057 743.615,238.057 739.5,239.5C 733.093,240.115 726.76,241.115 720.5,242.5C 719.883,242.389 719.383,242.056 719,241.5C 717.784,237.623 718.951,234.957 722.5,233.5C 725.228,233.829 727.562,233.163 729.5,231.5C 736.714,229.534 744.048,228.034 751.5,227C 752.639,225.22 753.639,223.386 754.5,221.5C 758.899,217.101 762.232,217.767 764.5,223.5C 762.482,229.845 758.482,234.178 752.5,236.5 Z"/></g>
<g><path style="opacity:1" fill="#734333" d="M 546.5,230.5 C 548.512,235.352 551.179,239.852 554.5,244C 562.438,245.197 570.438,245.864 578.5,246C 580.282,248.243 580.782,250.743 580,253.5C 579.411,255.863 577.911,256.863 575.5,256.5C 570.833,256.5 566.167,256.5 561.5,256.5C 561.5,257.5 561.5,258.5 561.5,259.5C 560.847,260.807 560.18,262.14 559.5,263.5C 561.205,268.394 562.038,273.394 562,278.5C 560.366,283.147 557.366,284.48 553,282.5C 549.777,273.052 547.443,263.385 546,253.5C 541.475,246.826 537.641,239.826 534.5,232.5C 538.427,231.475 542.427,230.808 546.5,230.5 Z"/></g>
<g><path style="opacity:1" fill="#093a15" d="M 729.5,231.5 C 727.562,233.163 725.228,233.829 722.5,233.5C 724.599,232.388 726.933,231.721 729.5,231.5 Z"/></g>
<g><path style="opacity:1" fill="#08521b" d="M 739.5,239.5 C 734.32,240.942 728.986,242.275 723.5,243.5C 722.274,243.48 721.274,243.147 720.5,242.5C 726.76,241.115 733.093,240.115 739.5,239.5 Z"/></g>
<g><path style="opacity:1" fill="#db7676" d="M 14.5,213.5 C 17.8333,213.5 21.1667,213.5 24.5,213.5C 24.5,239.5 24.5,265.5 24.5,291.5C 22.088,291.669 19.9214,291.003 18,289.5C 16.2382,289.944 16.4049,290.444 18.5,291C 16.8067,291.484 15.4733,290.984 14.5,289.5C 14.5,264.167 14.5,238.833 14.5,213.5 Z"/></g>
<g><path style="opacity:1" fill="#b6a4a0" d="M 575.5,256.5 C 570.721,256.953 566.054,257.953 561.5,259.5C 561.5,258.5 561.5,257.5 561.5,256.5C 566.167,256.5 570.833,256.5 575.5,256.5 Z"/></g>
<g><path style="opacity:1" fill="#3d7a2d" d="M 908.5,305.5 C 906.601,307.964 905.268,310.631 904.5,313.5C 902.796,308.974 899.463,306.974 894.5,307.5C 894.443,306.391 894.11,305.391 893.5,304.5C 895.229,303.883 896.729,302.883 898,301.5C 900.46,294.379 901.126,287.045 900,279.5C 899.293,277.919 898.46,276.419 897.5,275C 901.103,273.229 903.436,270.396 904.5,266.5C 905.833,268.5 907.167,270.5 908.5,272.5C 903.363,282.011 902.196,292.011 905,302.5C 906.518,303.163 907.685,304.163 908.5,305.5 Z"/></g>
<g><path style="opacity:1" fill="#020802" d="M 752.5,289.5 C 751.737,290.268 750.737,290.768 749.5,291C 741.5,291.667 733.5,291.667 725.5,291C 722.034,288.339 721.701,285.339 724.5,282C 733.242,281.911 741.909,281.244 750.5,280C 751.928,277.868 753.261,275.701 754.5,273.5C 756.068,272.527 757.735,272.36 759.5,273C 762.886,276.373 763.386,280.206 761,284.5C 758.254,286.455 755.42,288.122 752.5,289.5 Z"/></g>
<g><path style="opacity:1" fill="#000301" d="M 357.5,280.5 C 357.5,282.833 357.5,285.167 357.5,287.5C 357.665,291.182 357.499,294.848 357,298.5C 353.932,302.388 350.932,302.388 348,298.5C 347.501,294.514 347.334,290.514 347.5,286.5C 347.5,284.5 347.5,282.5 347.5,280.5C 346.132,276.826 347.465,274.493 351.5,273.5C 355.597,274.024 357.597,276.358 357.5,280.5 Z"/></g>
<g><path style="opacity:1" fill="#3e7b2c" d="M 347.5,280.5 C 347.5,282.5 347.5,284.5 347.5,286.5C 321.833,286.5 296.167,286.5 270.5,286.5C 277.022,285.291 283.689,284.125 290.5,283C 309.418,281.102 328.418,280.269 347.5,280.5 Z"/></g>
<g><path style="opacity:1" fill="#3b7c2d" d="M 357.5,280.5 C 370.979,280.554 384.313,281.721 397.5,284C 401.347,285.616 405.347,286.616 409.5,287C 410.056,287.383 410.389,287.883 410.5,288.5C 410.167,289.167 409.833,289.833 409.5,290.5C 405.869,290.84 402.536,290.006 399.5,288C 385.504,287.5 371.504,287.333 357.5,287.5C 357.5,285.167 357.5,282.833 357.5,280.5 Z"/></g>
<g><path style="opacity:1" fill="#010501" d="M 270.5,286.5 C 271.457,290.094 272.124,293.76 272.5,297.5C 273.25,304.088 270.583,306.754 264.5,305.5C 262.975,301.484 261.975,297.317 261.5,293C 260.355,291.598 259.022,290.431 257.5,289.5C 256.89,288.609 256.557,287.609 256.5,286.5C 256.859,284.629 257.859,283.129 259.5,282C 264.562,280.393 268.228,281.893 270.5,286.5 Z"/></g>
<g><path style="opacity:1" fill="#387d2d" d="M 256.5,286.5 C 256.557,287.609 256.89,288.609 257.5,289.5C 250.822,289.789 244.156,290.289 237.5,291C 226.996,292.467 216.663,294.634 206.5,297.5C 208.184,296 209.851,294.333 211.5,292.5C 214.564,291.879 217.564,291.045 220.5,290C 232.49,288.498 244.49,287.331 256.5,286.5 Z"/></g>
<g><path style="opacity:1" fill="#010501" d="M 420.5,294.5 C 420.666,299.511 420.499,304.511 420,309.5C 416.818,313.424 413.818,313.424 411,309.5C 410.707,303.133 410.207,296.8 409.5,290.5C 409.833,289.833 410.167,289.167 410.5,288.5C 416.97,284.944 420.303,286.944 420.5,294.5 Z"/></g>
<g><path style="opacity:1" fill="#e47373" d="M 14.5,289.5 C 15.4733,290.984 16.8067,291.484 18.5,291C 16.4049,290.444 16.2382,289.944 18,289.5C 19.9214,291.003 22.088,291.669 24.5,291.5C 24.5,306.167 24.5,320.833 24.5,335.5C 20.8215,335.94 17.4882,335.273 14.5,333.5C 14.5,318.833 14.5,304.167 14.5,289.5 Z"/></g>
<g><path style="opacity:1" fill="#010401" d="M 483.5,314.5 C 483.737,318.41 482.904,322.077 481,325.5C 475.681,330.251 472.515,329.084 471.5,322C 473.048,318.335 473.715,314.501 473.5,310.5C 472.833,308.181 472.666,305.847 473,303.5C 476.333,299.5 479.667,299.5 483,303.5C 483.499,307.152 483.665,310.818 483.5,314.5 Z"/></g>
<g><path style="opacity:1" fill="#10902f" d="M 894.5,307.5 C 899.463,306.974 902.796,308.974 904.5,313.5C 903.677,316.48 902.343,319.147 900.5,321.5C 898.03,321.346 896.03,320.346 894.5,318.5C 893.343,314.883 893.343,311.216 894.5,307.5 Z"/></g>
<g><path style="opacity:1" fill="#000401" d="M 538.5,336.5 C 538.141,338.371 537.141,339.871 535.5,341C 529.851,341.17 527.518,338.337 528.5,332.5C 528.234,328.429 528.567,324.429 529.5,320.5C 532.671,317.665 535.504,317.998 538,321.5C 538.499,326.489 538.666,331.489 538.5,336.5 Z"/></g>
<g><path style="opacity:1" fill="#010501" d="M 894.5,318.5 C 896.03,320.346 898.03,321.346 900.5,321.5C 902.481,323.303 904.648,324.97 907,326.5C 908.414,330.548 907.081,332.881 903,333.5C 900.558,333.518 898.392,332.851 896.5,331.5C 894.11,329.98 891.443,328.98 888.5,328.5C 885.813,328.664 883.146,328.497 880.5,328C 876.518,324.952 876.518,321.952 880.5,319C 885.155,318.501 889.821,318.334 894.5,318.5 Z"/></g>
<g><path style="opacity:1" fill="#3a782d" d="M 401.5,325.5 C 412.859,327.338 424.192,329.504 435.5,332C 438.898,333.357 441.898,335.19 444.5,337.5C 440.418,337.656 436.418,337.156 432.5,336C 422.124,332.331 411.79,328.831 401.5,325.5 Z"/></g>
<g><path style="opacity:1" fill="#010601" d="M 189.5,346.5 C 184.712,345.877 182.879,343.21 184,338.5C 186.447,336.192 189.281,334.859 192.5,334.5C 197.242,333.313 201.909,331.813 206.5,330C 217.5,329.333 228.5,329.333 239.5,330C 240.833,330.667 242.167,331.333 243.5,332C 245.293,334.795 247.46,337.295 250,339.5C 251.421,343.482 250.254,346.148 246.5,347.5C 243.089,345.597 240.089,343.097 237.5,340C 220.776,337.618 204.776,339.785 189.5,346.5 Z"/></g>
<g><path style="opacity:1" fill="#010702" d="M 725.5,330.5 C 731.319,331.328 737.319,331.828 743.5,332C 746.087,333.525 746.92,335.692 746,338.5C 743.103,341.231 739.603,342.231 735.5,341.5C 730.547,341.877 725.881,341.211 721.5,339.5C 719.544,338.508 717.544,337.508 715.5,336.5C 715.104,333.956 715.771,331.789 717.5,330C 720.192,329.57 722.859,329.737 725.5,330.5 Z"/></g>
<g><path style="opacity:1" fill="#010301" d="M 588.5,351.5 C 587.865,355.621 586.698,359.621 585,363.5C 580.389,365.719 577.555,364.385 576.5,359.5C 577.327,356.217 577.66,352.884 577.5,349.5C 578.324,345.688 578.824,341.688 579,337.5C 582,333.5 585,333.5 588,337.5C 588.499,342.155 588.666,346.821 588.5,351.5 Z"/></g>
<g><path style="opacity:1" fill="#eff7fe" d="M 318.5,336.5 C 333.837,336.333 349.17,336.5 364.5,337C 369.406,338.476 374.406,339.476 379.5,340C 396.241,346.435 413.241,352.102 430.5,357C 439.627,358.374 448.627,360.374 457.5,363C 465.229,363.143 472.895,363.81 480.5,365C 487.39,367.944 494.39,370.611 501.5,373C 526.704,379.265 551.371,387.265 575.5,397C 556.02,408.083 535.353,415.749 513.5,420C 505.115,420.764 496.782,421.764 488.5,423C 456.945,423.805 425.445,424.972 394,426.5C 380.513,425.423 367.013,424.256 353.5,423C 343.516,418.342 333.849,413.176 324.5,407.5C 317.803,398.096 310.637,389.096 303,380.5C 297.511,369.651 296.178,358.317 299,346.5C 304.472,341.021 310.972,337.688 318.5,336.5 Z"/></g>
<g><path style="opacity:1" fill="#083914" d="M 715.5,336.5 C 717.544,337.508 719.544,338.508 721.5,339.5C 718.687,339.975 716.687,338.975 715.5,336.5 Z"/></g>
<g><path style="opacity:1" fill="#010802" d="M 872.5,347.5 C 875.641,348.321 878.975,348.821 882.5,349C 885.113,351.795 885.113,354.629 882.5,357.5C 875.527,359.513 869.194,358.513 863.5,354.5C 861.524,352.989 859.191,352.156 856.5,352C 855.667,351.167 854.833,350.333 854,349.5C 854.006,343.195 857.172,341.029 863.5,343C 866.243,345.038 869.243,346.538 872.5,347.5 Z"/></g>
<g><path style="opacity:1" fill="#000300" d="M 618.5,354.5 C 618.5,356.833 618.5,359.167 618.5,361.5C 617.865,365.779 616.365,369.779 614,373.5C 611.847,375.444 609.347,375.944 606.5,375C 605.903,373.938 605.57,372.772 605.5,371.5C 606.921,366.91 607.921,362.243 608.5,357.5C 607.769,353.397 608.769,349.897 611.5,347C 616.662,346.665 618.995,349.165 618.5,354.5 Z"/></g>
<g><path style="opacity:1" fill="#3b7b2d" d="M 618.5,354.5 C 623.888,357.055 628.888,360.222 633.5,364C 632.627,365.045 631.627,365.878 630.5,366.5C 626.797,364.321 622.797,362.655 618.5,361.5C 618.5,359.167 618.5,356.833 618.5,354.5 Z"/></g>
<g><path style="opacity:1" fill="#109230" d="M 888.5,328.5 C 891.443,328.98 894.11,329.98 896.5,331.5C 892.466,339.092 889.299,347.092 887,355.5C 883.166,360.497 879.833,365.83 877,371.5C 869.109,377.696 860.275,382.196 850.5,385C 827.824,391.768 804.824,397.435 781.5,402C 764.672,401.642 747.838,402.142 731,403.5C 728.833,403.333 726.667,403.167 724.5,403C 729.872,395.758 734.872,388.258 739.5,380.5C 746.803,379.503 754.137,379.169 761.5,379.5C 762.944,382.402 764.444,385.402 766,388.5C 768.667,389.833 771.333,389.833 774,388.5C 774.495,385.469 774.329,382.469 773.5,379.5C 781.167,379.5 788.833,379.5 796.5,379.5C 798.229,380.117 799.729,381.117 801,382.5C 803.018,385.432 805.184,388.265 807.5,391C 813.667,392.167 816.167,389.667 815,383.5C 812.546,381.559 810.713,379.225 809.5,376.5C 815.351,374.884 821.018,372.884 826.5,370.5C 831.389,371.214 836.389,372.714 841.5,375C 844.227,375.818 846.894,375.652 849.5,374.5C 852.335,371.329 852.002,368.496 848.5,366C 845.478,365.902 842.811,365.068 840.5,363.5C 847.944,360.088 855.611,357.088 863.5,354.5C 869.194,358.513 875.527,359.513 882.5,357.5C 885.113,354.629 885.113,351.795 882.5,349C 878.975,348.821 875.641,348.321 872.5,347.5C 875.171,345.066 878.004,342.733 881,340.5C 883.261,336.304 885.761,332.304 888.5,328.5 Z"/></g>
<g><path style="opacity:1" fill="#3d7b2d" d="M 277.5,358.5 C 276.727,368.675 278.56,378.341 283,387.5C 286.394,391.898 289.394,396.565 292,401.5C 296.378,406.373 300.545,411.373 304.5,416.5C 299.53,415.518 294.863,413.684 290.5,411C 284.603,405.728 279.77,399.561 276,392.5C 275.333,382.833 275.333,373.167 276,363.5C 276.198,361.618 276.698,359.952 277.5,358.5 Z"/></g>
<g><path style="opacity:1" fill="#010802" d="M 840.5,363.5 C 842.811,365.068 845.478,365.902 848.5,366C 852.002,368.496 852.335,371.329 849.5,374.5C 846.894,375.652 844.227,375.818 841.5,375C 836.389,372.714 831.389,371.214 826.5,370.5C 824.808,367.131 825.474,364.298 828.5,362C 832.611,361.535 836.611,362.035 840.5,363.5 Z"/></g>
<g><path style="opacity:1" fill="#010601" d="M 809.5,376.5 C 810.713,379.225 812.546,381.559 815,383.5C 816.167,389.667 813.667,392.167 807.5,391C 805.184,388.265 803.018,385.432 801,382.5C 799.729,381.117 798.229,380.117 796.5,379.5C 795.418,378.406 794.752,377.073 794.5,375.5C 796.234,370.818 799.567,369.318 804.5,371C 806.402,372.73 808.069,374.563 809.5,376.5 Z"/></g>
<g><path style="opacity:1" fill="#000301" d="M 773.5,379.5 C 774.329,382.469 774.495,385.469 774,388.5C 771.333,389.833 768.667,389.833 766,388.5C 764.444,385.402 762.944,382.402 761.5,379.5C 761.35,375.317 763.35,372.984 767.5,372.5C 771.65,372.984 773.65,375.317 773.5,379.5 Z"/></g>
<g><path style="opacity:1" fill="#35a9ab" d="M 1190.5,252.5 C 1193.83,252.5 1197.17,252.5 1200.5,252.5C 1200.5,304.833 1200.5,357.167 1200.5,409.5C 1199.88,409.611 1199.38,409.944 1199,410.5C 1196.32,408.468 1193.48,407.801 1190.5,408.5C 1190.5,356.5 1190.5,304.5 1190.5,252.5 Z"/></g>
<g><path style="opacity:1" fill="#ee7070" d="M 14.5,333.5 C 17.4882,335.273 20.8215,335.94 24.5,335.5C 24.5,360.833 24.5,386.167 24.5,411.5C 20.8215,411.94 17.4882,411.273 14.5,409.5C 14.5,384.167 14.5,358.833 14.5,333.5 Z"/></g>
<g><path style="opacity:1" fill="#010601" d="M 212.5,396.5 C 209.999,397.826 207.332,398.326 204.5,398C 202.643,396.818 201.643,395.151 201.5,393C 203.185,387.513 206.852,385.013 212.5,385.5C 222.103,383.879 231.769,383.379 241.5,384C 243.706,386.209 244.04,388.709 242.5,391.5C 232.441,392.948 222.441,394.614 212.5,396.5 Z"/></g>
<g><path style="opacity:1" fill="#010401" d="M 692.5,399.5 C 698.97,400.787 700.637,404.287 697.5,410C 690.314,414.538 685.648,412.705 683.5,404.5C 683.672,403.508 683.338,402.842 682.5,402.5C 681.889,399.005 680.889,395.672 679.5,392.5C 679.833,388.011 682.167,386.511 686.5,388C 689.756,391.241 691.756,395.075 692.5,399.5 Z"/></g>
<g><path style="opacity:1" fill="#3d7a2c" d="M 682.5,402.5 C 683.338,402.842 683.672,403.508 683.5,404.5C 680.184,405.89 676.85,407.39 673.5,409C 668.353,413.984 662.353,417.484 655.5,419.5C 659.115,414.045 662.948,408.712 667,403.5C 669.728,401.108 672.728,399.108 676,397.5C 677.758,399.765 679.925,401.432 682.5,402.5 Z"/></g>
<g><path style="opacity:1" fill="#010501" d="M 643.5,423.5 C 645.7,427.88 648.533,431.88 652,435.5C 651.906,442.228 648.74,444.061 642.5,441C 639.688,437.188 637.021,433.354 634.5,429.5C 632.363,426.89 631.03,423.89 630.5,420.5C 630.833,416.011 633.167,414.511 637.5,416C 639.639,418.478 641.639,420.978 643.5,423.5 Z"/></g>
<g><path style="opacity:1" fill="#000401" d="M 248.5,436.5 C 247.29,436.932 246.29,437.599 245.5,438.5C 241.298,441.361 236.631,442.194 231.5,441C 227.581,437.84 227.581,434.673 231.5,431.5C 233.857,431.663 236.19,431.497 238.5,431C 244.082,427.711 249.748,424.711 255.5,422C 262.343,420.306 265.176,422.806 264,429.5C 258.863,431.933 253.696,434.266 248.5,436.5 Z"/></g>
<g><path style="opacity:1" fill="#000401" d="M 586.5,448.5 C 590.419,451.673 590.419,454.84 586.5,458C 580.598,459.559 577.264,457.392 576.5,451.5C 576.737,450.209 576.404,449.209 575.5,448.5C 573.554,443.605 571.888,438.605 570.5,433.5C 570.57,432.228 570.903,431.062 571.5,430C 573.5,429.333 575.5,429.333 577.5,430C 581.186,435.926 584.186,442.093 586.5,448.5 Z"/></g>
<g><path style="opacity:1" fill="#3c7a2d" d="M 633.5,430.5 C 622.669,435.076 611.669,439.409 600.5,443.5C 603.754,440.529 607.42,438.029 611.5,436C 618.778,433.847 626.111,432.014 633.5,430.5 Z"/></g>
<g><path style="opacity:1" fill="#3d7a2c" d="M 248.5,436.5 C 249.6,437.558 250.934,438.392 252.5,439C 257.167,439.667 261.833,440.333 266.5,441C 281.543,445.199 296.543,449.366 311.5,453.5C 310.564,454.974 309.23,455.974 307.5,456.5C 298.428,454.473 289.095,453.306 279.5,453C 268.459,450.152 257.792,446.152 247.5,441C 246.619,440.292 245.953,439.458 245.5,438.5C 246.29,437.599 247.29,436.932 248.5,436.5 Z"/></g>
<g><path style="opacity:1" fill="#46a4a5" d="M 1200.5,409.5 C 1200.5,436.167 1200.5,462.833 1200.5,489.5C 1200.5,490.5 1200.5,491.5 1200.5,492.5C 1199.5,492.5 1198.5,492.5 1197.5,492.5C 1190.5,492.5 1183.5,492.5 1176.5,492.5C 1177.61,491.71 1178.94,491.21 1180.5,491C 1179.17,490.667 1177.83,490.333 1176.5,490C 1178.5,489.667 1180.5,489.333 1182.5,489C 1179.17,488.667 1175.83,488.333 1172.5,488C 1175.83,487 1179.17,486 1182.5,485C 1179.17,484.667 1175.83,484.333 1172.5,484C 1175.36,483.817 1178.03,483.317 1180.5,482.5C 1183.83,482.5 1187.17,482.5 1190.5,482.5C 1190.5,457.833 1190.5,433.167 1190.5,408.5C 1193.48,407.801 1196.32,408.468 1199,410.5C 1199.38,409.944 1199.88,409.611 1200.5,409.5 Z"/></g>
<g><path style="opacity:1" fill="#3d7a2c" d="M 575.5,448.5 C 576.404,449.209 576.737,450.209 576.5,451.5C 570.365,452.467 564.365,453.967 558.5,456C 549.833,456.333 541.167,456.667 532.5,457C 530.754,457.471 529.087,458.138 527.5,459C 515.049,459.44 502.716,460.606 490.5,462.5C 488.955,460.628 486.955,459.628 484.5,459.5C 482.645,459.34 481.312,460.007 480.5,461.5C 479.566,462.568 479.232,463.901 479.5,465.5C 470.208,466.899 460.874,468.065 451.5,469C 449.754,469.471 448.087,470.138 446.5,471C 434.505,471.5 422.505,471.667 410.5,471.5C 409.135,467.746 406.468,466.579 402.5,468C 401.418,469.33 400.751,470.83 400.5,472.5C 376.96,469.86 353.96,465.193 331.5,458.5C 345.093,458.957 358.593,459.957 372,461.5C 376.833,461.333 381.667,461.167 386.5,461C 388.758,459.897 391.091,459.064 393.5,458.5C 416.827,459.544 440.16,459.378 463.5,458C 467.25,457.74 470.916,457.073 474.5,456C 491.167,455.667 507.833,455.333 524.5,455C 539.382,452.719 554.048,449.553 568.5,445.5C 569.833,445.667 571.167,445.833 572.5,446C 573.373,447.045 574.373,447.878 575.5,448.5 Z"/></g>
<g><path style="opacity:1" fill="#fa6c6c" d="M 14.5,409.5 C 17.4882,411.273 20.8215,411.94 24.5,411.5C 24.5,435.167 24.5,458.833 24.5,482.5C 48.1667,482.5 71.8333,482.5 95.5,482.5C 96.6085,483.29 97.9419,483.79 99.5,484C 98.1667,484.333 96.8333,484.667 95.5,485C 98.1667,485.667 98.1667,486.333 95.5,487C 100.833,487.667 100.833,488.333 95.5,489C 96.8333,489.333 98.1667,489.667 99.5,490C 98.8333,490.333 98.1667,490.667 97.5,491C 98.4158,491.278 99.0825,491.778 99.5,492.5C 72.1667,492.5 44.8333,492.5 17.5,492.5C 16.5,492.5 15.5,492.5 14.5,492.5C 14.5,491.5 14.5,490.5 14.5,489.5C 14.5,462.833 14.5,436.167 14.5,409.5 Z"/></g>
<g><path style="opacity:1" fill="#010601" d="M 321.5,455.5 C 319.577,458.603 317.41,461.603 315,464.5C 313.561,466.448 311.728,467.781 309.5,468.5C 303.58,465.556 302.914,461.556 307.5,456.5C 309.23,455.974 310.564,454.974 311.5,453.5C 311.859,451.629 312.859,450.129 314.5,449C 319.179,448.509 321.512,450.675 321.5,455.5 Z"/></g>
<g><path style="opacity:1" fill="#000200" d="M 490.5,462.5 C 490.685,464.196 491.519,465.529 493,466.5C 493.667,468.833 493.667,471.167 493,473.5C 490,477.5 487,477.5 484,473.5C 482.472,469.525 481.306,465.525 480.5,461.5C 481.312,460.007 482.645,459.34 484.5,459.5C 486.955,459.628 488.955,460.628 490.5,462.5 Z"/></g>
<g><path style="opacity:1" fill="#010501" d="M 410.5,471.5 C 411.689,476.445 410.023,479.778 405.5,481.5C 401.083,480.145 399.416,477.145 400.5,472.5C 400.751,470.83 401.418,469.33 402.5,468C 406.468,466.579 409.135,467.746 410.5,471.5 Z"/></g>
<g><path style="opacity:1" fill="#ec7070" d="M 95.5,482.5 C 121.5,482.5 147.5,482.5 173.5,482.5C 173.918,483.222 174.584,483.722 175.5,484C 174.833,484.333 174.167,484.667 173.5,485C 174.833,486 176.167,487 177.5,488C 176.167,488.333 174.833,488.667 173.5,489C 175.027,490.032 176.36,491.199 177.5,492.5C 151.5,492.5 125.5,492.5 99.5,492.5C 99.0825,491.778 98.4158,491.278 97.5,491C 98.1667,490.667 98.8333,490.333 99.5,490C 98.1667,489.667 96.8333,489.333 95.5,489C 100.833,488.333 100.833,487.667 95.5,487C 98.1667,486.333 98.1667,485.667 95.5,485C 96.8333,484.667 98.1667,484.333 99.5,484C 97.9419,483.79 96.6085,483.29 95.5,482.5 Z"/></g>
<g><path style="opacity:1" fill="#e37373" d="M 173.5,482.5 C 188.833,482.5 204.167,482.5 219.5,482.5C 219.918,483.222 220.584,483.722 221.5,484C 218.833,484.667 218.833,485.333 221.5,486C 220.833,486.333 220.167,486.667 219.5,487C 224.833,487.667 224.833,488.333 219.5,489C 222.167,489.667 222.167,490.333 219.5,491C 221.058,491.21 222.391,491.71 223.5,492.5C 208.167,492.5 192.833,492.5 177.5,492.5C 176.36,491.199 175.027,490.032 173.5,489C 174.833,488.667 176.167,488.333 177.5,488C 176.167,487 174.833,486 173.5,485C 174.167,484.667 174.833,484.333 175.5,484C 174.584,483.722 173.918,483.222 173.5,482.5 Z"/></g>
<g><path style="opacity:1" fill="#d97676" d="M 219.5,482.5 C 244.833,482.5 270.167,482.5 295.5,482.5C 296.609,483.29 297.942,483.79 299.5,484C 294.167,484.667 294.167,485.333 299.5,486C 296.833,486.667 296.833,487.333 299.5,488C 294.167,488.667 294.167,489.333 299.5,490C 298.833,490.333 298.167,490.667 297.5,491C 298.416,491.278 299.082,491.778 299.5,492.5C 274.167,492.5 248.833,492.5 223.5,492.5C 222.391,491.71 221.058,491.21 219.5,491C 222.167,490.333 222.167,489.667 219.5,489C 224.833,488.333 224.833,487.667 219.5,487C 220.167,486.667 220.833,486.333 221.5,486C 218.833,485.333 218.833,484.667 221.5,484C 220.584,483.722 219.918,483.222 219.5,482.5 Z"/></g>
<g><path style="opacity:1" fill="#cd7a7a" d="M 295.5,482.5 C 309.167,482.5 322.833,482.5 336.5,482.5C 350.5,482.5 364.5,482.5 378.5,482.5C 376.708,483.309 374.708,483.809 372.5,484C 374.833,484.333 377.167,484.667 379.5,485C 376.456,485.359 376.122,486.026 378.5,487C 370.833,487.813 371.166,488.479 379.5,489C 375.815,489.914 376.148,490.581 380.5,491C 378.942,491.21 377.609,491.71 376.5,492.5C 350.833,492.5 325.167,492.5 299.5,492.5C 299.082,491.778 298.416,491.278 297.5,491C 298.167,490.667 298.833,490.333 299.5,490C 294.167,489.333 294.167,488.667 299.5,488C 296.833,487.333 296.833,486.667 299.5,486C 294.167,485.333 294.167,484.667 299.5,484C 297.942,483.79 296.609,483.29 295.5,482.5 Z"/></g>
<g><path style="opacity:1" fill="#c47d7d" d="M 378.5,482.5 C 392.167,482.5 405.833,482.5 419.5,482.5C 420.609,483.29 421.942,483.79 423.5,484C 422.167,484.333 420.833,484.667 419.5,485C 422.167,485.667 422.167,486.333 419.5,487C 424.833,487.667 424.833,488.333 419.5,489C 422.167,489.667 422.167,490.333 419.5,491C 421.058,491.21 422.391,491.71 423.5,492.5C 407.833,492.5 392.167,492.5 376.5,492.5C 377.609,491.71 378.942,491.21 380.5,491C 376.148,490.581 375.815,489.914 379.5,489C 371.166,488.479 370.833,487.813 378.5,487C 376.122,486.026 376.456,485.359 379.5,485C 377.167,484.667 374.833,484.333 372.5,484C 374.708,483.809 376.708,483.309 378.5,482.5 Z"/></g>
<g><path style="opacity:1" fill="#ba8080" d="M 419.5,482.5 C 445.5,482.5 471.5,482.5 497.5,482.5C 497.918,483.222 498.584,483.722 499.5,484C 496.833,484.667 496.833,485.333 499.5,486C 498.833,486.333 498.167,486.667 497.5,487C 502.833,487.667 502.833,488.333 497.5,489C 500.167,489.667 500.167,490.333 497.5,491C 499.058,491.21 500.391,491.71 501.5,492.5C 475.5,492.5 449.5,492.5 423.5,492.5C 422.391,491.71 421.058,491.21 419.5,491C 422.167,490.333 422.167,489.667 419.5,489C 424.833,488.333 424.833,487.667 419.5,487C 422.167,486.333 422.167,485.667 419.5,485C 420.833,484.667 422.167,484.333 423.5,484C 421.942,483.79 420.609,483.29 419.5,482.5 Z"/></g>
<g><path style="opacity:1" fill="#a78686" d="M 543.5,482.5 C 568.833,482.5 594.167,482.5 619.5,482.5C 620.609,483.29 621.942,483.79 623.5,484C 618.167,484.667 618.167,485.333 623.5,486C 620.833,486.667 620.833,487.333 623.5,488C 618.167,488.667 618.167,489.333 623.5,490C 622.833,490.333 622.167,490.667 621.5,491C 622.416,491.278 623.082,491.778 623.5,492.5C 597.5,492.5 571.5,492.5 545.5,492.5C 545.082,491.778 544.416,491.278 543.5,491C 546.167,490.333 546.167,489.667 543.5,489C 546.167,488.333 546.167,487.667 543.5,487C 546.167,486.333 546.167,485.667 543.5,485C 544.167,484.667 544.833,484.333 545.5,484C 544.584,483.722 543.918,483.222 543.5,482.5 Z"/></g>
<g><path style="opacity:1" fill="#9a8a8a" d="M 619.5,482.5 C 647.5,482.5 675.5,482.5 703.5,482.5C 704.609,483.29 705.942,483.79 707.5,484C 702.167,484.667 702.167,485.333 707.5,486C 704.833,486.667 704.833,487.333 707.5,488C 702.167,488.667 702.167,489.333 707.5,490C 706.833,490.333 706.167,490.667 705.5,491C 706.416,491.278 707.082,491.778 707.5,492.5C 679.5,492.5 651.5,492.5 623.5,492.5C 623.082,491.778 622.416,491.278 621.5,491C 622.167,490.667 622.833,490.333 623.5,490C 618.167,489.333 618.167,488.667 623.5,488C 620.833,487.333 620.833,486.667 623.5,486C 618.167,485.333 618.167,484.667 623.5,484C 621.942,483.79 620.609,483.29 619.5,482.5 Z"/></g>
<g><path style="opacity:1" fill="#8e8e8f" d="M 703.5,482.5 C 731.167,482.5 758.833,482.5 786.5,482.5C 785.939,485.034 785.606,487.534 785.5,490C 786.381,490.708 787.047,491.542 787.5,492.5C 760.833,492.5 734.167,492.5 707.5,492.5C 707.082,491.778 706.416,491.278 705.5,491C 706.167,490.667 706.833,490.333 707.5,490C 702.167,489.333 702.167,488.667 707.5,488C 704.833,487.333 704.833,486.667 707.5,486C 702.167,485.333 702.167,484.667 707.5,484C 705.942,483.79 704.609,483.29 703.5,482.5 Z"/></g>
<g><path style="opacity:1" fill="#829192" d="M 786.5,482.5 C 813.5,482.5 840.5,482.5 867.5,482.5C 867.918,483.222 868.584,483.722 869.5,484C 864.167,484.667 864.167,485.333 869.5,486C 866.833,486.667 866.833,487.333 869.5,488C 864.167,488.667 864.167,489.333 869.5,490C 868.833,490.333 868.167,490.667 867.5,491C 868.416,491.278 869.082,491.778 869.5,492.5C 842.167,492.5 814.833,492.5 787.5,492.5C 787.047,491.542 786.381,490.708 785.5,490C 785.606,487.534 785.939,485.034 786.5,482.5 Z"/></g>
<g><path style="opacity:1" fill="#759596" d="M 867.5,482.5 C 892.833,482.5 918.167,482.5 943.5,482.5C 944.609,483.29 945.942,483.79 947.5,484C 942.167,484.667 942.167,485.333 947.5,486C 944.833,486.667 944.833,487.333 947.5,488C 942.167,488.667 942.167,489.333 947.5,490C 946.833,490.333 946.167,490.667 945.5,491C 946.416,491.278 947.082,491.778 947.5,492.5C 921.5,492.5 895.5,492.5 869.5,492.5C 869.082,491.778 868.416,491.278 867.5,491C 868.167,490.667 868.833,490.333 869.5,490C 864.167,489.333 864.167,488.667 869.5,488C 866.833,487.333 866.833,486.667 869.5,486C 864.167,485.333 864.167,484.667 869.5,484C 868.584,483.722 867.918,483.222 867.5,482.5 Z"/></g>
<g><path style="opacity:1" fill="#69999a" d="M 943.5,482.5 C 971.5,482.5 999.5,482.5 1027.5,482.5C 1026.74,483.268 1025.74,483.768 1024.5,484C 1028.5,484.667 1028.5,485.333 1024.5,486C 1028.5,486.667 1028.5,487.333 1024.5,488C 1025.5,488.333 1026.5,488.667 1027.5,489C 1026.17,489.667 1026.17,490.333 1027.5,491C 1026.26,491.232 1025.26,491.732 1024.5,492.5C 998.833,492.5 973.167,492.5 947.5,492.5C 947.082,491.778 946.416,491.278 945.5,491C 946.167,490.667 946.833,490.333 947.5,490C 942.167,489.333 942.167,488.667 947.5,488C 944.833,487.333 944.833,486.667 947.5,486C 942.167,485.333 942.167,484.667 947.5,484C 945.942,483.79 944.609,483.29 943.5,482.5 Z"/></g>
<g><path style="opacity:1" fill="#559fa1" d="M 1027.5,482.5 C 1078.5,482.5 1129.5,482.5 1180.5,482.5C 1178.03,483.317 1175.36,483.817 1172.5,484C 1175.83,484.333 1179.17,484.667 1182.5,485C 1179.17,486 1175.83,487 1172.5,488C 1175.83,488.333 1179.17,488.667 1182.5,489C 1180.5,489.333 1178.5,489.667 1176.5,490C 1177.83,490.333 1179.17,490.667 1180.5,491C 1178.94,491.21 1177.61,491.71 1176.5,492.5C 1125.83,492.5 1075.17,492.5 1024.5,492.5C 1025.26,491.732 1026.26,491.232 1027.5,491C 1026.17,490.333 1026.17,489.667 1027.5,489C 1026.5,488.667 1025.5,488.333 1024.5,488C 1028.5,487.333 1028.5,486.667 1024.5,486C 1028.5,485.333 1028.5,484.667 1024.5,484C 1025.74,483.768 1026.74,483.268 1027.5,482.5 Z"/></g>
<g><path style="opacity:1" fill="#323233" d="M -0.5,484.5 C 4.07375,500.856 15.0738,508.689 32.5,508C 49.1633,508.5 65.83,508.667 82.5,508.5C 82.3335,520.171 82.5001,531.838 83,543.5C 83.5,544 84,544.5 84.5,545C 170.5,545.667 256.5,545.667 342.5,545C 343,544.5 343.5,544 344,543.5C 344.667,531.5 344.667,519.5 344,507.5C 343.5,507 343,506.5 342.5,506C 256.5,505.333 170.5,505.333 84.5,506C 83.9558,506.717 83.2891,507.217 82.5,507.5C 82.5,506.167 82.5,504.833 82.5,503.5C 432.5,503.5 782.5,503.5 1132.5,503.5C 1132.5,505.167 1132.5,506.833 1132.5,508.5C 1152.53,508.866 1172.53,508.366 1192.5,507C 1203.34,504.781 1210.67,498.614 1214.5,488.5C 1214.5,510.833 1214.5,533.167 1214.5,555.5C 809.5,555.5 404.5,555.5 -0.5,555.5C -0.5,531.833 -0.5,508.167 -0.5,484.5 Z"/></g>
<g><path style="opacity:1" fill="#b18383" d="M 497.5,482.5 C 501.833,482.5 506.167,482.5 510.5,482.5C 521.5,482.5 532.5,482.5 543.5,482.5C 543.918,483.222 544.584,483.722 545.5,484C 544.833,484.333 544.167,484.667 543.5,485C 546.167,485.667 546.167,486.333 543.5,487C 546.167,487.667 546.167,488.333 543.5,489C 546.167,489.667 546.167,490.333 543.5,491C 544.416,491.278 545.082,491.778 545.5,492.5C 530.833,492.5 516.167,492.5 501.5,492.5C 500.391,491.71 499.058,491.21 497.5,491C 500.167,490.333 500.167,489.667 497.5,489C 502.833,488.333 502.833,487.667 497.5,487C 498.167,486.667 498.833,486.333 499.5,486C 496.833,485.333 496.833,484.667 499.5,484C 498.584,483.722 497.918,483.222 497.5,482.5 Z"/></g>
<g><path style="opacity:1" fill="#292929" d="M 17.5,492.5 C 44.8333,492.5 72.1667,492.5 99.5,492.5C 125.5,492.5 151.5,492.5 177.5,492.5C 192.833,492.5 208.167,492.5 223.5,492.5C 248.833,492.5 274.167,492.5 299.5,492.5C 325.167,492.5 350.833,492.5 376.5,492.5C 392.167,492.5 407.833,492.5 423.5,492.5C 449.5,492.5 475.5,492.5 501.5,492.5C 516.167,492.5 530.833,492.5 545.5,492.5C 571.5,492.5 597.5,492.5 623.5,492.5C 651.5,492.5 679.5,492.5 707.5,492.5C 734.167,492.5 760.833,492.5 787.5,492.5C 814.833,492.5 842.167,492.5 869.5,492.5C 895.5,492.5 921.5,492.5 947.5,492.5C 973.167,492.5 998.833,492.5 1024.5,492.5C 1075.17,492.5 1125.83,492.5 1176.5,492.5C 1183.5,492.5 1190.5,492.5 1197.5,492.5C 1195.04,494.837 1192.04,496.337 1188.5,497C 801.167,497.667 413.833,497.667 26.5,497C 22.9647,496.337 19.9647,494.837 17.5,492.5 Z"/></g>
<g><path style="opacity:1" fill="#0074fe" d="M 684.5,521.5 C 684.5,524.167 684.5,526.833 684.5,529.5C 679.833,533.5 675.167,533.5 670.5,529.5C 563.294,528.829 455.961,528.163 348.5,527.5C 348.297,525.61 348.963,524.11 350.5,523C 457.334,522.833 564.001,522.333 670.5,521.5C 675.167,517.5 679.833,517.5 684.5,521.5 Z"/></g>
<g><path style="opacity:1" fill="#3b75ba" d="M 670.5,521.5 C 564.001,522.333 457.334,522.833 350.5,523C 348.963,524.11 348.297,525.61 348.5,527.5C 347.113,525.511 347.447,523.678 349.5,522C 456.499,521.5 563.499,521.333 670.5,521.5 Z"/></g>
<g><path style="opacity:1" fill="#e0e0e1" d="M 684.5,521.5 C 832.167,521.333 979.834,521.5 1127.5,522C 1130.17,524.333 1130.17,526.667 1127.5,529C 979.834,529.5 832.167,529.667 684.5,529.5C 684.5,526.833 684.5,524.167 684.5,521.5 Z"/></g>
<g><path style="opacity:1" fill="#3a75ba" d="M 348.5,527.5 C 455.961,528.163 563.294,528.829 670.5,529.5C 563.499,529.667 456.499,529.5 349.5,529C 348.944,528.617 348.611,528.117 348.5,527.5 Z"/></g>
<g><path style="opacity:1" fill="#fd6a6a" d="M 82.5,508.5 C 82.5,508.167 82.5,507.833 82.5,507.5C 83.2891,507.217 83.9558,506.717 84.5,506C 170.5,505.333 256.5,505.333 342.5,506C 343,506.5 343.5,507 344,507.5C 344.667,519.5 344.667,531.5 344,543.5C 343.5,544 343,544.5 342.5,545C 256.5,545.667 170.5,545.667 84.5,545C 84,544.5 83.5,544 83,543.5C 82.5001,531.838 82.3335,520.171 82.5,508.5 Z"/></g>
<g><path style="opacity:1" fill="#333333" d="M 85.5,506.5 C 170.834,506.333 256.167,506.5 341.5,507C 342,507.5 342.5,508 343,508.5C 343.667,519.833 343.667,531.167 343,542.5C 342.5,543 342,543.5 341.5,544C 256.167,544.667 170.833,544.667 85.5,544C 85,543.5 84.5,543 84,542.5C 83.3333,531.167 83.3333,519.833 84,508.5C 84.7172,507.956 85.2172,507.289 85.5,506.5 Z"/></g>
<g><path style="opacity:1" fill="#767776" d="M 90.5,515.5 C 172.5,515.5 254.5,515.5 336.5,515.5C 336.5,522.167 336.5,528.833 336.5,535.5C 254.5,535.5 172.5,535.5 90.5,535.5C 90.5,528.833 90.5,522.167 90.5,515.5 Z"/></g>
<g><path style="opacity:1" fill="#000000" d="M 91.5,516.5 C 172.833,516.5 254.167,516.5 335.5,516.5C 335.5,522.5 335.5,528.5 335.5,534.5C 254.167,534.5 172.833,534.5 91.5,534.5C 91.5,528.5 91.5,522.5 91.5,516.5 Z"/></g>
</svg>
