<?xml version="1.0" encoding="UTF-8"?>
<!DOCTYPE svg PUBLIC "-//W3C//DTD SVG 1.1//EN" "http://www.w3.org/Graphics/SVG/1.1/DTD/svg11.dtd">
<svg xmlns="http://www.w3.org/2000/svg" version="1.1" width="678px" height="613px" style="shape-rendering:geometricPrecision; text-rendering:geometricPrecision; image-rendering:optimizeQuality; fill-rule:evenodd; clip-rule:evenodd" xmlns:xlink="http://www.w3.org/1999/xlink">
<g><path style="opacity:1" fill="#212529" d="M -0.5,-0.5 C 225.5,-0.5 451.5,-0.5 677.5,-0.5C 677.5,35.8333 677.5,72.1667 677.5,108.5C 451.5,108.5 225.5,108.5 -0.5,108.5C -0.5,72.1667 -0.5,35.8333 -0.5,-0.5 Z"/></g>
<g><path style="opacity:1" fill="#e5ebed" d="M 294.5,13.5 C 299.159,13.0146 300.492,14.848 298.5,19C 293.728,19.8104 292.395,17.9771 294.5,13.5 Z"/></g>
<g><path style="opacity:1" fill="#fefffe" d="M 163.5,16.5 C 170.5,16.5 177.5,16.5 184.5,16.5C 184.5,17.8333 184.5,19.1667 184.5,20.5C 181.5,20.5 178.5,20.5 175.5,20.5C 175.5,28.5 175.5,36.5 175.5,44.5C 174.5,44.5 173.5,44.5 172.5,44.5C 172.5,36.5 172.5,28.5 172.5,20.5C 169.5,20.5 166.5,20.5 163.5,20.5C 163.5,19.1667 163.5,17.8333 163.5,16.5 Z"/></g>
<g><path style="opacity:1" fill="#ebe9e7" d="M 210.5,16.5 C 217.061,15.9186 223.395,16.752 229.5,19C 234.259,23.4908 235.759,28.9908 234,35.5C 232.451,40.0416 229.284,42.8749 224.5,44C 219.845,44.4992 215.179,44.6658 210.5,44.5C 210.5,35.1667 210.5,25.8333 210.5,16.5 Z"/></g>
<g><path style="opacity:1" fill="#f8f0e8" d="M 273.5,16.5 C 275.167,16.5 276.833,16.5 278.5,16.5C 278.5,24.1667 278.5,31.8333 278.5,39.5C 282.5,39.5 286.5,39.5 290.5,39.5C 290.5,41.1667 290.5,42.8333 290.5,44.5C 284.833,44.5 279.167,44.5 273.5,44.5C 273.5,35.1667 273.5,25.8333 273.5,16.5 Z"/></g>
<g><path style="opacity:1" fill="#f4f2ed" d="M 377.5,20.5 C 378.166,28.4827 378.499,36.4827 378.5,44.5C 377.167,44.5 375.833,44.5 374.5,44.5C 374.916,38.0478 374.416,31.7145 373,25.5C 370.951,30.1926 368.951,34.8593 367,39.5C 365.333,40.8333 363.667,40.8333 362,39.5C 360.102,34.7045 357.935,30.0378 355.5,25.5C 354.504,31.7985 354.17,38.1318 354.5,44.5C 352.833,44.5 351.167,44.5 349.5,44.5C 349.745,35.1628 350.078,25.8294 350.5,16.5C 352.792,16.2436 354.959,16.5769 357,17.5C 359.289,23.0437 361.956,28.3771 365,33.5C 367.162,28.2082 369.329,22.8748 371.5,17.5C 373.396,16.5344 375.396,16.2011 377.5,16.5C 377.5,17.8333 377.5,19.1667 377.5,20.5 Z"/></g>
<g><path style="opacity:1" fill="#f6f3ec" d="M 323.5,17.5 C 325.167,17.5 326.833,17.5 328.5,17.5C 328.5,19.5 328.5,21.5 328.5,23.5C 330.833,23.5 333.167,23.5 335.5,23.5C 335.5,24.8333 335.5,26.1667 335.5,27.5C 333.167,27.5 330.833,27.5 328.5,27.5C 328.334,31.5138 328.501,35.5138 329,39.5C 331.381,40.435 333.881,40.7683 336.5,40.5C 336.5,41.8333 336.5,43.1667 336.5,44.5C 331.593,46.4859 327.426,45.4859 324,41.5C 323.5,33.5069 323.334,25.5069 323.5,17.5 Z"/></g>
<g><path style="opacity:1" fill="#add9e9" d="M 163.5,16.5 C 163.5,17.8333 163.5,19.1667 163.5,20.5C 166.5,20.5 169.5,20.5 172.5,20.5C 172.5,28.5 172.5,36.5 172.5,44.5C 171.508,37.0182 171.175,29.3516 171.5,21.5C 168.5,21.5 165.5,21.5 162.5,21.5C 162.216,19.5853 162.549,17.9187 163.5,16.5 Z"/></g>
<g><path style="opacity:1" fill="#ebe3c3" d="M 184.5,16.5 C 185.451,17.9187 185.784,19.5853 185.5,21.5C 182.5,21.5 179.5,21.5 176.5,21.5C 176.825,29.3516 176.492,37.0182 175.5,44.5C 175.5,36.5 175.5,28.5 175.5,20.5C 178.5,20.5 181.5,20.5 184.5,20.5C 184.5,19.1667 184.5,17.8333 184.5,16.5 Z"/></g>
<g><path style="opacity:1" fill="#22272d" d="M 216.5,21.5 C 227.396,20.2357 231.23,24.9024 228,35.5C 225.056,39.1136 221.223,40.4469 216.5,39.5C 216.5,33.5 216.5,27.5 216.5,21.5 Z"/></g>
<g><path style="opacity:1" fill="#f0f1ee" d="M 190.5,23.5 C 203.006,22.0046 207.672,27.3379 204.5,39.5C 197.911,47.7097 191.745,47.3764 186,38.5C 185.333,35.1667 185.333,31.8333 186,28.5C 187.707,26.9625 189.207,25.2959 190.5,23.5 Z"/></g>
<g><path style="opacity:1" fill="#f0f1ee" d="M 243.5,23.5 C 256.006,22.0046 260.672,27.3379 257.5,39.5C 250.911,47.7097 244.745,47.3764 239,38.5C 238.333,35.1667 238.333,31.8333 239,28.5C 240.707,26.9625 242.207,25.2959 243.5,23.5 Z"/></g>
<g><path style="opacity:1" fill="#faf5e9" d="M 294.5,23.5 C 296.167,23.5 297.833,23.5 299.5,23.5C 299.5,30.5 299.5,37.5 299.5,44.5C 297.833,44.5 296.167,44.5 294.5,44.5C 294.5,37.5 294.5,30.5 294.5,23.5 Z"/></g>
<g><path style="opacity:1" fill="#eceae7" d="M 309.5,22.5 C 312.206,22.5751 314.873,22.9084 317.5,23.5C 317.5,24.8333 317.5,26.1667 317.5,27.5C 314.833,27.5 312.167,27.5 309.5,27.5C 309.33,28.8221 309.663,29.9887 310.5,31C 313.329,32.2467 315.995,33.7467 318.5,35.5C 320.011,42.1751 317.178,45.5085 310,45.5C 305.528,45.8106 303.861,43.8106 305,39.5C 308.057,40.4505 311.223,40.7839 314.5,40.5C 314.719,39.325 314.386,38.325 313.5,37.5C 306.457,36.3124 303.624,32.3124 305,25.5C 306.409,24.2189 307.909,23.2189 309.5,22.5 Z"/></g>
<g><path style="opacity:1" fill="#eeede9" d="M 385.5,23.5 C 389.182,23.3347 392.848,23.5014 396.5,24C 397.931,24.4652 399.097,25.2986 400,26.5C 400.499,32.4908 400.666,38.4908 400.5,44.5C 396.537,45.44 392.537,45.6067 388.5,45C 383.178,42.0775 382.178,38.0775 385.5,33C 388.688,31.6842 392.022,31.1842 395.5,31.5C 395.67,30.1779 395.337,29.0113 394.5,28C 391.518,27.502 388.518,27.3354 385.5,27.5C 385.5,26.1667 385.5,24.8333 385.5,23.5 Z"/></g>
<g><path style="opacity:1" fill="#eee8e1" d="M 409.5,22.5 C 414.677,21.7031 419.177,23.0364 423,26.5C 424.41,32.3792 424.91,38.3792 424.5,44.5C 422.5,44.5 420.5,44.5 418.5,44.5C 418.666,39.1563 418.499,33.8229 418,28.5C 415.959,27.5769 413.792,27.2436 411.5,27.5C 411.5,33.1667 411.5,38.8333 411.5,44.5C 409.833,44.5 408.167,44.5 406.5,44.5C 406.5,37.5 406.5,30.5 406.5,23.5C 407.791,23.7373 408.791,23.404 409.5,22.5 Z"/></g>
<g><path style="opacity:1" fill="#ede8e3" d="M 432.5,22.5 C 436.753,21.986 440.587,22.986 444,25.5C 445.416,31.7145 445.916,38.0478 445.5,44.5C 442.65,44.6361 439.817,44.9695 437,45.5C 430.112,44.941 427.445,41.2743 429,34.5C 429.903,33.2986 431.069,32.4652 432.5,32C 435.226,31.8184 437.893,31.3184 440.5,30.5C 440.023,29.5224 439.357,28.6891 438.5,28C 435.854,27.5026 433.187,27.3359 430.5,27.5C 430.365,25.4458 431.032,23.7791 432.5,22.5 Z"/></g>
<g><path style="opacity:1" fill="#f3f2ed" d="M 457.5,22.5 C 461.179,22.7244 464.846,23.0578 468.5,23.5C 468.666,31.5069 468.5,39.5069 468,47.5C 463.945,52.3159 458.778,53.8159 452.5,52C 451.253,50.5064 451.253,49.0064 452.5,47.5C 455.908,48.8944 459.241,48.7278 462.5,47C 463.554,45.6124 463.72,44.1124 463,42.5C 454.594,45.1063 450.428,41.9397 450.5,33C 450.238,27.7631 452.571,24.2631 457.5,22.5 Z"/></g>
<g><path style="opacity:1" fill="#ededeb" d="M 480.5,22.5 C 489.372,22.3707 493.372,26.7041 492.5,35.5C 488.167,35.5 483.833,35.5 479.5,35.5C 479.297,37.3904 479.963,38.8904 481.5,40C 484.23,40.7284 486.897,40.5617 489.5,39.5C 490.452,41.0453 490.785,42.712 490.5,44.5C 477.702,46.8701 472.202,41.5367 474,28.5C 476.063,26.2659 478.229,24.2659 480.5,22.5 Z"/></g>
<g><path style="opacity:1" fill="#fbf5ed" d="M 497.5,23.5 C 501.5,23.5 505.5,23.5 509.5,23.5C 509.5,24.8333 509.5,26.1667 509.5,27.5C 507.167,27.5 504.833,27.5 502.5,27.5C 502.5,33.1667 502.5,38.8333 502.5,44.5C 500.833,44.5 499.167,44.5 497.5,44.5C 497.5,37.5 497.5,30.5 497.5,23.5 Z"/></g>
<g><path style="opacity:1" fill="#2f2c32" d="M 193.5,27.5 C 199.795,27.9836 201.961,31.3169 200,37.5C 194.805,42.073 191.638,40.9063 190.5,34C 190.036,30.9933 191.036,28.8266 193.5,27.5 Z"/></g>
<g><path style="opacity:1" fill="#2f2c32" d="M 246.5,27.5 C 252.795,27.9836 254.961,31.3169 253,37.5C 247.805,42.073 244.638,40.9063 243.5,34C 243.036,30.9933 244.036,28.8266 246.5,27.5 Z"/></g>
<g><path style="opacity:1" fill="#292833" d="M 457.5,27.5 C 459.5,27.5 461.5,27.5 463.5,27.5C 463.823,31.226 463.489,34.8927 462.5,38.5C 460.031,40.0066 457.865,39.6732 456,37.5C 455.037,33.8513 455.537,30.518 457.5,27.5 Z"/></g>
<g><path style="opacity:1" fill="#312d33" d="M 480.5,27.5 C 483.596,26.9066 485.929,27.9066 487.5,30.5C 484.5,31.8333 481.5,31.8333 478.5,30.5C 479.193,29.4822 479.859,28.4822 480.5,27.5 Z"/></g>
<g><path style="opacity:1" fill="#bd7f4c" d="M 377.5,20.5 C 379.556,28.4447 379.889,36.4447 378.5,44.5C 378.499,36.4827 378.166,28.4827 377.5,20.5 Z"/></g>
<g><path style="opacity:1" fill="#2b2831" d="M 389.5,35.5 C 391.5,35.5 393.5,35.5 395.5,35.5C 395.5,37.1667 395.5,38.8333 395.5,40.5C 393.167,40.5 390.833,40.5 388.5,40.5C 388.366,38.7085 388.699,37.0418 389.5,35.5 Z"/></g>
<g><path style="opacity:1" fill="#292c37" d="M 434.5,35.5 C 436.5,35.5 438.5,35.5 440.5,35.5C 440.5,37.1667 440.5,38.8333 440.5,40.5C 438.167,40.5 435.833,40.5 433.5,40.5C 433.366,38.7085 433.699,37.0418 434.5,35.5 Z"/></g>
<g><path style="opacity:1" fill="#6d757e" d="M 307.5,62.5 C 326.836,62.3334 346.17,62.5 365.5,63C 366.333,63.8333 367.167,64.6667 368,65.5C 368.954,76.598 368.62,87.598 367,98.5C 366.25,99.1258 365.416,99.6258 364.5,100C 345.5,100.667 326.5,100.667 307.5,100C 306.667,99.1667 305.833,98.3333 305,97.5C 304.333,86.8333 304.333,76.1667 305,65.5C 306.045,64.6266 306.878,63.6266 307.5,62.5 Z"/></g>
<g><path style="opacity:1" fill="#fadfbd" d="M 329.5,74.5 C 330.224,78.3653 330.891,82.3653 331.5,86.5C 331.167,86.8333 330.833,87.1667 330.5,87.5C 329.508,83.2172 329.174,78.8839 329.5,74.5 Z"/></g>
<g><path style="opacity:1" fill="#e1d3c1" d="M 350.5,78.5 C 352.288,78.2148 353.955,78.5481 355.5,79.5C 354.675,80.3857 353.675,80.719 352.5,80.5C 352.808,82.924 352.474,85.2573 351.5,87.5C 350.516,84.5719 350.183,81.5719 350.5,78.5 Z"/></g>
<g><path style="opacity:1" fill="#d8d7d4" d="M 342.5,78.5 C 344.262,78.3573 345.929,78.6906 347.5,79.5C 348.48,82.0865 348.813,84.7531 348.5,87.5C 346.208,87.7564 344.041,87.4231 342,86.5C 341.333,85.5 341.333,84.5 342,83.5C 343.509,82.9103 345.009,82.2436 346.5,81.5C 344.668,80.9432 343.335,79.9432 342.5,78.5 Z"/></g>
<g><path style="opacity:1" fill="#e8e5dc" d="M 321.5,75.5 C 323.288,75.2148 324.955,75.5481 326.5,76.5C 320.978,76.5988 319.144,79.2655 321,84.5C 323.147,85.1125 325.314,85.7792 327.5,86.5C 322.094,88.5928 319.094,86.7594 318.5,81C 318.685,78.6241 319.685,76.7908 321.5,75.5 Z"/></g>
<g><path style="opacity:1" fill="#d9dee0" d="M 334.5,78.5 C 338.5,77.8333 340.167,79.5 339.5,83.5C 332.951,83.9071 332.951,84.9071 339.5,86.5C 332.409,87.5311 330.742,84.8644 334.5,78.5 Z"/></g>
<g><path style="opacity:1" fill="#6c757d" d="M -0.5,108.5 C 225.5,108.5 451.5,108.5 677.5,108.5C 677.5,276.5 677.5,444.5 677.5,612.5C 451.5,612.5 225.5,612.5 -0.5,612.5C -0.5,444.5 -0.5,276.5 -0.5,108.5 Z"/></g>
<g><path style="opacity:1" fill="#212529" d="M 98.5,236.5 C 256.834,236.333 415.167,236.5 573.5,237C 574.931,237.465 576.097,238.299 577,239.5C 577.667,310.5 577.667,381.5 577,452.5C 576.5,454.333 575.333,455.5 573.5,456C 415.167,456.667 256.833,456.667 98.5,456C 97.2986,455.097 96.4652,453.931 96,452.5C 95.3333,381.5 95.3333,310.5 96,239.5C 97.045,238.627 97.8783,237.627 98.5,236.5 Z"/></g>
<g><path style="opacity:1" fill="#e2d1c0" d="M 149.5,256.5 C 150.5,256.5 151.5,256.5 152.5,256.5C 152.5,257.5 152.5,258.5 152.5,259.5C 151.5,259.5 150.5,259.5 149.5,259.5C 149.5,258.5 149.5,257.5 149.5,256.5 Z"/></g>
<g><path style="opacity:1" fill="#f8f9f0" d="M 114.5,258.5 C 118.485,260.321 121.319,263.321 123,267.5C 123.179,264.447 123.679,261.447 124.5,258.5C 125.833,263.167 125.833,267.833 124.5,272.5C 122.01,269.54 119.51,266.54 117,263.5C 116.821,266.553 116.321,269.553 115.5,272.5C 114.507,267.88 114.173,263.214 114.5,258.5 Z"/></g>
<g><path style="opacity:1" fill="#ede9e4" d="M 138.5,261.5 C 141.572,261.183 144.572,261.516 147.5,262.5C 145.445,264.555 143.779,266.888 142.5,269.5C 144.167,270.167 145.833,270.833 147.5,271.5C 144.572,272.484 141.572,272.817 138.5,272.5C 139.242,269.191 140.909,266.357 143.5,264C 141.256,263.95 139.589,263.117 138.5,261.5 Z"/></g>
<g><path style="opacity:1" fill="#f5fff1" d="M 149.5,261.5 C 150.787,262.871 151.453,264.705 151.5,267C 151.167,268.833 150.833,270.667 150.5,272.5C 149.511,268.893 149.177,265.226 149.5,261.5 Z"/></g>
<g><path style="opacity:1" fill="#f2d2af" d="M 161.5,261.5 C 162.497,261.47 163.164,261.97 163.5,263C 163.101,264.728 162.434,266.228 161.5,267.5C 161.5,265.5 161.5,263.5 161.5,261.5 Z"/></g>
<g><path style="opacity:1" fill="#e5e6e2" d="M 206.5,261.5 C 210.853,262.412 215.186,262.746 219.5,262.5C 220.487,265.768 220.82,269.102 220.5,272.5C 219.5,272.5 218.5,272.5 217.5,272.5C 217.5,269.5 217.5,266.5 217.5,263.5C 216.5,263.5 215.5,263.5 214.5,263.5C 214.5,266.5 214.5,269.5 214.5,272.5C 213.5,272.5 212.5,272.5 211.5,272.5C 211.5,269.5 211.5,266.5 211.5,263.5C 210.5,263.5 209.5,263.5 208.5,263.5C 208.817,266.572 208.484,269.572 207.5,272.5C 206.511,268.893 206.177,265.226 206.5,261.5 Z"/></g>
<g><path style="opacity:1" fill="#80c1f4" d="M 188.5,261.5 C 187.577,265.064 187.244,268.731 187.5,272.5C 186.839,270.866 186.506,269.033 186.5,267C 186.547,264.705 187.213,262.871 188.5,261.5 Z"/></g>
<g><path style="opacity:1" fill="#ffefde" d="M 188.5,261.5 C 189.978,261.238 191.311,261.571 192.5,262.5C 191.675,263.386 190.675,263.719 189.5,263.5C 190.055,267.012 189.388,270.012 187.5,272.5C 187.244,268.731 187.577,265.064 188.5,261.5 Z"/></g>
<g><path style="opacity:1" fill="#eff1ee" d="M 129.5,261.5 C 131.591,261.318 133.591,261.652 135.5,262.5C 136.487,265.768 136.82,269.102 136.5,272.5C 133.881,272.768 131.381,272.435 129,271.5C 127.487,267.229 128.987,264.895 133.5,264.5C 131.668,263.943 130.335,262.943 129.5,261.5 Z"/></g>
<g><path style="opacity:1" fill="#e5dfd3" d="M 168.5,256.5 C 169.5,256.5 170.5,256.5 171.5,256.5C 170.356,263.599 168.023,270.266 164.5,276.5C 164.167,275.833 163.833,275.167 163.5,274.5C 165.582,268.591 167.249,262.591 168.5,256.5 Z"/></g>
<g><path style="opacity:1" fill="#ebeeee" d="M 196.5,261.5 C 201.542,260.505 203.875,262.505 203.5,267.5C 195.864,267.464 195.531,268.797 202.5,271.5C 197.579,273.757 194.912,272.257 194.5,267C 194.395,264.822 195.061,262.988 196.5,261.5 Z"/></g>
<g><path style="opacity:1" fill="#37363b" d="M 197.5,263.5 C 198.675,263.281 199.675,263.614 200.5,264.5C 198.948,265.798 197.948,265.465 197.5,263.5 Z"/></g>
<g><path style="opacity:1" fill="#f1efe7" d="M 225.5,261.5 C 230.339,260.677 232.673,262.677 232.5,267.5C 230.5,267.5 228.5,267.5 226.5,267.5C 226.5,268.5 226.5,269.5 226.5,270.5C 228.288,270.215 229.955,270.548 231.5,271.5C 224.525,273.356 222.025,270.689 224,263.5C 224.717,262.956 225.217,262.289 225.5,261.5 Z"/></g>
<g><path style="opacity:1" fill="#453d3f" d="M 226.5,263.5 C 227.675,263.281 228.675,263.614 229.5,264.5C 228.277,265.614 226.944,265.781 225.5,265C 226.056,264.617 226.389,264.117 226.5,263.5 Z"/></g>
<g><path style="opacity:1" fill="#4b444d" d="M 130.5,267.5 C 131.833,267.5 133.167,267.5 134.5,267.5C 134.5,268.5 134.5,269.5 134.5,270.5C 133.167,270.5 131.833,270.5 130.5,270.5C 130.5,269.5 130.5,268.5 130.5,267.5 Z"/></g>
<g><path style="opacity:1" fill="#e5e2dc" d="M 161.5,261.5 C 161.5,263.5 161.5,265.5 161.5,267.5C 160.699,269.042 160.366,270.708 160.5,272.5C 159.178,272.67 158.011,272.337 157,271.5C 156.127,268.382 154.961,265.382 153.5,262.5C 154.365,261.417 155.365,261.251 156.5,262C 157.09,263.509 157.756,265.009 158.5,266.5C 159.696,264.855 160.696,263.189 161.5,261.5 Z"/></g>
<g><path style="opacity:1" fill="#efe6d7" d="M 172.5,258.5 C 173.675,258.281 174.675,258.614 175.5,259.5C 176.961,262.382 178.127,265.382 179,268.5C 180.265,265.539 181.431,262.539 182.5,259.5C 183.5,258.167 184.5,258.167 185.5,259.5C 184.11,263.848 182.444,268.015 180.5,272C 179.365,272.749 178.365,272.583 177.5,271.5C 175.543,267.256 173.876,262.923 172.5,258.5 Z"/></g>
<g><path style="opacity:1" fill="#dce0e4" d="M 115.5,285.5 C 262.834,285.333 410.167,285.5 557.5,286C 558.333,286.833 559.167,287.667 560,288.5C 560.667,299.167 560.667,309.833 560,320.5C 559.167,321.333 558.333,322.167 557.5,323C 410.167,323.667 262.833,323.667 115.5,323C 114.667,322.167 113.833,321.333 113,320.5C 112.333,309.833 112.333,299.167 113,288.5C 114.045,287.627 114.878,286.627 115.5,285.5 Z"/></g>
<g><path style="opacity:1" fill="#fefefe" d="M 117.5,286.5 C 263.5,286.333 409.5,286.5 555.5,287C 557.333,287.5 558.5,288.667 559,290.5C 559.667,299.833 559.667,309.167 559,318.5C 558.5,320.333 557.333,321.5 555.5,322C 409.5,322.667 263.5,322.667 117.5,322C 115.667,321.5 114.5,320.333 114,318.5C 113.333,309.167 113.333,299.833 114,290.5C 114.69,288.65 115.856,287.316 117.5,286.5 Z"/></g>
<g><path style="opacity:1" fill="#6e6f7f" d="M 139.5,302.5 C 140.884,301.199 142.384,301.199 144,302.5C 144.497,305.146 144.664,307.813 144.5,310.5C 142.5,310.5 140.5,310.5 138.5,310.5C 138.5,308.833 138.5,307.167 138.5,305.5C 139.833,305.5 141.167,305.5 142.5,305.5C 142.5,304.5 142.5,303.5 142.5,302.5C 141.5,302.5 140.5,302.5 139.5,302.5 Z"/></g>
<g><path style="opacity:1" fill="#d1c8bf" d="M 139.5,306.5 C 140.833,306.5 142.167,306.5 143.5,306.5C 143.5,307.5 143.5,308.5 143.5,309.5C 141.027,309.912 139.694,308.912 139.5,306.5 Z"/></g>
<g><path style="opacity:1" fill="#7d7c92" d="M 158.5,301.5 C 159.6,303.277 160.434,305.277 161,307.5C 161.915,306.672 162.581,305.672 163,304.5C 163.442,306.684 162.942,308.684 161.5,310.5C 159.126,307.972 158.126,304.972 158.5,301.5 Z"/></g>
<g><path style="opacity:1" fill="#716e83" d="M 130.5,302.5 C 131.906,302.973 132.573,303.973 132.5,305.5C 131.094,305.027 130.427,304.027 130.5,302.5 Z"/></g>
<g><path style="opacity:1" fill="#5c6d97" d="M 130.5,302.5 C 129.883,302.389 129.383,302.056 129,301.5C 128.667,304.5 128.333,307.5 128,310.5C 127.333,306.5 127.333,302.5 128,298.5C 129.481,299.471 130.315,300.804 130.5,302.5 Z"/></g>
<g><path style="opacity:1" fill="#6b6b78" d="M 146.5,302.5 C 148.364,301.207 150.364,301.207 152.5,302.5C 150.774,304.228 149.441,306.228 148.5,308.5C 149.729,309.281 151.062,309.781 152.5,310C 150.527,310.495 148.527,310.662 146.5,310.5C 146.98,307.995 147.98,305.662 149.5,303.5C 148.675,302.614 147.675,302.281 146.5,302.5 Z"/></g>
<g><path style="opacity:1" fill="#6a616d" d="M 132.5,305.5 C 133.117,305.611 133.617,305.944 134,306.5C 134.333,303.833 134.667,301.167 135,298.5C 135.667,302.5 135.667,306.5 135,310.5C 133.628,309.09 132.795,307.423 132.5,305.5 Z"/></g>
<g><path style="opacity:1" fill="#dce0e4" d="M 115.5,339.5 C 262.834,339.333 410.167,339.5 557.5,340C 558.333,340.833 559.167,341.667 560,342.5C 560.667,353.167 560.667,363.833 560,374.5C 559.167,375.333 558.333,376.167 557.5,377C 410.167,377.667 262.833,377.667 115.5,377C 114.667,376.167 113.833,375.333 113,374.5C 112.333,363.833 112.333,353.167 113,342.5C 114.045,341.627 114.878,340.627 115.5,339.5 Z"/></g>
<g><path style="opacity:1" fill="#fefefe" d="M 117.5,340.5 C 145.833,340.5 174.167,340.5 202.5,340.5C 202.5,352.5 202.5,364.5 202.5,376.5C 174.165,376.667 145.831,376.5 117.5,376C 115.667,375.5 114.5,374.333 114,372.5C 113.333,363.167 113.333,353.833 114,344.5C 114.69,342.65 115.856,341.316 117.5,340.5 Z"/></g>
<g><path style="opacity:1" fill="#f7f8f9" d="M 203.5,340.5 C 212.833,340.5 222.167,340.5 231.5,340.5C 231.5,352.5 231.5,364.5 231.5,376.5C 222.167,376.5 212.833,376.5 203.5,376.5C 203.5,364.5 203.5,352.5 203.5,340.5 Z"/></g>
<g><path style="opacity:1" fill="#fefdfc" d="M 232.5,340.5 C 262.167,340.5 291.833,340.5 321.5,340.5C 321.5,352.5 321.5,364.5 321.5,376.5C 291.833,376.5 262.167,376.5 232.5,376.5C 232.5,364.5 232.5,352.5 232.5,340.5 Z"/></g>
<g><path style="opacity:1" fill="#f7f8f9" d="M 322.5,340.5 C 331.833,340.5 341.167,340.5 350.5,340.5C 350.5,352.5 350.5,364.5 350.5,376.5C 341.167,376.5 331.833,376.5 322.5,376.5C 322.5,364.5 322.5,352.5 322.5,340.5 Z"/></g>
<g><path style="opacity:1" fill="#fefefe" d="M 351.5,340.5 C 381.167,340.5 410.833,340.5 440.5,340.5C 440.5,352.5 440.5,364.5 440.5,376.5C 410.833,376.5 381.167,376.5 351.5,376.5C 351.5,364.5 351.5,352.5 351.5,340.5 Z"/></g>
<g><path style="opacity:1" fill="#f7f8f9" d="M 441.5,340.5 C 450.833,340.5 460.167,340.5 469.5,340.5C 469.5,352.5 469.5,364.5 469.5,376.5C 460.167,376.5 450.833,376.5 441.5,376.5C 441.5,364.5 441.5,352.5 441.5,340.5 Z"/></g>
<g><path style="opacity:1" fill="#fefefe" d="M 470.5,340.5 C 498.835,340.333 527.169,340.5 555.5,341C 557.333,341.5 558.5,342.667 559,344.5C 559.667,353.833 559.667,363.167 559,372.5C 558.5,374.333 557.333,375.5 555.5,376C 527.169,376.5 498.835,376.667 470.5,376.5C 470.5,364.5 470.5,352.5 470.5,340.5 Z"/></g>
<g><path style="opacity:1" fill="#6a7a9b" d="M 246.5,351.5 C 247.434,352.568 247.768,353.901 247.5,355.5C 249.144,355.286 250.644,355.62 252,356.5C 252.667,359.167 252.667,361.833 252,364.5C 251.503,362.19 251.337,359.857 251.5,357.5C 250.167,357.5 248.833,357.5 247.5,357.5C 247.663,359.857 247.497,362.19 247,364.5C 246.501,360.179 246.334,355.846 246.5,351.5 Z"/></g>
<g><path style="opacity:1" fill="#6a7a9b" d="M 255.5,351.5 C 256.434,352.568 256.768,353.901 256.5,355.5C 258.144,355.286 259.644,355.62 261,356.5C 261.667,359.167 261.667,361.833 261,364.5C 260.503,362.19 260.337,359.857 260.5,357.5C 259.167,357.5 257.833,357.5 256.5,357.5C 256.663,359.857 256.497,362.19 256,364.5C 255.501,360.179 255.334,355.846 255.5,351.5 Z"/></g>
<g><path style="opacity:1" fill="#7e7b81" d="M 484.5,355.5 C 485.978,355.238 487.311,355.571 488.5,356.5C 487.384,356.402 486.384,356.902 485.5,358C 486.783,359.136 487.783,360.469 488.5,362C 487.499,364.502 485.833,365.002 483.5,363.5C 488.639,362.803 488.805,361.47 484,359.5C 483.421,358.072 483.588,356.738 484.5,355.5 Z"/></g>
<g><path style="opacity:1" fill="#858691" d="M 491.5,355.5 C 496.11,355.596 496.444,356.596 492.5,358.5C 495.337,359.509 496.67,361.509 496.5,364.5C 494.473,364.662 492.473,364.495 490.5,364C 495.529,363.195 495.696,361.695 491,359.5C 490.421,358.072 490.588,356.738 491.5,355.5 Z"/></g>
<g><path style="opacity:1" fill="#503f67" d="M 216.5,355.5 C 218.337,355.639 218.67,356.306 217.5,357.5C 216.702,357.043 216.369,356.376 216.5,355.5 Z"/></g>
<g><path style="opacity:1" fill="#503f67" d="M 335.5,355.5 C 337.337,355.639 337.67,356.306 336.5,357.5C 335.702,357.043 335.369,356.376 335.5,355.5 Z"/></g>
<g><path style="opacity:1" fill="#8f858d" d="M 364.5,355.5 C 368.187,356.403 371.853,356.737 375.5,356.5C 376.833,359.167 376.833,361.833 375.5,364.5C 374.526,362.257 374.192,359.924 374.5,357.5C 373.5,357.5 372.5,357.5 371.5,357.5C 370.988,366.811 370.155,366.811 369,357.5C 368.586,357.043 368.086,356.709 367.5,356.5C 365.662,366.928 364.662,366.595 364.5,355.5 Z"/></g>
<g><path style="opacity:1" fill="#828193" d="M 378.5,355.5 C 381.935,356.224 385.269,356.39 388.5,356C 390.65,358.555 390.983,361.388 389.5,364.5C 387.627,354.058 385.96,354.058 384.5,364.5C 382.627,354.058 380.96,354.058 379.5,364.5C 378.516,361.572 378.183,358.572 378.5,355.5 Z"/></g>
<g><path style="opacity:1" fill="#503f67" d="M 454.5,355.5 C 456.337,355.639 456.67,356.306 455.5,357.5C 454.702,357.043 454.369,356.376 454.5,355.5 Z"/></g>
<g><path style="opacity:1" fill="#997e71" d="M 142.5,351.5 C 142.836,355.949 142.503,359.616 141.5,362.5C 141.5,360.833 141.5,359.167 141.5,357.5C 139.901,357.232 138.568,357.566 137.5,358.5C 136.566,359.568 136.232,360.901 136.5,362.5C 134.499,357.81 136.165,355.476 141.5,355.5C 141.232,353.901 141.566,352.568 142.5,351.5 Z"/></g>
<g><path style="opacity:1" fill="#f2faf7" d="M 141.5,362.5 C 140.167,362.5 138.833,362.5 137.5,362.5C 137.5,361.167 137.5,359.833 137.5,358.5C 138.568,357.566 139.901,357.232 141.5,357.5C 141.5,359.167 141.5,360.833 141.5,362.5 Z"/></g>
<g><path style="opacity:1" fill="#9e8375" d="M 132.5,351.5 C 132.817,355.702 132.483,359.702 131.5,363.5C 131.5,361.5 131.5,359.5 131.5,357.5C 130.5,357.5 129.5,357.5 128.5,357.5C 127.549,358.919 127.216,360.585 127.5,362.5C 126.207,360.636 126.207,358.636 127.5,356.5C 128.736,355.754 130.07,355.421 131.5,355.5C 131.232,353.901 131.566,352.568 132.5,351.5 Z"/></g>
<g><path style="opacity:1" fill="#6b738a" d="M 132.5,351.5 C 133.485,355.634 133.818,359.968 133.5,364.5C 130.99,364.946 128.99,364.28 127.5,362.5C 127.216,360.585 127.549,358.919 128.5,357.5C 128.34,359.199 128.506,360.866 129,362.5C 129.671,363.252 130.504,363.586 131.5,363.5C 132.483,359.702 132.817,355.702 132.5,351.5 Z"/></g>
<g><path style="opacity:1" fill="#f3f6f7" d="M 128.5,357.5 C 129.5,357.5 130.5,357.5 131.5,357.5C 131.5,359.5 131.5,361.5 131.5,363.5C 130.504,363.586 129.671,363.252 129,362.5C 128.506,360.866 128.34,359.199 128.5,357.5 Z"/></g>
<g><path style="opacity:1" fill="#79849c" d="M 142.5,351.5 C 143.485,355.634 143.818,359.968 143.5,364.5C 141.473,364.662 139.473,364.495 137.5,364C 136.944,363.617 136.611,363.117 136.5,362.5C 136.232,360.901 136.566,359.568 137.5,358.5C 137.5,359.833 137.5,361.167 137.5,362.5C 138.833,362.5 140.167,362.5 141.5,362.5C 142.503,359.616 142.836,355.949 142.5,351.5 Z"/></g>
<g><path style="opacity:1" fill="#584970" d="M 216.5,362.5 C 218.337,362.639 218.67,363.306 217.5,364.5C 216.702,364.043 216.369,363.376 216.5,362.5 Z"/></g>
<g><path style="opacity:1" fill="#584970" d="M 335.5,362.5 C 337.337,362.639 337.67,363.306 336.5,364.5C 335.702,364.043 335.369,363.376 335.5,362.5 Z"/></g>
<g><path style="opacity:1" fill="#584970" d="M 454.5,362.5 C 456.337,362.639 456.67,363.306 455.5,364.5C 454.702,364.043 454.369,363.376 454.5,362.5 Z"/></g>
<g><path style="opacity:1" fill="#f6f7f8" d="M 115.5,401.5 C 263.833,401.5 412.167,401.5 560.5,401.5C 560.5,414.167 560.5,426.833 560.5,439.5C 412.166,439.667 263.833,439.5 115.5,439C 114.667,438.167 113.833,437.333 113,436.5C 112.333,425.833 112.333,415.167 113,404.5C 114.045,403.627 114.878,402.627 115.5,401.5 Z"/></g>
<g><path style="opacity:1" fill="#212529" d="M 117.5,402.5 C 264.833,402.5 412.167,402.5 559.5,402.5C 559.5,414.5 559.5,426.5 559.5,438.5C 412.166,438.667 264.833,438.5 117.5,438C 115.667,437.5 114.5,436.333 114,434.5C 113.333,425.167 113.333,415.833 114,406.5C 114.69,404.65 115.856,403.316 117.5,402.5 Z"/></g>
<g><path style="opacity:1" fill="#dfddd0" d="M 348.5,414.5 C 350.411,414.574 351.578,415.574 352,417.5C 352.837,419.838 353.67,422.172 354.5,424.5C 354.167,425.167 353.833,425.833 353.5,426.5C 352.614,425.675 352.281,424.675 352.5,423.5C 349.404,422.907 347.071,423.907 345.5,426.5C 345.167,426.167 344.833,425.833 344.5,425.5C 346.125,421.92 347.459,418.254 348.5,414.5 Z"/></g>
<g><path style="opacity:1" fill="#dfddd0" d="M 303.5,414.5 C 305.411,414.574 306.578,415.574 307,417.5C 307.837,419.838 308.67,422.172 309.5,424.5C 309.167,425.167 308.833,425.833 308.5,426.5C 307.614,425.675 307.281,424.675 307.5,423.5C 304.404,422.907 302.071,423.907 300.5,426.5C 300.167,426.167 299.833,425.833 299.5,425.5C 301.125,421.92 302.459,418.254 303.5,414.5 Z"/></g>
<g><path style="opacity:1" fill="#ece6d1" d="M 365.5,414.5 C 366.302,415.952 366.802,417.618 367,419.5C 368.734,416.966 370.9,415.466 373.5,415C 371.833,416.667 370.167,418.333 368.5,420C 370,421.5 371.5,423 373,424.5C 373.688,425.332 373.521,425.998 372.5,426.5C 371.167,424.5 369.5,422.833 367.5,421.5C 366.702,423.078 366.202,424.744 366,426.5C 365.501,422.514 365.334,418.514 365.5,414.5 Z"/></g>
<g><path style="opacity:1" fill="#37445f" d="M 349.5,417.5 C 350.931,418.78 351.598,420.447 351.5,422.5C 350.5,422.5 349.5,422.5 348.5,422.5C 348.629,420.784 348.962,419.117 349.5,417.5 Z"/></g>
<g><path style="opacity:1" fill="#37445f" d="M 304.5,417.5 C 305.931,418.78 306.598,420.447 306.5,422.5C 305.5,422.5 304.5,422.5 303.5,422.5C 303.629,420.784 303.962,419.117 304.5,417.5 Z"/></g>
<g><path style="opacity:1" fill="#d0cfc9" d="M 357.5,414.5 C 364.049,414.907 364.049,415.907 357.5,417.5C 359.22,418.92 361.054,420.253 363,421.5C 363.783,423.433 363.283,424.933 361.5,426C 353.575,426.121 353.575,425.288 361.5,423.5C 360.564,422.026 359.23,421.026 357.5,420.5C 356.306,418.484 356.306,416.484 357.5,414.5 Z"/></g>
<g><path style="opacity:1" fill="#894b37" d="M 344.5,414.5 C 345.043,414.56 345.376,414.893 345.5,415.5C 344.675,416.386 343.675,416.719 342.5,416.5C 342.813,420.042 342.479,423.375 341.5,426.5C 341.5,422.833 341.5,419.167 341.5,415.5C 342.791,415.737 343.791,415.404 344.5,414.5 Z"/></g>
<g><path style="opacity:1" fill="#f6f6d5" d="M 336.5,415.5 C 338.948,414.527 341.615,414.194 344.5,414.5C 343.791,415.404 342.791,415.737 341.5,415.5C 341.5,419.167 341.5,422.833 341.5,426.5C 341.167,426.5 340.833,426.5 340.5,426.5C 340.5,422.833 340.5,419.167 340.5,415.5C 339.167,415.5 337.833,415.5 336.5,415.5 Z"/></g>
<g><path style="opacity:1" fill="#649acc" d="M 336.5,415.5 C 337.833,415.5 339.167,415.5 340.5,415.5C 340.5,419.167 340.5,422.833 340.5,426.5C 339.521,423.375 339.187,420.042 339.5,416.5C 338.209,416.737 337.209,416.404 336.5,415.5 Z"/></g>
<g><path style="opacity:1" fill="#d8c9b8" d="M 311.5,414.5 C 319.867,414.331 322.2,417.831 318.5,425C 316.323,426.202 313.989,426.702 311.5,426.5C 311.5,422.5 311.5,418.5 311.5,414.5 Z"/></g>
<g><path style="opacity:1" fill="#262c3b" d="M 313.5,416.5 C 316.93,415.755 318.597,417.089 318.5,420.5C 318.597,423.911 316.93,425.245 313.5,424.5C 313.5,421.833 313.5,419.167 313.5,416.5 Z"/></g>
<g><path style="opacity:1" fill="#cbcdcb" d="M 322.5,414.5 C 331.057,413.554 333.724,417.054 330.5,425C 327.986,426.252 325.32,426.752 322.5,426.5C 322.5,422.5 322.5,418.5 322.5,414.5 Z"/></g>
<g><path style="opacity:1" fill="#23262e" d="M 324.5,416.5 C 327.93,415.755 329.597,417.089 329.5,420.5C 329.597,423.911 327.93,425.245 324.5,424.5C 324.5,421.833 324.5,419.167 324.5,416.5 Z"/></g>
<g><path style="opacity:1" fill="#212529" d="M 659.5,469.5 C 659.5,489.5 659.5,509.5 659.5,529.5C 444.167,529.5 228.833,529.5 13.5,529.5C 13.5,509.5 13.5,489.5 13.5,469.5C 14.3164,467.856 15.6498,466.69 17.5,466C 230.167,465.333 442.833,465.333 655.5,466C 657.35,466.69 658.684,467.856 659.5,469.5 Z"/></g>
<g><path style="opacity:1" fill="#dde1e5" d="M 13.5,469.5 C 13.5,489.5 13.5,509.5 13.5,529.5C 228.833,529.5 444.167,529.5 659.5,529.5C 659.5,509.5 659.5,489.5 659.5,469.5C 660.83,509.597 660.83,550.264 659.5,591.5C 659.5,571.167 659.5,550.833 659.5,530.5C 444.167,530.5 228.833,530.5 13.5,530.5C 13.5,550.833 13.5,571.167 13.5,591.5C 12.1704,550.264 12.1704,509.597 13.5,469.5 Z"/></g>
<g><path style="opacity:1" fill="#e2debe" d="M 92.5,513.5 C 94.337,513.639 94.6704,514.306 93.5,515.5C 92.7025,515.043 92.3691,514.376 92.5,513.5 Z"/></g>
<g><path style="opacity:1" fill="#d6d7cf" d="M 80.5,503.5 C 79.4324,504.434 78.099,504.768 76.5,504.5C 76.1568,506.483 76.8235,507.817 78.5,508.5C 79.4959,508.414 80.3292,508.748 81,509.5C 81.8013,514.858 79.6346,516.525 74.5,514.5C 76.0453,513.548 77.712,513.215 79.5,513.5C 79.8333,510.5 78.5,509.167 75.5,509.5C 75.5,507.5 75.5,505.5 75.5,503.5C 77.1667,503.5 78.8333,503.5 80.5,503.5 Z"/></g>
<g><path style="opacity:1" fill="#e2debe" d="M 70.5,513.5 C 72.337,513.639 72.6704,514.306 71.5,515.5C 70.7025,515.043 70.3691,514.376 70.5,513.5 Z"/></g>
<g><path style="opacity:1" fill="#e0ddce" d="M 54.5,503.5 C 56.3904,503.297 57.8904,503.963 59,505.5C 59.6667,508.167 59.6667,510.833 59,513.5C 54.3932,516.272 52.2265,514.772 52.5,509C 52.6975,506.879 53.3642,505.046 54.5,503.5 Z"/></g>
<g><path style="opacity:1" fill="#e2debe" d="M 48.5,513.5 C 50.337,513.639 50.6704,514.306 49.5,515.5C 48.7025,515.043 48.3691,514.376 48.5,513.5 Z"/></g>
<g><path style="opacity:1" fill="#e0ddce" d="M 41.5,503.5 C 43.3904,503.297 44.8904,503.963 46,505.5C 46.6667,508.167 46.6667,510.833 46,513.5C 41.3932,516.272 39.2265,514.772 39.5,509C 39.6975,506.879 40.3642,505.046 41.5,503.5 Z"/></g>
<g><path style="opacity:1" fill="#e0ddce" d="M 32.5,503.5 C 34.3904,503.297 35.8904,503.963 37,505.5C 37.6667,508.167 37.6667,510.833 37,513.5C 32.3932,516.272 30.2265,514.772 30.5,509C 30.6975,506.879 31.3642,505.046 32.5,503.5 Z"/></g>
<g><path style="opacity:1" fill="#cdc9c1" d="M 106.5,503.5 C 110.73,502.831 112.563,504.498 112,508.5C 110.647,509.685 109.48,511.019 108.5,512.5C 109.833,513.167 111.167,513.833 112.5,514.5C 110.257,515.474 107.924,515.808 105.5,515.5C 107.167,512.167 108.833,508.833 110.5,505.5C 108.801,505.66 107.134,505.494 105.5,505C 106.056,504.617 106.389,504.117 106.5,503.5 Z"/></g>
<g><path style="opacity:1" fill="#e5e3d5" d="M 100.5,503.5 C 102.162,505.912 103.162,508.746 103.5,512C 102.809,513.067 102.309,514.234 102,515.5C 101.517,514.552 101.351,513.552 101.5,512.5C 99.8333,512.5 98.1667,512.5 96.5,512.5C 96.3433,511.127 96.51,509.793 97,508.5C 98.6692,507.154 99.8358,505.487 100.5,503.5 Z"/></g>
<g><path style="opacity:1" fill="#40465a" d="M 100.5,506.5 C 101.451,507.919 101.784,509.585 101.5,511.5C 100.325,511.719 99.325,511.386 98.5,510.5C 99.1799,509.14 99.8466,507.807 100.5,506.5 Z"/></g>
<g><path style="opacity:1" fill="#e7e7c5" d="M 92.5,506.5 C 94.337,506.639 94.6704,507.306 93.5,508.5C 92.7025,508.043 92.3691,507.376 92.5,506.5 Z"/></g>
<g><path style="opacity:1" fill="#d4d1c6" d="M 84.5,503.5 C 88.9225,502.425 90.9225,504.092 90.5,508.5C 90.4735,513.543 88.1402,515.543 83.5,514.5C 89.6623,512.904 89.829,511.237 84,509.5C 83.3224,507.402 83.4891,505.402 84.5,503.5 Z"/></g>
<g><path style="opacity:1" fill="#e7e7c5" d="M 70.5,506.5 C 72.337,506.639 72.6704,507.306 71.5,508.5C 70.7025,508.043 70.3691,507.376 70.5,506.5 Z"/></g>
<g><path style="opacity:1" fill="#e7e7c5" d="M 48.5,506.5 C 50.337,506.639 50.6704,507.306 49.5,508.5C 48.7025,508.043 48.3691,507.376 48.5,506.5 Z"/></g>
<g><path style="opacity:1" fill="#b4c8d7" d="M 64.5,503.5 C 65.7943,505.048 66.4609,507.048 66.5,509.5C 66.1667,511.5 65.8333,513.5 65.5,515.5C 64.6786,512.553 64.1786,509.553 64,506.5C 63.3457,507.696 62.8457,507.696 62.5,506.5C 63.1925,505.482 63.8592,504.482 64.5,503.5 Z"/></g>
<g><path style="opacity:1" fill="#2c2d36" d="M 85.5,505.5 C 86.5,505.5 87.5,505.5 88.5,505.5C 88.5,506.833 88.5,508.167 88.5,509.5C 87.5,509.5 86.5,509.5 85.5,509.5C 85.5,508.167 85.5,506.833 85.5,505.5 Z"/></g>
<g><path style="opacity:1" fill="#303746" d="M 54.5,505.5 C 57.488,505.155 58.8213,506.488 58.5,509.5C 58.8213,512.512 57.488,513.845 54.5,513.5C 54.5,510.833 54.5,508.167 54.5,505.5 Z"/></g>
<g><path style="opacity:1" fill="#303746" d="M 41.5,505.5 C 44.488,505.155 45.8213,506.488 45.5,509.5C 45.8213,512.512 44.488,513.845 41.5,513.5C 41.5,510.833 41.5,508.167 41.5,505.5 Z"/></g>
<g><path style="opacity:1" fill="#303746" d="M 32.5,505.5 C 35.488,505.155 36.8213,506.488 36.5,509.5C 36.8213,512.512 35.488,513.845 32.5,513.5C 32.5,510.833 32.5,508.167 32.5,505.5 Z"/></g>
<g><path style="opacity:1" fill="#9a7859" d="M 80.5,503.5 C 81.0431,503.56 81.3764,503.893 81.5,504.5C 80.1667,505.167 78.8333,505.833 77.5,506.5C 77.8627,507.183 78.1961,507.85 78.5,508.5C 76.8235,507.817 76.1568,506.483 76.5,504.5C 78.099,504.768 79.4324,504.434 80.5,503.5 Z"/></g>
<g><path style="opacity:1" fill="#dcba9b" d="M 66.5,483.5 C 68.4411,485.011 68.9411,487.011 68,489.5C 66.5557,491.155 64.7224,491.822 62.5,491.5C 62.7373,492.791 62.404,493.791 61.5,494.5C 61.1872,490.958 61.5206,487.625 62.5,484.5C 62.5,486.167 62.5,487.833 62.5,489.5C 63.8333,489.5 65.1667,489.5 66.5,489.5C 66.5,488.167 66.5,486.833 66.5,485.5C 66.5,484.833 66.5,484.167 66.5,483.5 Z"/></g>
<g><path style="opacity:1" fill="#caccca" d="M 45.5,482.5 C 50.8333,483.167 50.8333,483.833 45.5,484.5C 45.5,486.167 45.5,487.833 45.5,489.5C 47.288,489.215 48.9547,489.548 50.5,490.5C 43.4089,491.531 41.7423,488.864 45.5,482.5 Z"/></g>
<g><path style="opacity:1" fill="#dcd4c7" d="M 52.5,482.5 C 56.938,481.425 58.938,483.092 58.5,487.5C 51.9514,487.907 51.9514,488.907 58.5,490.5C 51.7935,491.772 49.7935,489.105 52.5,482.5 Z"/></g>
<g><path style="opacity:1" fill="#dfe0e2" d="M 620.5,486.5 C 627.175,486.334 633.842,486.5 640.5,487C 641.333,487.833 642.167,488.667 643,489.5C 643.667,494.833 643.667,500.167 643,505.5C 642.167,506.333 641.333,507.167 640.5,508C 633.833,508.667 627.167,508.667 620.5,508C 619.667,507.167 618.833,506.333 618,505.5C 617.333,500.167 617.333,494.833 618,489.5C 619.045,488.627 619.878,487.627 620.5,486.5 Z"/></g>
<g><path style="opacity:1" fill="#24272c" d="M 621.5,487.5 C 627.509,487.334 633.509,487.501 639.5,488C 640.333,488.833 641.167,489.667 642,490.5C 642.667,495.167 642.667,499.833 642,504.5C 641.167,505.333 640.333,506.167 639.5,507C 633.5,507.667 627.5,507.667 621.5,507C 618.972,504.427 617.972,501.261 618.5,497.5C 617.993,493.588 618.993,490.255 621.5,487.5 Z"/></g>
<g><path style="opacity:1" fill="#e4e0d7" d="M 627.5,492.5 C 629.017,492.511 630.184,493.177 631,494.5C 631.535,492.729 632.369,492.396 633.5,493.5C 632.062,496.083 632.396,498.417 634.5,500.5C 632.956,501.622 631.623,501.289 630.5,499.5C 629.468,501.04 628.135,501.54 626.5,501C 627.376,499.414 628.376,497.914 629.5,496.5C 628.37,495.378 627.703,494.044 627.5,492.5 Z"/></g>
<g><path style="opacity:1" fill="#cfd2cc" d="M 75.5,482.5 C 80.8333,483.167 80.8333,483.833 75.5,484.5C 75.5,486.167 75.5,487.833 75.5,489.5C 76.9778,489.238 78.3112,489.571 79.5,490.5C 75.7103,492.06 73.7103,490.727 73.5,486.5C 73.8029,484.886 74.4695,483.552 75.5,482.5 Z"/></g>
<g><path style="opacity:1" fill="#2c2c31" d="M 53.5,484.5 C 54.675,484.281 55.675,484.614 56.5,485.5C 54.9483,486.798 53.9483,486.465 53.5,484.5 Z"/></g>
<g><path style="opacity:1" fill="#d6c8b4" d="M 90.5,482.5 C 91.9778,482.238 93.3112,482.571 94.5,483.5C 93.0781,485.965 92.0781,488.631 91.5,491.5C 90.5159,488.572 90.1826,485.572 90.5,482.5 Z"/></g>
<g><path style="opacity:1" fill="#2a3243" d="M 62.5,484.5 C 63.9587,484.433 65.2921,484.766 66.5,485.5C 66.5,486.833 66.5,488.167 66.5,489.5C 65.1667,489.5 63.8333,489.5 62.5,489.5C 62.5,487.833 62.5,486.167 62.5,484.5 Z"/></g>
<g><path style="opacity:1" fill="#bfe9f1" d="M 66.5,483.5 C 66.5,484.167 66.5,484.833 66.5,485.5C 65.2921,484.766 63.9587,484.433 62.5,484.5C 61.5206,487.625 61.1872,490.958 61.5,494.5C 60.5166,490.702 60.1832,486.702 60.5,482.5C 62.6208,482.325 64.6208,482.659 66.5,483.5 Z"/></g>
<g><path style="opacity:1" fill="#dad8c9" d="M 81.5,482.5 C 82.4682,484.607 82.8016,486.941 82.5,489.5C 83.8333,489.5 85.1667,489.5 86.5,489.5C 86.1924,487.076 86.5258,484.743 87.5,482.5C 88.4841,485.428 88.8174,488.428 88.5,491.5C 86.2075,491.756 84.0408,491.423 82,490.5C 81.5026,487.854 81.3359,485.187 81.5,482.5 Z"/></g>
<g><path style="opacity:1" fill="#ca9b6e" d="M 40.5,482.5 C 41.7647,483.514 42.4313,485.014 42.5,487C 42.1667,488.5 41.8333,490 41.5,491.5C 40.5159,488.572 40.1826,485.572 40.5,482.5 Z"/></g>
<g><path style="opacity:1" fill="#d4cec4" d="M 30.5,478.5 C 32.1765,479.183 32.8432,480.517 32.5,482.5C 38.6426,483.026 39.9759,485.86 36.5,491C 34.5273,491.495 32.5273,491.662 30.5,491.5C 30.5,487.167 30.5,482.833 30.5,478.5 Z"/></g>
<g><path style="opacity:1" fill="#2f2d3d" d="M 32.5,484.5 C 33.8333,484.5 35.1667,484.5 36.5,484.5C 36.5,486.167 36.5,487.833 36.5,489.5C 35.1667,489.5 33.8333,489.5 32.5,489.5C 32.5,487.833 32.5,486.167 32.5,484.5 Z"/></g>
<g><path style="opacity:1" fill="#cba073" d="M 40.5,478.5 C 42.337,478.639 42.6704,479.306 41.5,480.5C 40.7025,480.043 40.3691,479.376 40.5,478.5 Z"/></g>
<g><path style="opacity:1" fill="#d4d5bf" d="M 96.5,478.5 C 97.7868,479.871 98.4535,481.705 98.5,484C 98.9868,486.676 98.9868,489.176 98.5,491.5C 97.914,491.291 97.414,490.957 97,490.5C 96.5012,486.514 96.3345,482.514 96.5,478.5 Z"/></g>
<g><path style="opacity:1" fill="#212529" d="M 659.5,591.5 C 658.373,592.122 657.373,592.955 656.5,594C 443.167,594.667 229.833,594.667 16.5,594C 15.6266,592.955 14.6266,592.122 13.5,591.5C 13.5,571.167 13.5,550.833 13.5,530.5C 228.833,530.5 444.167,530.5 659.5,530.5C 659.5,550.833 659.5,571.167 659.5,591.5 Z"/></g>
<g><path style="opacity:1" fill="#f7f0c3" d="M 88.5,543.5 C 89.2243,547.365 89.8909,551.365 90.5,555.5C 90.1667,555.833 89.8333,556.167 89.5,556.5C 88.5078,552.217 88.1744,547.884 88.5,543.5 Z"/></g>
<g><path style="opacity:1" fill="#cba073" d="M 43.5,543.5 C 45.337,543.639 45.6704,544.306 44.5,545.5C 43.7025,545.043 43.3691,544.376 43.5,543.5 Z"/></g>
<g><path style="opacity:1" fill="#e8f4e7" d="M 92.5,543.5 C 93.2243,547.365 93.8909,551.365 94.5,555.5C 94.1667,555.833 93.8333,556.167 93.5,556.5C 92.5078,552.217 92.1744,547.884 92.5,543.5 Z"/></g>
<g><path style="opacity:1" fill="#ca9b6e" d="M 43.5,547.5 C 44.7647,548.514 45.4313,550.014 45.5,552C 45.1667,553.5 44.8333,555 44.5,556.5C 43.5159,553.572 43.1826,550.572 43.5,547.5 Z"/></g>
<g><path style="opacity:1" fill="#dbdfd8" d="M 74.5,555.5 C 73.8333,555.5 73.5,555.167 73.5,554.5C 74.4511,553.081 74.7845,551.415 74.5,549.5C 73.5,549.5 72.5,549.5 71.5,549.5C 70.5206,552.625 70.1872,555.958 70.5,559.5C 69.5166,555.702 69.1832,551.702 69.5,547.5C 73.565,546.578 75.8983,548.078 76.5,552C 76.3917,553.681 75.7251,554.848 74.5,555.5 Z"/></g>
<g><path style="opacity:1" fill="#e1cbb2" d="M 81.5,554.5 C 81.1583,555.338 80.4916,555.672 79.5,555.5C 78.1997,552.976 78.1997,550.309 79.5,547.5C 80.1681,549.969 80.8347,552.302 81.5,554.5 Z"/></g>
<g><path style="opacity:1" fill="#b6c5d2" d="M 79.5,555.5 C 80.4916,555.672 81.1583,555.338 81.5,554.5C 83.0615,552.628 84.0615,550.295 84.5,547.5C 85.4841,550.428 85.8174,553.428 85.5,556.5C 83.2646,556.795 81.2646,556.461 79.5,555.5 Z"/></g>
<g><path style="opacity:1" fill="#e1cbb2" d="M 99.5,554.5 C 99.1583,555.338 98.4916,555.672 97.5,555.5C 96.1997,552.976 96.1997,550.309 97.5,547.5C 98.1681,549.969 98.8347,552.302 99.5,554.5 Z"/></g>
<g><path style="opacity:1" fill="#b6c5d2" d="M 97.5,555.5 C 98.4916,555.672 99.1583,555.338 99.5,554.5C 101.062,552.628 102.062,550.295 102.5,547.5C 103.484,550.428 103.817,553.428 103.5,556.5C 101.265,556.795 99.2646,556.461 97.5,555.5 Z"/></g>
<g><path style="opacity:1" fill="#222630" d="M 71.5,549.5 C 72.5,549.5 73.5,549.5 74.5,549.5C 74.7845,551.415 74.4511,553.081 73.5,554.5C 71.744,553.448 71.0773,551.781 71.5,549.5 Z"/></g>
<g><path style="opacity:1" fill="#d0af8e" d="M 33.5,551.5 C 33.6716,552.492 33.3382,553.158 32.5,553.5C 30.5767,551.799 30.2433,549.799 31.5,547.5C 32.1719,548.949 32.8386,550.282 33.5,551.5 Z"/></g>
<g><path style="opacity:1" fill="#c4c9cb" d="M 115.5,547.5 C 121.261,547.709 121.594,548.542 116.5,550C 117.579,550.956 118.745,551.789 120,552.5C 120.684,553.784 120.517,554.951 119.5,556C 117.741,556.798 116.074,556.631 114.5,555.5C 119.639,554.803 119.805,553.47 115,551.5C 114.421,550.072 114.588,548.738 115.5,547.5 Z"/></g>
<g><path style="opacity:1" fill="#dfe0e2" d="M 620.5,551.5 C 627.175,551.334 633.842,551.5 640.5,552C 641.333,552.833 642.167,553.667 643,554.5C 643.667,559.833 643.667,565.167 643,570.5C 642.167,571.333 641.333,572.167 640.5,573C 633.833,573.667 627.167,573.667 620.5,573C 619.667,572.167 618.833,571.333 618,570.5C 617.333,565.167 617.333,559.833 618,554.5C 619.045,553.627 619.878,552.627 620.5,551.5 Z"/></g>
<g><path style="opacity:1" fill="#24272c" d="M 621.5,552.5 C 627.509,552.334 633.509,552.501 639.5,553C 640.333,553.833 641.167,554.667 642,555.5C 642.667,560.167 642.667,564.833 642,569.5C 641.167,570.333 640.333,571.167 639.5,572C 633.5,572.667 627.5,572.667 621.5,572C 618.972,569.427 617.972,566.261 618.5,562.5C 617.993,558.588 618.993,555.255 621.5,552.5 Z"/></g>
<g><path style="opacity:1" fill="#d5c4b3" d="M 32.5,553.5 C 33.3382,553.158 33.6716,552.492 33.5,551.5C 34.4345,550.432 34.7678,549.099 34.5,547.5C 35.5,547.5 36.5,547.5 37.5,547.5C 37.3433,548.873 37.51,550.207 38,551.5C 38.5831,549.998 39.4164,548.665 40.5,547.5C 41.5231,550.789 40.8565,553.789 38.5,556.5C 37.3764,554.631 36.5431,552.631 36,550.5C 35.7674,552.78 34.934,554.78 33.5,556.5C 32.6143,555.675 32.281,554.675 32.5,553.5 Z"/></g>
<g><path style="opacity:1" fill="#dcd4c7" d="M 57.5,547.5 C 61.938,546.425 63.938,548.092 63.5,552.5C 56.9514,552.907 56.9514,553.907 63.5,555.5C 56.7935,556.772 54.7935,554.105 57.5,547.5 Z"/></g>
<g><path style="opacity:1" fill="#2c2c31" d="M 58.5,549.5 C 59.675,549.281 60.675,549.614 61.5,550.5C 59.9483,551.798 58.9483,551.465 58.5,549.5 Z"/></g>
<g><path style="opacity:1" fill="#d6cec6" d="M 52.5,543.5 C 54.4302,547.373 55.0969,551.706 54.5,556.5C 48.5036,557.667 46.0036,555.334 47,549.5C 48.4443,547.845 50.2776,547.178 52.5,547.5C 52.5,546.167 52.5,544.833 52.5,543.5 Z"/></g>
<g><path style="opacity:1" fill="#342a33" d="M 48.5,549.5 C 49.8333,549.5 51.1667,549.5 52.5,549.5C 52.5,551.167 52.5,552.833 52.5,554.5C 49.0897,554.616 47.7564,552.95 48.5,549.5 Z"/></g>
<g><path style="opacity:1" fill="#cba386" d="M 71.5,549.5 C 71.0773,551.781 71.744,553.448 73.5,554.5C 73.5,555.167 73.8333,555.5 74.5,555.5C 73.791,556.404 72.791,556.737 71.5,556.5C 71.7373,557.791 71.404,558.791 70.5,559.5C 70.1872,555.958 70.5206,552.625 71.5,549.5 Z"/></g>
<g><path style="opacity:1" fill="#d7d1c8" d="M 105.5,547.5 C 111.496,546.333 113.996,548.666 113,554.5C 111.556,556.155 109.722,556.822 107.5,556.5C 107.719,557.675 107.386,558.675 106.5,559.5C 105.509,555.555 105.176,551.555 105.5,547.5 Z"/></g>
<g><path style="opacity:1" fill="#2f2d3d" d="M 107.5,549.5 C 108.833,549.5 110.167,549.5 111.5,549.5C 111.5,551.167 111.5,552.833 111.5,554.5C 110.167,554.5 108.833,554.5 107.5,554.5C 107.5,552.833 107.5,551.167 107.5,549.5 Z"/></g>
<g><path style="opacity:1" fill="#e4e0d7" d="M 627.5,557.5 C 629.017,557.511 630.184,558.177 631,559.5C 631.535,557.729 632.369,557.396 633.5,558.5C 632.062,561.083 632.396,563.417 634.5,565.5C 632.956,566.622 631.623,566.289 630.5,564.5C 629.468,566.04 628.135,566.54 626.5,566C 627.376,564.414 628.376,562.914 629.5,561.5C 628.37,560.378 627.703,559.044 627.5,557.5 Z"/></g>
<g><path style="opacity:1" fill="#9a7859" d="M 80.5,568.5 C 81.0431,568.56 81.3764,568.893 81.5,569.5C 80.1667,570.167 78.8333,570.833 77.5,571.5C 77.8627,572.183 78.1961,572.85 78.5,573.5C 76.8235,572.817 76.1568,571.483 76.5,569.5C 78.099,569.768 79.4324,569.434 80.5,568.5 Z"/></g>
<g><path style="opacity:1" fill="#9a7859" d="M 102.5,568.5 C 103.043,568.56 103.376,568.893 103.5,569.5C 102.167,570.167 100.833,570.833 99.5,571.5C 99.8627,572.183 100.196,572.85 100.5,573.5C 98.8235,572.817 98.1568,571.483 98.5,569.5C 100.099,569.768 101.432,569.434 102.5,568.5 Z"/></g>
<g><path style="opacity:1" fill="#c4b7aa" d="M 107.5,580.5 C 108.15,578.565 108.483,576.565 108.5,574.5C 109.234,573.292 109.567,571.959 109.5,570.5C 108.022,570.762 106.689,570.429 105.5,569.5C 107.743,568.526 110.076,568.192 112.5,568.5C 111.293,572.887 109.626,576.887 107.5,580.5 Z"/></g>
<g><path style="opacity:1" fill="#b4c8d7" d="M 64.5,568.5 C 65.7943,570.048 66.4609,572.048 66.5,574.5C 66.1667,576.5 65.8333,578.5 65.5,580.5C 64.6786,577.553 64.1786,574.553 64,571.5C 63.3457,572.696 62.8457,572.696 62.5,571.5C 63.1925,570.482 63.8592,569.482 64.5,568.5 Z"/></g>
<g><path style="opacity:1" fill="#e7e7c5" d="M 48.5,571.5 C 50.337,571.639 50.6704,572.306 49.5,573.5C 48.7025,573.043 48.3691,572.376 48.5,571.5 Z"/></g>
<g><path style="opacity:1" fill="#e7e7c5" d="M 70.5,571.5 C 72.337,571.639 72.6704,572.306 71.5,573.5C 70.7025,573.043 70.3691,572.376 70.5,571.5 Z"/></g>
<g><path style="opacity:1" fill="#d4d1c6" d="M 84.5,568.5 C 88.9225,567.425 90.9225,569.092 90.5,573.5C 90.4735,578.543 88.1402,580.543 83.5,579.5C 89.6623,577.904 89.829,576.237 84,574.5C 83.3224,572.402 83.4891,570.402 84.5,568.5 Z"/></g>
<g><path style="opacity:1" fill="#2c2d36" d="M 85.5,570.5 C 86.5,570.5 87.5,570.5 88.5,570.5C 88.5,571.833 88.5,573.167 88.5,574.5C 87.5,574.5 86.5,574.5 85.5,574.5C 85.5,573.167 85.5,571.833 85.5,570.5 Z"/></g>
<g><path style="opacity:1" fill="#e7e7c5" d="M 92.5,571.5 C 94.337,571.639 94.6704,572.306 93.5,573.5C 92.7025,573.043 92.3691,572.376 92.5,571.5 Z"/></g>
<g><path style="opacity:1" fill="#e0ddce" d="M 32.5,568.5 C 34.3904,568.297 35.8904,568.963 37,570.5C 37.6667,573.167 37.6667,575.833 37,578.5C 32.3932,581.272 30.2265,579.772 30.5,574C 30.6975,571.879 31.3642,570.046 32.5,568.5 Z"/></g>
<g><path style="opacity:1" fill="#303746" d="M 32.5,570.5 C 35.488,570.155 36.8213,571.488 36.5,574.5C 36.8213,577.512 35.488,578.845 32.5,578.5C 32.5,575.833 32.5,573.167 32.5,570.5 Z"/></g>
<g><path style="opacity:1" fill="#e0ddce" d="M 41.5,568.5 C 43.3904,568.297 44.8904,568.963 46,570.5C 46.6667,573.167 46.6667,575.833 46,578.5C 41.3932,581.272 39.2265,579.772 39.5,574C 39.6975,571.879 40.3642,570.046 41.5,568.5 Z"/></g>
<g><path style="opacity:1" fill="#303746" d="M 41.5,570.5 C 44.488,570.155 45.8213,571.488 45.5,574.5C 45.8213,577.512 44.488,578.845 41.5,578.5C 41.5,575.833 41.5,573.167 41.5,570.5 Z"/></g>
<g><path style="opacity:1" fill="#e2debe" d="M 48.5,578.5 C 50.337,578.639 50.6704,579.306 49.5,580.5C 48.7025,580.043 48.3691,579.376 48.5,578.5 Z"/></g>
<g><path style="opacity:1" fill="#e0ddce" d="M 54.5,568.5 C 56.3904,568.297 57.8904,568.963 59,570.5C 59.6667,573.167 59.6667,575.833 59,578.5C 54.3932,581.272 52.2265,579.772 52.5,574C 52.6975,571.879 53.3642,570.046 54.5,568.5 Z"/></g>
<g><path style="opacity:1" fill="#303746" d="M 54.5,570.5 C 57.488,570.155 58.8213,571.488 58.5,574.5C 58.8213,577.512 57.488,578.845 54.5,578.5C 54.5,575.833 54.5,573.167 54.5,570.5 Z"/></g>
<g><path style="opacity:1" fill="#e2debe" d="M 70.5,578.5 C 72.337,578.639 72.6704,579.306 71.5,580.5C 70.7025,580.043 70.3691,579.376 70.5,578.5 Z"/></g>
<g><path style="opacity:1" fill="#d6d7cf" d="M 80.5,568.5 C 79.4324,569.434 78.099,569.768 76.5,569.5C 76.1568,571.483 76.8235,572.817 78.5,573.5C 79.4959,573.414 80.3292,573.748 81,574.5C 81.8013,579.858 79.6346,581.525 74.5,579.5C 76.0453,578.548 77.712,578.215 79.5,578.5C 79.8333,575.5 78.5,574.167 75.5,574.5C 75.5,572.5 75.5,570.5 75.5,568.5C 77.1667,568.5 78.8333,568.5 80.5,568.5 Z"/></g>
<g><path style="opacity:1" fill="#e2debe" d="M 92.5,578.5 C 94.337,578.639 94.6704,579.306 93.5,580.5C 92.7025,580.043 92.3691,579.376 92.5,578.5 Z"/></g>
<g><path style="opacity:1" fill="#d6d7cf" d="M 102.5,568.5 C 101.432,569.434 100.099,569.768 98.5,569.5C 98.1568,571.483 98.8235,572.817 100.5,573.5C 101.496,573.414 102.329,573.748 103,574.5C 103.801,579.858 101.635,581.525 96.5,579.5C 98.0453,578.548 99.712,578.215 101.5,578.5C 101.833,575.5 100.5,574.167 97.5,574.5C 97.5,572.5 97.5,570.5 97.5,568.5C 99.1667,568.5 100.833,568.5 102.5,568.5 Z"/></g>
<g><path style="opacity:1" fill="#527eba" d="M 108.5,574.5 C 108.483,576.565 108.15,578.565 107.5,580.5C 106.206,578.32 106.539,576.32 108.5,574.5 Z"/></g>
</svg>
