<?xml version="1.0" encoding="UTF-8"?>
<!DOCTYPE svg PUBLIC "-//W3C//DTD SVG 1.1//EN" "http://www.w3.org/Graphics/SVG/1.1/DTD/svg11.dtd">
<svg xmlns="http://www.w3.org/2000/svg" version="1.1" width="431px" height="650px" style="shape-rendering:geometricPrecision; text-rendering:geometricPrecision; image-rendering:optimizeQuality; fill-rule:evenodd; clip-rule:evenodd" xmlns:xlink="http://www.w3.org/1999/xlink">
<g><path style="opacity:1" fill="#fefefe" d="M -0.5,-0.5 C 143.167,-0.5 286.833,-0.5 430.5,-0.5C 430.5,216.167 430.5,432.833 430.5,649.5C 428.833,649.5 427.167,649.5 425.5,649.5C 425.667,435.5 425.5,221.5 425,7.5C 424.5,7 424,6.5 423.5,6C 283.833,5.33333 144.167,5.33333 4.5,6C 4,6.5 3.5,7 3,7.5C 2.5,221.5 2.33333,435.5 2.5,649.5C 1.5,649.5 0.5,649.5 -0.5,649.5C -0.5,432.833 -0.5,216.167 -0.5,-0.5 Z"/></g>
<g><path style="opacity:1" fill="#f6f5f5" d="M 425.5,649.5 C 284.5,649.5 143.5,649.5 2.5,649.5C 2.33333,435.5 2.5,221.5 3,7.5C 3.5,7 4,6.5 4.5,6C 144.167,5.33333 283.833,5.33333 423.5,6C 424,6.5 424.5,7 425,7.5C 425.5,221.5 425.667,435.5 425.5,649.5 Z"/></g>
<g><path style="opacity:1" fill="#8cd4f1" d="M 274.5,56.5 C 275.201,63.0367 275.868,69.7034 276.5,76.5C 276.376,77.1067 276.043,77.44 275.5,77.5C 274.538,70.5878 274.205,63.5878 274.5,56.5 Z"/></g>
<g><path style="opacity:1" fill="#251617" d="M 169.5,56.5 C 170.5,56.5 171.5,56.5 172.5,56.5C 172.5,57.8333 172.5,59.1667 172.5,60.5C 171.167,60.5 169.833,60.5 168.5,60.5C 168.433,59.0413 168.766,57.7079 169.5,56.5 Z"/></g>
<g><path style="opacity:1" fill="#1c1d29" d="M 237.5,56.5 C 240.5,56.1667 241.833,57.5 241.5,60.5C 240.167,60.5 238.833,60.5 237.5,60.5C 237.5,59.1667 237.5,57.8333 237.5,56.5 Z"/></g>
<g><path style="opacity:1" fill="#241a22" d="M 217.5,58.5 C 222.833,58.5 228.167,58.5 233.5,58.5C 233.785,60.288 233.452,61.9547 232.5,63.5C 231.614,62.675 231.281,61.675 231.5,60.5C 229.167,60.5 226.833,60.5 224.5,60.5C 224.5,62.8333 224.5,65.1667 224.5,67.5C 226.766,67.8588 228.599,67.1922 230,65.5C 230.667,67.5 230.667,69.5 230,71.5C 228.599,69.8078 226.766,69.1412 224.5,69.5C 224.5,71.8333 224.5,74.1667 224.5,76.5C 223.984,77.8362 221.984,77.8362 218.5,76.5C 219.164,73.8541 219.498,71.0208 219.5,68C 219.403,64.5666 218.737,61.4 217.5,58.5 Z"/></g>
<g><path style="opacity:1" fill="#24170f" d="M 215.5,63.5 C 214.791,64.404 213.791,64.7373 212.5,64.5C 212.185,68.3714 212.518,72.0381 213.5,75.5C 217.244,75.9796 217.077,76.6462 213,77.5C 211.289,77.5607 209.956,76.8941 209,75.5C 208.762,71.7778 208.262,68.1111 207.5,64.5C 208.842,63.1239 210.175,61.7906 211.5,60.5C 212.386,61.325 212.719,62.325 212.5,63.5C 213.5,63.5 214.5,63.5 215.5,63.5 Z"/></g>
<g><path style="opacity:1" fill="#eee5a8" d="M 217.5,58.5 C 218.737,61.4 219.403,64.5666 219.5,68C 219.498,71.0208 219.164,73.8541 218.5,76.5C 219.054,70.6049 218.388,64.9383 216.5,59.5C 216.624,58.8933 216.957,58.56 217.5,58.5 Z"/></g>
<g><path style="opacity:1" fill="#1c151f" d="M 125.5,59.5 C 127.966,58.3659 130.633,58.1993 133.5,59C 132.978,59.5613 132.645,60.228 132.5,61C 133.528,64.2211 134.694,67.3877 136,70.5C 138.015,67.469 139.181,64.1357 139.5,60.5C 140.822,60.33 141.989,60.6634 143,61.5C 144.528,64.4167 145.861,67.4167 147,70.5C 148.306,67.3877 149.472,64.2211 150.5,61C 150.095,60.0546 149.428,59.3879 148.5,59C 150.5,58.3333 152.5,58.3333 154.5,59C 153.584,59.3742 152.75,59.8742 152,60.5C 150.336,66.16 148.836,71.8267 147.5,77.5C 146.5,77.5 145.5,77.5 144.5,77.5C 144.075,73.3929 142.575,69.7262 140,66.5C 138.71,70.4128 136.877,74.0795 134.5,77.5C 132.049,72.3209 129.882,66.9875 128,61.5C 127.583,60.244 126.75,59.5774 125.5,59.5 Z"/></g>
<g><path style="opacity:1" fill="#1d0d06" d="M 167.5,64.5 C 168.919,63.5489 170.585,63.2155 172.5,63.5C 171.935,68.3222 172.601,72.8222 174.5,77C 172.167,77.6667 169.833,77.6667 167.5,77C 168.822,72.7331 168.822,68.5664 167.5,64.5 Z"/></g>
<g><path style="opacity:1" fill="#141521" d="M 235.5,64.5 C 237.265,63.5386 239.265,63.2053 241.5,63.5C 241.2,68.0986 241.533,72.5986 242.5,77C 240.167,77.6667 237.833,77.6667 235.5,77C 236.743,75.1303 237.41,72.9637 237.5,70.5C 237.461,68.0478 236.794,66.0478 235.5,64.5 Z"/></g>
<g><path style="opacity:1" fill="#180a17" d="M 290.5,64.5 C 292.265,63.5386 294.265,63.2053 296.5,63.5C 296.351,64.552 296.517,65.552 297,66.5C 298.264,64.393 300.097,63.393 302.5,63.5C 302.66,65.1992 302.494,66.8659 302,68.5C 300.946,66.2464 299.446,65.913 297.5,67.5C 297.167,69 296.833,70.5 296.5,72C 296.629,73.9806 297.296,75.6472 298.5,77C 295.833,77.6667 293.167,77.6667 290.5,77C 291.743,75.1303 292.41,72.9637 292.5,70.5C 292.461,68.0478 291.794,66.0478 290.5,64.5 Z"/></g>
<g><path style="opacity:1" fill="#1c1216" d="M 157.5,63.5 C 163.183,62.6464 165.849,64.9797 165.5,70.5C 163.167,70.5 160.833,70.5 158.5,70.5C 158.286,72.1439 158.62,73.6439 159.5,75C 161.5,75.3333 163.5,75.6667 165.5,76C 158.544,79.4975 154.878,77.3309 154.5,69.5C 154.617,66.9503 155.617,64.9503 157.5,63.5 Z"/></g>
<g><path style="opacity:1" fill="#18141f" d="M 190.5,57.5 C 192.265,56.5386 194.265,56.2053 196.5,56.5C 196.336,59.1873 196.503,61.854 197,64.5C 199.592,63.0183 201.925,63.3517 204,65.5C 204.203,69.4213 204.703,73.2546 205.5,77C 203.5,77.6667 201.5,77.6667 199.5,77C 200.622,73.5915 200.789,70.0915 200,66.5C 198.989,65.6634 197.822,65.33 196.5,65.5C 196.207,69.4367 196.54,73.27 197.5,77C 195.167,77.6667 192.833,77.6667 190.5,77C 191.783,73.9364 192.45,70.6031 192.5,67C 192.485,63.4242 191.818,60.2575 190.5,57.5 Z"/></g>
<g><path style="opacity:1" fill="#1f161c" d="M 244.5,64.5 C 247.451,64.0136 250.451,63.6803 253.5,63.5C 255.374,63.3898 256.874,64.0564 258,65.5C 258.203,69.4213 258.703,73.2546 259.5,77C 257.167,77.6667 254.833,77.6667 252.5,77C 253.46,73.27 253.793,69.4367 253.5,65.5C 252.167,65.5 250.833,65.5 249.5,65.5C 249.207,69.4367 249.54,73.27 250.5,77C 248.5,77.6667 246.5,77.6667 244.5,77C 245.822,72.7331 245.822,68.5664 244.5,64.5 Z"/></g>
<g><path style="opacity:1" fill="#1a121b" d="M 274.5,56.5 C 274.205,63.5878 274.538,70.5878 275.5,77.5C 271.445,77.8242 267.445,77.4909 263.5,76.5C 261.342,73.0653 261.008,69.3986 262.5,65.5C 264.851,63.7711 267.518,63.1044 270.5,63.5C 270.756,61.2075 270.423,59.0408 269.5,57C 271.134,56.5065 272.801,56.3398 274.5,56.5 Z"/></g>
<g><path style="opacity:1" fill="#221611" d="M 280.5,63.5 C 286.334,62.3373 289,64.6706 288.5,70.5C 286.167,70.5 283.833,70.5 281.5,70.5C 281.286,72.1439 281.62,73.6439 282.5,75C 289.621,75.3462 289.955,76.1796 283.5,77.5C 279.273,76.9138 277.273,74.4138 277.5,70C 277.391,67.2884 278.391,65.1217 280.5,63.5 Z"/></g>
<g><path style="opacity:1" fill="#4478bc" d="M 215.5,63.5 C 216.043,63.56 216.376,63.8933 216.5,64.5C 215.675,65.3857 214.675,65.719 213.5,65.5C 213.5,68.8333 213.5,72.1667 213.5,75.5C 212.518,72.0381 212.185,68.3714 212.5,64.5C 213.791,64.7373 214.791,64.404 215.5,63.5 Z"/></g>
<g><path style="opacity:1" fill="#edece3" d="M 265.5,65.5 C 267.167,65.5 268.833,65.5 270.5,65.5C 270.5,68.8333 270.5,72.1667 270.5,75.5C 268.856,75.7135 267.356,75.3802 266,74.5C 265.502,71.5184 265.335,68.5184 265.5,65.5 Z"/></g>
<g><path style="opacity:1" fill="#9dadb4" d="M 158.5,65.5 C 159.5,65.5 160.5,65.5 161.5,65.5C 161.5,66.8333 161.5,68.1667 161.5,69.5C 160.5,69.5 159.5,69.5 158.5,69.5C 158.5,68.1667 158.5,66.8333 158.5,65.5 Z"/></g>
<g><path style="opacity:1" fill="#8f9db2" d="M 281.5,65.5 C 282.5,65.5 283.5,65.5 284.5,65.5C 284.5,66.8333 284.5,68.1667 284.5,69.5C 283.5,69.5 282.5,69.5 281.5,69.5C 281.5,68.1667 281.5,66.8333 281.5,65.5 Z"/></g>
<g><path style="opacity:1" fill="#1b171f" d="M 187.5,62.5 C 188.147,64.7913 188.314,67.458 188,70.5C 185.328,71.8672 182.495,72.8672 179.5,73.5C 182.556,74.1962 185.556,75.0296 188.5,76C 190.251,79.9433 188.918,82.2766 184.5,83C 182.167,83.6667 179.833,83.6667 177.5,83C 174.936,81.1492 174.936,79.3159 177.5,77.5C 177.491,73.5712 177.324,69.5712 177,65.5C 177.5,65 178,64.5 178.5,64C 181.695,63.8195 184.695,63.3195 187.5,62.5 Z"/></g>
<g><path style="opacity:1" fill="#e4d3c4" d="M 180.5,65.5 C 181.833,65.5 183.167,65.5 184.5,65.5C 185.401,69.2407 184.068,71.2407 180.5,71.5C 180.5,69.5 180.5,67.5 180.5,65.5 Z"/></g>
<g><path style="opacity:1" fill="#dad7d3" d="M 179.5,77.5 C 181.527,77.3379 183.527,77.5045 185.5,78C 186.833,79 186.833,80 185.5,81C 183.19,81.4966 180.857,81.6633 178.5,81.5C 178.433,80.0413 178.766,78.7079 179.5,77.5 Z"/></g>
<g><path style="opacity:1" fill="#fefefe" d="M 411.5,136.5 C 279.833,136.5 148.167,136.5 16.5,136.5C 16.2172,135.711 15.7172,135.044 15,134.5C 14.3333,122.5 14.3333,110.5 15,98.5C 15.5,98 16,97.5 16.5,97C 148.167,96.3333 279.833,96.3333 411.5,97C 412,97.5 412.5,98 413,98.5C 413.667,110.5 413.667,122.5 413,134.5C 412.283,135.044 411.783,135.711 411.5,136.5 Z"/></g>
<g><path style="opacity:1" fill="#f1f1e9" d="M 204.5,114.5 C 205.5,114.5 206.5,114.5 207.5,114.5C 207.5,116.5 207.5,118.5 207.5,120.5C 206.5,120.5 205.5,120.5 204.5,120.5C 204.5,118.5 204.5,116.5 204.5,114.5 Z"/></g>
<g><path style="opacity:1" fill="#f2f2eb" d="M 222.5,114.5 C 223.341,116.379 223.675,118.379 223.5,120.5C 222.5,120.5 221.5,120.5 220.5,120.5C 220.025,117.918 220.692,115.918 222.5,114.5 Z"/></g>
<g><path style="opacity:1" fill="#703917" d="M 207.5,121.5 C 207.5,121.167 207.5,120.833 207.5,120.5C 207.5,118.5 207.5,116.5 207.5,114.5C 206.5,114.5 205.5,114.5 204.5,114.5C 204.167,114.5 203.833,114.5 203.5,114.5C 204.568,113.566 205.901,113.232 207.5,113.5C 208.855,114.114 208.855,116.781 207.5,121.5 Z"/></g>
<g><path style="opacity:1" fill="#3a63a2" d="M 222.5,114.5 C 220.692,115.918 220.025,117.918 220.5,120.5C 220.167,120.5 219.833,120.5 219.5,120.5C 219.5,118.167 219.5,115.833 219.5,113.5C 220.791,113.263 221.791,113.596 222.5,114.5 Z"/></g>
<g><path style="opacity:1" fill="#653b2c" d="M 219.5,120.5 C 219.833,120.5 220.167,120.5 220.5,120.5C 221.5,120.5 222.5,120.5 223.5,120.5C 223.675,118.379 223.341,116.379 222.5,114.5C 223.117,114.389 223.617,114.056 224,113.5C 224.499,117.152 224.665,120.818 224.5,124.5C 219.959,124.669 219.626,124.002 223.5,122.5C 222.051,121.828 220.718,121.161 219.5,120.5 Z"/></g>
<g><path style="opacity:1" fill="#62474f" d="M 203.5,114.5 C 203.833,114.5 204.167,114.5 204.5,114.5C 204.5,116.5 204.5,118.5 204.5,120.5C 205.5,120.5 206.5,120.5 207.5,120.5C 207.5,120.833 207.5,121.167 207.5,121.5C 205.856,121.714 204.356,121.38 203,120.5C 202.211,118.288 202.378,116.288 203.5,114.5 Z"/></g>
<g><path style="opacity:1" fill="#62729b" d="M 216.5,114.5 C 217.468,116.607 217.802,118.941 217.5,121.5C 211.833,121.336 211.5,121.003 216.5,120.5C 216.5,118.5 216.5,116.5 216.5,114.5 Z"/></g>
<g><path style="opacity:1" fill="#e8e8e8" d="M 16.5,136.5 C 148.167,136.5 279.833,136.5 411.5,136.5C 411.119,137.931 410.119,138.764 408.5,139C 278.833,139.667 149.167,139.667 19.5,139C 17.8807,138.764 16.8807,137.931 16.5,136.5 Z"/></g>
<g><path style="opacity:1" fill="#fefefe" d="M 411.5,322.5 C 279.833,322.5 148.167,322.5 16.5,322.5C 16.2172,321.711 15.7172,321.044 15,320.5C 14.3333,263.833 14.3333,207.167 15,150.5C 15.5,150 16,149.5 16.5,149C 148.167,148.333 279.833,148.333 411.5,149C 412,149.5 412.5,150 413,150.5C 413.667,207.167 413.667,263.833 413,320.5C 412.283,321.044 411.783,321.711 411.5,322.5 Z"/></g>
<g><path style="opacity:1" fill="#1c0e47" d="M 215.5,163.5 C 216.209,162.596 217.209,162.263 218.5,162.5C 218.665,165.85 218.498,169.183 218,172.5C 218.07,169.008 217.237,166.008 215.5,163.5 Z"/></g>
<g><path style="opacity:1" fill="#2d1013" d="M 193.5,167.5 C 192.167,167.5 190.833,167.5 189.5,167.5C 189.5,166.167 189.5,164.833 189.5,163.5C 195.324,163.347 195.657,164.013 190.5,165.5C 191.602,166.176 192.602,166.842 193.5,167.5 Z"/></g>
<g><path style="opacity:1" fill="#331f21" d="M 203.5,168.5 C 203.737,169.791 203.404,170.791 202.5,171.5C 202.833,168.5 201.5,167.167 198.5,167.5C 198.5,166.167 198.5,164.833 198.5,163.5C 204.324,163.347 204.657,164.013 199.5,165.5C 201.184,166.15 202.517,167.15 203.5,168.5 Z"/></g>
<g><path style="opacity:1" fill="#aa8772" d="M 189.5,167.5 C 190.833,167.5 192.167,167.5 193.5,167.5C 194.167,167.5 194.5,167.833 194.5,168.5C 194.737,169.791 194.404,170.791 193.5,171.5C 193.5,170.5 193.5,169.5 193.5,168.5C 191.901,168.768 190.568,168.434 189.5,167.5 Z"/></g>
<g><path style="opacity:1" fill="#2a2857" d="M 229.5,172.5 C 228.081,173.451 226.415,173.784 224.5,173.5C 223.943,168.546 224.276,165.879 225.5,165.5C 227.144,165.286 228.644,165.62 230,166.5C 230.789,168.712 230.622,170.712 229.5,172.5 Z"/></g>
<g><path style="opacity:1" fill="#e4daca" d="M 229.5,172.5 C 225.929,172.592 224.762,170.926 226,167.5C 227,166.167 228,166.167 229,167.5C 229.494,169.134 229.66,170.801 229.5,172.5 Z"/></g>
<g><path style="opacity:1" fill="#554751" d="M 233.5,165.5 C 238.041,165.331 238.374,165.998 234.5,167.5C 238.021,168.15 239.021,169.983 237.5,173C 232.999,173.663 232.665,173.163 236.5,171.5C 234.022,170.278 233.022,168.278 233.5,165.5 Z"/></g>
<g><path style="opacity:1" fill="#716d7e" d="M 203.5,168.5 C 204.801,169.884 204.801,171.384 203.5,173C 201.421,173.808 199.421,173.641 197.5,172.5C 199.045,171.548 200.712,171.215 202.5,171.5C 203.404,170.791 203.737,169.791 203.5,168.5 Z"/></g>
<g><path style="opacity:1" fill="#374064" d="M 194.5,168.5 C 196.163,173 194.497,174.5 189.5,173C 191.058,172.79 192.391,172.29 193.5,171.5C 194.404,170.791 194.737,169.791 194.5,168.5 Z"/></g>
<g><path style="opacity:1" fill="#e8e8e8" d="M 16.5,322.5 C 148.167,322.5 279.833,322.5 411.5,322.5C 411.119,323.931 410.119,324.764 408.5,325C 278.833,325.667 149.167,325.667 19.5,325C 17.8807,324.764 16.8807,323.931 16.5,322.5 Z"/></g>
<g><path style="opacity:1" fill="#fbfbfa" d="M 411.5,508.5 C 279.833,508.5 148.167,508.5 16.5,508.5C 16.2172,507.711 15.7172,507.044 15,506.5C 14.3333,449.833 14.3333,393.167 15,336.5C 15.5,336 16,335.5 16.5,335C 148.167,334.333 279.833,334.333 411.5,335C 412,335.5 412.5,336 413,336.5C 413.667,393.167 413.667,449.833 413,506.5C 412.283,507.044 411.783,507.711 411.5,508.5 Z"/></g>
<g><path style="opacity:1" fill="#390c28" d="M 297.5,348.5 C 297.253,351.939 297.586,355.272 298.5,358.5C 297.883,358.611 297.383,358.944 297,359.5C 296.19,355.642 296.357,351.976 297.5,348.5 Z"/></g>
<g><path style="opacity:1" fill="#7cbbf7" d="M 66.5,349.5 C 67.0234,352.566 68.0234,355.566 69.5,358.5C 69.3764,359.107 69.0431,359.44 68.5,359.5C 66.727,356.512 66.0604,353.179 66.5,349.5 Z"/></g>
<g><path style="opacity:1" fill="#22336a" d="M 74.5,349.5 C 74.9426,352.814 75.9426,355.981 77.5,359C 74.162,359.876 72.8286,359.709 73.5,358.5C 74.4767,355.713 74.81,352.713 74.5,349.5 Z"/></g>
<g><path style="opacity:1" fill="#7cbbf7" d="M 118.5,349.5 C 119.023,352.566 120.023,355.566 121.5,358.5C 121.376,359.107 121.043,359.44 120.5,359.5C 118.727,356.512 118.06,353.179 118.5,349.5 Z"/></g>
<g><path style="opacity:1" fill="#231204" d="M 122.5,350.5 C 124.364,349.207 126.364,349.207 128.5,350.5C 126.78,350.746 124.78,350.746 122.5,350.5 Z"/></g>
<g><path style="opacity:1" fill="#1c0d45" d="M 32.5,349.5 C 33.7773,350.694 34.4439,352.36 34.5,354.5C 34.4932,356.369 34.1599,358.036 33.5,359.5C 33.6576,356.098 33.3242,352.764 32.5,349.5 Z"/></g>
<g><path style="opacity:1" fill="#290c14" d="M 66.5,349.5 C 66.0604,353.179 66.727,356.512 68.5,359.5C 66.8008,359.66 65.1341,359.494 63.5,359C 64.6841,357.82 65.3507,356.32 65.5,354.5C 65.3507,352.68 64.6841,351.18 63.5,350C 64.448,349.517 65.448,349.351 66.5,349.5 Z"/></g>
<g><path style="opacity:1" fill="#9c5b29" d="M 74.5,349.5 C 74.81,352.713 74.4767,355.713 73.5,358.5C 73.8897,355.534 73.223,352.868 71.5,350.5C 72.325,349.614 73.325,349.281 74.5,349.5 Z"/></g>
<g><path style="opacity:1" fill="#290c14" d="M 118.5,349.5 C 118.06,353.179 118.727,356.512 120.5,359.5C 118.801,359.66 117.134,359.494 115.5,359C 116.684,357.82 117.351,356.32 117.5,354.5C 117.351,352.68 116.684,351.18 115.5,350C 116.448,349.517 117.448,349.351 118.5,349.5 Z"/></g>
<g><path style="opacity:1" fill="#9c5936" d="M 206.5,351.5 C 205.833,351.833 205.167,352.167 204.5,352.5C 205.032,349.54 205.699,349.207 206.5,351.5 Z"/></g>
<g><path style="opacity:1" fill="#44323d" d="M 254.5,351.5 C 257.95,350.756 259.616,352.09 259.5,355.5C 253.304,355.574 252.97,356.741 258.5,359C 252.412,359.084 251.079,356.584 254.5,351.5 Z"/></g>
<g><path style="opacity:1" fill="#3c253a" d="M 298.5,351.5 C 299.822,351.33 300.989,351.663 302,352.5C 302.789,354.712 302.622,356.712 301.5,358.5C 301.784,356.585 301.451,354.919 300.5,353.5C 299.833,352.833 299.167,352.167 298.5,351.5 Z"/></g>
<g><path style="opacity:1" fill="#50280d" d="M 360.5,352.5 C 359.539,354.265 359.205,356.265 359.5,358.5C 358.992,356.158 357.992,353.991 356.5,352C 357.667,351.5 358.5,350.667 359,349.5C 359.772,350.849 360.939,351.682 362.5,352C 361.906,352.464 361.239,352.631 360.5,352.5 Z"/></g>
<g><path style="opacity:1" fill="#112468" d="M 29.5,351.5 C 28.5269,353.948 28.1936,356.615 28.5,359.5C 27.1944,356.313 27.1944,352.98 28.5,349.5C 29.2975,349.957 29.6309,350.624 29.5,351.5 Z"/></g>
<g><path style="opacity:1" fill="#c79455" d="M 320.5,352.5 C 319.833,353.833 319.167,355.167 318.5,356.5C 318.5,354.833 318.5,353.167 318.5,351.5C 319.967,348.742 320.633,349.075 320.5,352.5 Z"/></g>
<g><path style="opacity:1" fill="#42160d" d="M 331.5,352.5 C 332.209,351.596 333.209,351.263 334.5,351.5C 334.5,353.833 334.5,356.167 334.5,358.5C 337.263,359.455 336.263,359.622 331.5,359C 332.624,358.161 333.291,356.994 333.5,355.5C 333.36,353.97 332.693,352.97 331.5,352.5 Z"/></g>
<g><path style="opacity:1" fill="#335189" d="M 360.5,352.5 C 360.083,355.079 360.75,357.246 362.5,359C 361.251,359.74 360.251,359.573 359.5,358.5C 359.205,356.265 359.539,354.265 360.5,352.5 Z"/></g>
<g><path style="opacity:1" fill="#655573" d="M 110.5,350.5 C 112.763,352.766 113.096,355.433 111.5,358.5C 107.463,359.98 105.463,358.48 105.5,354C 105.724,350.241 107.39,349.075 110.5,350.5 Z"/></g>
<g><path style="opacity:1" fill="#4b4d5e" d="M 141.5,355.5 C 140.957,355.44 140.624,355.107 140.5,354.5C 142.632,353.402 144.798,352.402 147,351.5C 147.167,351.833 147.333,352.167 147.5,352.5C 145.406,353.518 143.406,354.518 141.5,355.5 Z"/></g>
<g><path style="opacity:1" fill="#4b424b" d="M 157.5,353.5 C 165.923,353.272 166.256,354.939 158.5,358.5C 158.167,358.167 157.833,357.833 157.5,357.5C 159.113,356.573 160.779,355.739 162.5,355C 160.846,354.392 159.179,353.892 157.5,353.5 Z"/></g>
<g><path style="opacity:1" fill="#584948" d="M 197.5,351.5 C 198.043,351.56 198.376,351.893 198.5,352.5C 196.887,353.427 195.221,354.261 193.5,355C 195.623,355.815 197.623,356.815 199.5,358C 196.694,357.9 194.028,357.067 191.5,355.5C 193.219,353.648 195.219,352.314 197.5,351.5 Z"/></g>
<g><path style="opacity:1" fill="#4462a3" d="M 206.5,351.5 C 206.573,353.027 205.906,354.027 204.5,354.5C 204.5,353.833 204.5,353.167 204.5,352.5C 205.167,352.167 205.833,351.833 206.5,351.5 Z"/></g>
<g><path style="opacity:1" fill="#e6d1bd" d="M 214.5,352.5 C 215.167,352.5 215.5,352.833 215.5,353.5C 215.657,354.873 215.49,356.207 215,357.5C 214.282,358.451 213.449,358.617 212.5,358C 210.82,355.189 211.487,353.356 214.5,352.5 Z"/></g>
<g><path style="opacity:1" fill="#484959" d="M 219.5,353.5 C 221.543,352.771 223.543,353.271 225.5,355C 223.246,356.256 220.912,357.423 218.5,358.5C 217.304,358.154 217.304,357.654 218.5,357C 220.087,356.138 221.754,355.471 223.5,355C 222.099,354.59 220.766,354.09 219.5,353.5 Z"/></g>
<g><path style="opacity:1" fill="#463546" d="M 240.5,350.5 C 241.497,350.47 242.164,350.97 242.5,352C 242.431,354.213 242.097,356.38 241.5,358.5C 239.735,359.461 237.735,359.795 235.5,359.5C 235.5,356.167 235.5,352.833 235.5,349.5C 237.415,349.216 239.081,349.549 240.5,350.5 Z"/></g>
<g><path style="opacity:1" fill="#f2ebde" d="M 240.5,350.5 C 240.5,351.5 240.5,352.5 240.5,353.5C 239.5,353.5 238.5,353.5 237.5,353.5C 237.5,352.5 237.5,351.5 237.5,350.5C 238.5,350.5 239.5,350.5 240.5,350.5 Z"/></g>
<g><path style="opacity:1" fill="#675975" d="M 245.5,351.5 C 247.394,351.586 249.394,351.919 251.5,352.5C 250.47,352.554 249.303,352.888 248,353.5C 247.808,355.577 247.308,357.577 246.5,359.5C 245.52,356.914 245.187,354.247 245.5,351.5 Z"/></g>
<g><path style="opacity:1" fill="#f4e7d6" d="M 255.5,352.5 C 256.756,352.461 257.756,352.961 258.5,354C 257.167,354.667 255.833,354.667 254.5,354C 255.056,353.617 255.389,353.117 255.5,352.5 Z"/></g>
<g><path style="opacity:1" fill="#f2f5ed" d="M 274.5,352.5 C 274.975,355.082 274.308,357.082 272.5,358.5C 270.734,355.533 271.401,353.533 274.5,352.5 Z"/></g>
<g><path style="opacity:1" fill="#4d424c" d="M 293.5,351.5 C 294.043,351.56 294.376,351.893 294.5,352.5C 292.887,353.427 291.221,354.261 289.5,355C 291.221,355.739 292.887,356.573 294.5,357.5C 294.333,357.833 294.167,358.167 294,358.5C 291.411,357.792 289.245,356.459 287.5,354.5C 289.594,353.482 291.594,352.482 293.5,351.5 Z"/></g>
<g><path style="opacity:1" fill="#4a4146" d="M 305.5,353.5 C 307.795,352.072 309.795,352.572 311.5,355C 309.257,357.023 306.923,357.857 304.5,357.5C 306.113,356.573 307.779,355.739 309.5,355C 308.255,354.209 306.922,353.709 305.5,353.5 Z"/></g>
<g><path style="opacity:1" fill="#4d424c" d="M 371.5,351.5 C 372.043,351.56 372.376,351.893 372.5,352.5C 370.887,353.427 369.221,354.261 367.5,355C 369.221,355.739 370.887,356.573 372.5,357.5C 372.333,357.833 372.167,358.167 372,358.5C 369.411,357.792 367.245,356.459 365.5,354.5C 367.594,353.482 369.594,352.482 371.5,351.5 Z"/></g>
<g><path style="opacity:1" fill="#4b424b" d="M 391.5,353.5 C 399.923,353.272 400.256,354.939 392.5,358.5C 392.167,358.167 391.833,357.833 391.5,357.5C 393.113,356.573 394.779,355.739 396.5,355C 394.846,354.392 393.179,353.892 391.5,353.5 Z"/></g>
<g><path style="opacity:1" fill="#9badb5" d="M 29.5,351.5 C 30.2216,351.918 30.7216,352.584 31,353.5C 31.3988,353.272 31.5654,352.938 31.5,352.5C 32.3382,352.842 32.6716,353.508 32.5,354.5C 31.7784,354.918 31.2784,355.584 31,356.5C 30.6667,356.167 30.3333,355.833 30,355.5C 29.79,357.058 29.29,358.391 28.5,359.5C 28.1936,356.615 28.5269,353.948 29.5,351.5 Z"/></g>
<g><path style="opacity:1" fill="#e7b168" d="M 32.5,349.5 C 33.3242,352.764 33.6576,356.098 33.5,359.5C 32.5489,358.081 32.2155,356.415 32.5,354.5C 32.6716,353.508 32.3382,352.842 31.5,352.5C 31.2627,351.209 31.596,350.209 32.5,349.5 Z"/></g>
<g><path style="opacity:1" fill="#2a2857" d="M 154.5,358.5 C 153.081,359.451 151.415,359.784 149.5,359.5C 148.943,354.546 149.276,351.879 150.5,351.5C 152.144,351.286 153.644,351.62 155,352.5C 155.789,354.712 155.622,356.712 154.5,358.5 Z"/></g>
<g><path style="opacity:1" fill="#e4daca" d="M 154.5,358.5 C 150.929,358.592 149.762,356.926 151,353.5C 152,352.167 153,352.167 154,353.5C 154.494,355.134 154.66,356.801 154.5,358.5 Z"/></g>
<g><path style="opacity:1" fill="#393c70" d="M 274.5,351.5 C 274.5,351.833 274.5,352.167 274.5,352.5C 271.401,353.533 270.734,355.533 272.5,358.5C 272.167,358.5 271.833,358.5 271.5,358.5C 270.378,356.712 270.211,354.712 271,352.5C 272.011,351.663 273.178,351.33 274.5,351.5 Z"/></g>
<g><path style="opacity:1" fill="#a0c9ea" d="M 297.5,348.5 C 298.404,349.209 298.737,350.209 298.5,351.5C 299.167,352.167 299.833,352.833 300.5,353.5C 300.923,355.781 300.256,357.448 298.5,358.5C 297.586,355.272 297.253,351.939 297.5,348.5 Z"/></g>
<g><path style="opacity:1" fill="#af8e60" d="M 300.5,353.5 C 301.451,354.919 301.784,356.585 301.5,358.5C 300.5,359.833 299.5,359.833 298.5,358.5C 300.256,357.448 300.923,355.781 300.5,353.5 Z"/></g>
<g><path style="opacity:1" fill="#221a27" d="M 323.5,351.5 C 326.95,350.756 328.616,352.09 328.5,355.5C 326.234,355.141 324.401,355.808 323,357.5C 322.322,355.402 322.489,353.402 323.5,351.5 Z"/></g>
<g><path style="opacity:1" fill="#ebf0e3" d="M 324.5,352.5 C 325.756,352.461 326.756,352.961 327.5,354C 326.167,354.667 324.833,354.667 323.5,354C 324.056,353.617 324.389,353.117 324.5,352.5 Z"/></g>
<g><path style="opacity:1" fill="#542a27" d="M 343.5,352.5 C 341.516,352.484 340.516,353.484 340.5,355.5C 340.59,357.425 341.59,358.592 343.5,359C 342.216,359.684 341.049,359.517 340,358.5C 339.333,356.5 339.333,354.5 340,352.5C 341.292,351.209 342.458,351.209 343.5,352.5 Z"/></g>
<g><path style="opacity:1" fill="#431419" d="M 343.5,352.5 C 344.117,352.389 344.617,352.056 345,351.5C 345.667,354.833 345.667,358.167 345,361.5C 344.741,358.413 344.241,355.413 343.5,352.5 Z"/></g>
<g><path style="opacity:1" fill="#390e2f" d="M 350.5,352.5 C 349.79,354.746 349.29,357.08 349,359.5C 348.333,355.833 348.333,352.167 349,348.5C 349.21,350.058 349.71,351.391 350.5,352.5 Z"/></g>
<g><path style="opacity:1" fill="#2a2857" d="M 388.5,358.5 C 387.081,359.451 385.415,359.784 383.5,359.5C 382.943,354.546 383.276,351.879 384.5,351.5C 386.144,351.286 387.644,351.62 389,352.5C 389.789,354.712 389.622,356.712 388.5,358.5 Z"/></g>
<g><path style="opacity:1" fill="#e4daca" d="M 388.5,358.5 C 384.929,358.592 383.762,356.926 385,353.5C 386,352.167 387,352.167 388,353.5C 388.494,355.134 388.66,356.801 388.5,358.5 Z"/></g>
<g><path style="opacity:1" fill="#e8d9c4" d="M 110.5,350.5 C 110.813,353.247 110.48,355.914 109.5,358.5C 108.009,357.652 107.342,356.319 107.5,354.5C 107.11,352.018 108.11,350.685 110.5,350.5 Z"/></g>
<g><path style="opacity:1" fill="#e8dbcf" d="M 241.5,358.5 C 240.167,358.5 238.833,358.5 237.5,358.5C 237.5,357.167 237.5,355.833 237.5,354.5C 240.5,354.167 241.833,355.5 241.5,358.5 Z"/></g>
<g><path style="opacity:1" fill="#9f622a" d="M 271.5,358.5 C 271.833,358.5 272.167,358.5 272.5,358.5C 274.308,357.082 274.975,355.082 274.5,352.5C 274.5,352.167 274.5,351.833 274.5,351.5C 275.724,351.879 276.057,354.546 275.5,359.5C 273.901,359.768 272.568,359.434 271.5,358.5 Z"/></g>
<g><path style="opacity:1" fill="#2a2862" d="M 350.5,352.5 C 351.542,351.209 352.708,351.209 354,352.5C 354.667,354.833 354.667,357.167 354,359.5C 353.667,357.5 353.333,355.5 353,353.5C 352.329,352.748 351.496,352.414 350.5,352.5 Z"/></g>
<g><path style="opacity:1" fill="#261332" d="M 41.5,352.5 C 42.5382,358.31 42.5382,359.31 41.5,355.5C 39.0885,355.137 37.5885,356.137 37,358.5C 36.8333,358 36.6667,357.5 36.5,357C 38.0898,355.368 39.7564,353.868 41.5,352.5 Z"/></g>
<g><path style="opacity:1" fill="#464c64" d="M 97.5,350.5 C 104.831,350.101 105.498,352.601 99.5,358C 100.833,358.333 102.167,358.667 103.5,359C 101.421,359.808 99.4213,359.641 97.5,358.5C 99.0413,356.796 100.375,354.963 101.5,353C 100.968,350.98 99.6348,350.147 97.5,350.5 Z"/></g>
<g><path style="opacity:1" fill="#5576b0" d="M 126.5,353.5 C 127.844,355.185 127.677,356.852 126,358.5C 126.019,356.893 126.185,355.226 126.5,353.5 Z"/></g>
<g><path style="opacity:1" fill="#5a5966" d="M 141.5,355.5 C 143.827,355.247 145.827,355.914 147.5,357.5C 145.253,358.065 143.253,357.399 141.5,355.5 Z"/></g>
<g><path style="opacity:1" fill="#dba566" d="M 314.5,356.5 C 314.5,357.5 314.5,358.5 314.5,359.5C 313.028,357.883 312.361,355.883 312.5,353.5C 312.667,352.167 312.833,350.833 313,349.5C 313.29,351.92 313.79,354.254 314.5,356.5 Z"/></g>
<g><path style="opacity:1" fill="#48396b" d="M 168.5,357.5 C 170.337,357.639 170.67,358.306 169.5,359.5C 168.702,359.043 168.369,358.376 168.5,357.5 Z"/></g>
<g><path style="opacity:1" fill="#345c8f" d="M 177.5,357.5 C 179.337,357.639 179.67,358.306 178.5,359.5C 177.702,359.043 177.369,358.376 177.5,357.5 Z"/></g>
<g><path style="opacity:1" fill="#7e7e9f" d="M 204.5,354.5 C 204.246,357.014 203.413,359.348 202,361.5C 201.167,358.522 202,356.189 204.5,354.5 Z"/></g>
<g><path style="opacity:1" fill="#3c3d64" d="M 318.5,351.5 C 318.5,353.167 318.5,354.833 318.5,356.5C 317.732,355.737 317.232,354.737 317,353.5C 316.963,355.974 316.13,357.974 314.5,359.5C 314.5,358.5 314.5,357.5 314.5,356.5C 315.451,355.081 315.784,353.415 315.5,351.5C 316.5,351.5 317.5,351.5 318.5,351.5 Z"/></g>
<g><path style="opacity:1" fill="#3d649b" d="M 320.5,352.5 C 320.808,354.924 320.474,357.257 319.5,359.5C 318.614,358.675 318.281,357.675 318.5,356.5C 319.167,355.167 319.833,353.833 320.5,352.5 Z"/></g>
<g><path style="opacity:1" fill="#314877" d="M 214.5,352.5 C 211.487,353.356 210.82,355.189 212.5,358C 213.449,358.617 214.282,358.451 215,357.5C 215.49,356.207 215.657,354.873 215.5,353.5C 217.69,358.327 216.023,360.327 210.5,359.5C 209.943,354.546 210.276,351.879 211.5,351.5C 212.791,351.263 213.791,351.596 214.5,352.5 Z"/></g>
<g><path style="opacity:1" fill="#3e303b" d="M 261.5,352.5 C 263.369,354.576 265.536,354.909 268,353.5C 268.167,353.833 268.333,354.167 268.5,354.5C 262.428,355.478 262.094,356.978 267.5,359C 262.671,359.668 260.671,357.501 261.5,352.5 Z"/></g>
<g><path style="opacity:1" fill="#484867" d="M 327.5,357.5 C 328.043,357.56 328.376,357.893 328.5,358.5C 327.277,359.614 325.944,359.781 324.5,359C 325.737,358.768 326.737,358.268 327.5,357.5 Z"/></g>
<g><path style="opacity:1" fill="#805650" d="M 45.5,351.5 C 46.9265,353.148 47.7599,355.148 48,357.5C 48.6543,356.304 49.1543,356.304 49.5,357.5C 49.047,359.565 48.047,361.232 46.5,362.5C 46.5632,359.082 46.2299,355.415 45.5,351.5 Z"/></g>
<g><path style="opacity:1" fill="#6f607b" d="M 36.5,364.5 C 38.0481,364.821 38.7148,365.821 38.5,367.5C 42.5,367.833 42.5,368.167 38.5,368.5C 38.8076,370.924 38.4742,373.257 37.5,375.5C 36.5108,371.893 36.1774,368.226 36.5,364.5 Z"/></g>
<g><path style="opacity:1" fill="#343046" d="M 296.5,366.5 C 297.946,365.387 299.613,365.22 301.5,366C 302.022,366.561 302.355,367.228 302.5,368C 302.172,370.025 302.006,372.191 302,374.5C 300.274,375.576 298.441,375.743 296.5,375C 298.619,374.902 300.286,374.069 301.5,372.5C 300.91,371.201 299.91,370.368 298.5,370C 299.973,369.29 300.64,368.124 300.5,366.5C 299.167,366.5 297.833,366.5 296.5,366.5 Z"/></g>
<g><path style="opacity:1" fill="#584658" d="M 101.5,367.5 C 100.25,367.577 99.4169,368.244 99,369.5C 98.51,368.207 98.3433,366.873 98.5,365.5C 100.179,365.285 101.179,365.952 101.5,367.5 Z"/></g>
<g><path style="opacity:1" fill="#190927" d="M 64.5,365.5 C 65.5336,366.687 66.867,367.52 68.5,368C 67.552,368.483 66.552,368.649 65.5,368.5C 65.6621,370.527 65.4955,372.527 65,374.5C 64.9326,371.953 64.0993,369.786 62.5,368C 63.756,367.583 64.4226,366.75 64.5,365.5 Z"/></g>
<g><path style="opacity:1" fill="#393d68" d="M 253.5,367.5 C 259.204,367.146 261.037,369.813 259,375.5C 257.333,366.167 255.667,366.167 254,375.5C 253.503,372.854 253.336,370.187 253.5,367.5 Z"/></g>
<g><path style="opacity:1" fill="#4e2620" d="M 262.5,374.5 C 261.378,372.712 261.211,370.712 262,368.5C 263.356,367.62 264.856,367.286 266.5,367.5C 267.724,367.879 268.057,370.546 267.5,375.5C 265.585,375.784 263.919,375.451 262.5,374.5 Z"/></g>
<g><path style="opacity:1" fill="#304882" d="M 366.5,367.5 C 366.98,370.166 367.98,372.666 369.5,375C 368.552,375.483 367.552,375.649 366.5,375.5C 366.5,372.833 366.5,370.167 366.5,367.5 Z"/></g>
<g><path style="opacity:1" fill="#985c20" d="M 179.5,365.5 C 179.795,367.735 179.461,369.735 178.5,371.5C 178.714,369.856 178.38,368.356 177.5,367C 178.044,366.283 178.711,365.783 179.5,365.5 Z"/></g>
<g><path style="opacity:1" fill="#322e44" d="M 184.5,365.5 C 190.324,365.347 190.657,366.013 185.5,367.5C 190.348,368.769 191.348,371.269 188.5,375C 186.833,375.667 185.167,375.667 183.5,375C 187.638,375.218 188.972,373.552 187.5,370C 186.552,369.517 185.552,369.351 184.5,369.5C 184.5,368.167 184.5,366.833 184.5,365.5 Z"/></g>
<g><path style="opacity:1" fill="#331f21" d="M 206.5,370.5 C 206.737,371.791 206.404,372.791 205.5,373.5C 205.833,370.5 204.5,369.167 201.5,369.5C 201.5,368.167 201.5,366.833 201.5,365.5C 207.324,365.347 207.657,366.013 202.5,367.5C 204.184,368.15 205.517,369.15 206.5,370.5 Z"/></g>
<g><path style="opacity:1" fill="#322e44" d="M 210.5,365.5 C 216.324,365.347 216.657,366.013 211.5,367.5C 216.348,368.769 217.348,371.269 214.5,375C 212.833,375.667 211.167,375.667 209.5,375C 213.638,375.218 214.972,373.552 213.5,370C 212.552,369.517 211.552,369.351 210.5,369.5C 210.5,368.167 210.5,366.833 210.5,365.5 Z"/></g>
<g><path style="opacity:1" fill="#985c20" d="M 335.5,365.5 C 335.795,367.735 335.461,369.735 334.5,371.5C 334.714,369.856 334.38,368.356 333.5,367C 334.044,366.283 334.711,365.783 335.5,365.5 Z"/></g>
<g><path style="opacity:1" fill="#54455f" d="M 29.5,365.5 C 34.5388,365.451 34.7055,366.118 30,367.5C 28.5388,371.436 29.7054,373.936 33.5,375C 28.0081,375.486 26.1747,372.986 28,367.5C 28.7172,366.956 29.2172,366.289 29.5,365.5 Z"/></g>
<g><path style="opacity:1" fill="#668bbd" d="M 122.5,367.5 C 123.935,368.913 124.935,370.58 125.5,372.5C 125.737,373.791 125.404,374.791 124.5,375.5C 123.629,372.888 122.963,370.221 122.5,367.5 Z"/></g>
<g><path style="opacity:1" fill="#dadcdd" d="M 262.5,374.5 C 262.051,372.023 262.717,370.023 264.5,368.5C 266.283,370.023 266.949,372.023 266.5,374.5C 265.167,374.5 263.833,374.5 262.5,374.5 Z"/></g>
<g><path style="opacity:1" fill="#7d7989" d="M 304.5,365.5 C 310.735,365.227 312.902,368.227 311,374.5C 309.274,375.576 307.441,375.743 305.5,375C 306.793,374.51 308.127,374.343 309.5,374.5C 309.5,373.5 309.5,372.5 309.5,371.5C 305.665,370.996 305.665,369.996 309.5,368.5C 307.345,367.999 305.678,366.999 304.5,365.5 Z"/></g>
<g><path style="opacity:1" fill="#8e94b5" d="M 325.5,371.5 C 324.5,371.5 323.5,371.5 322.5,371.5C 324.354,366.579 325.354,366.579 325.5,371.5 Z"/></g>
<g><path style="opacity:1" fill="#ecd8c5" d="M 361.5,368.5 C 362.167,368.5 362.5,368.833 362.5,369.5C 362.657,370.873 362.49,372.207 362,373.5C 361.282,374.451 360.449,374.617 359.5,374C 357.82,371.189 358.487,369.356 361.5,368.5 Z"/></g>
<g><path style="opacity:1" fill="#eeefe5" d="M 387.5,368.5 C 387.5,370.5 387.5,372.5 387.5,374.5C 386.5,374.5 385.5,374.5 384.5,374.5C 384.5,372.5 384.5,370.5 384.5,368.5C 385.5,368.5 386.5,368.5 387.5,368.5 Z"/></g>
<g><path style="opacity:1" fill="#393d5c" d="M 106.5,368.5 C 107.919,367.549 109.585,367.216 111.5,367.5C 111.716,369.681 110.883,371.347 109,372.5C 108.493,371.004 108.993,369.837 110.5,369C 109.207,368.51 107.873,368.343 106.5,368.5 Z"/></g>
<g><path style="opacity:1" fill="#2e4479" d="M 141.5,364.5 C 142.309,366.292 142.809,368.292 143,370.5C 144.113,368.671 145.613,367.837 147.5,368C 146.107,369.171 145.273,370.671 145,372.5C 144.586,372.043 144.086,371.709 143.5,371.5C 142.719,372.729 142.219,374.062 142,375.5C 141.501,371.848 141.335,368.182 141.5,364.5 Z"/></g>
<g><path style="opacity:1" fill="#305391" d="M 151.5,368.5 C 152.542,367.209 153.708,367.209 155,368.5C 155.667,370.833 155.667,373.167 155,375.5C 154.667,373.5 154.333,371.5 154,369.5C 153.329,368.748 152.496,368.414 151.5,368.5 Z"/></g>
<g><path style="opacity:1" fill="#4f404a" d="M 271.5,367.5 C 276.041,367.331 276.374,367.998 272.5,369.5C 273.32,371.111 274.654,371.778 276.5,371.5C 276.22,375.225 274.22,376.392 270.5,375C 271.938,374.781 273.271,374.281 274.5,373.5C 272.947,372.561 271.613,371.394 270.5,370C 270.743,369.098 271.077,368.265 271.5,367.5 Z"/></g>
<g><path style="opacity:1" fill="#351830" d="M 348.5,367.5 C 350.199,367.34 351.866,367.506 353.5,368C 352.234,368.309 351.067,368.809 350,369.5C 350.992,372.57 350.659,375.57 349,378.5C 348.501,374.848 348.335,371.182 348.5,367.5 Z"/></g>
<g><path style="opacity:1" fill="#3e1c32" d="M 374.5,367.5 C 376.199,367.34 377.866,367.506 379.5,368C 378.234,368.309 377.067,368.809 376,369.5C 375.667,371.5 375.333,373.5 375,375.5C 374.503,372.854 374.336,370.187 374.5,367.5 Z"/></g>
<g><path style="opacity:1" fill="#0d2a74" d="M 55.5,367.5 C 56.2891,367.783 56.9558,368.283 57.5,369C 56.7362,371.069 56.2362,373.236 56,375.5C 55.5026,372.854 55.3359,370.187 55.5,367.5 Z"/></g>
<g><path style="opacity:1" fill="#383957" d="M 101.5,367.5 C 102.67,369.65 103.67,371.984 104.5,374.5C 104.167,374.833 103.833,375.167 103.5,375.5C 102.614,374.675 102.281,373.675 102.5,372.5C 100.712,372.785 99.0453,372.452 97.5,371.5C 98.5575,371.094 99.8908,371.094 101.5,371.5C 101.5,370.167 101.5,368.833 101.5,367.5 Z"/></g>
<g><path style="opacity:1" fill="#56507a" d="M 127.5,373.5 C 126.833,373.167 126.167,372.833 125.5,372.5C 126.268,368.861 126.934,369.194 127.5,373.5 Z"/></g>
<g><path style="opacity:1" fill="#0c226d" d="M 151.5,368.5 C 150.79,370.746 150.29,373.08 150,375.5C 149.333,371.833 149.333,368.167 150,364.5C 150.21,366.058 150.71,367.391 151.5,368.5 Z"/></g>
<g><path style="opacity:1" fill="#302c4d" d="M 179.5,365.5 C 181.111,368.806 181.278,372.14 180,375.5C 179.517,374.552 179.351,373.552 179.5,372.5C 174.504,372.93 173.67,371.597 177,368.5C 177.617,369.449 177.451,370.282 176.5,371C 177.094,371.464 177.761,371.631 178.5,371.5C 179.461,369.735 179.795,367.735 179.5,365.5 Z"/></g>
<g><path style="opacity:1" fill="#120726" d="M 322.5,371.5 C 323.5,371.5 324.5,371.5 325.5,371.5C 326.309,369.708 326.809,367.708 327,365.5C 328.169,369.01 328.169,372.343 327,375.5C 326.517,374.552 326.351,373.552 326.5,372.5C 324.901,372.768 323.568,372.434 322.5,371.5 Z"/></g>
<g><path style="opacity:1" fill="#302c4d" d="M 335.5,365.5 C 337.111,368.806 337.278,372.14 336,375.5C 335.517,374.552 335.351,373.552 335.5,372.5C 330.504,372.93 329.67,371.597 333,368.5C 333.617,369.449 333.451,370.282 332.5,371C 333.094,371.464 333.761,371.631 334.5,371.5C 335.461,369.735 335.795,367.735 335.5,365.5 Z"/></g>
<g><path style="opacity:1" fill="#3b5389" d="M 387.5,367.5 C 387.5,367.833 387.5,368.167 387.5,368.5C 386.5,368.5 385.5,368.5 384.5,368.5C 384.5,370.5 384.5,372.5 384.5,374.5C 383.532,372.393 383.198,370.059 383.5,367.5C 384.833,367.5 386.167,367.5 387.5,367.5 Z"/></g>
<g><path style="opacity:1" fill="#723810" d="M 384.5,374.5 C 385.5,374.5 386.5,374.5 387.5,374.5C 387.5,372.5 387.5,370.5 387.5,368.5C 387.5,368.167 387.5,367.833 387.5,367.5C 388.724,367.879 389.057,370.546 388.5,375.5C 386.901,375.768 385.568,375.434 384.5,374.5 Z"/></g>
<g><path style="opacity:1" fill="#59474a" d="M 392.5,367.5 C 397.041,367.331 397.374,367.998 393.5,369.5C 397.021,370.15 398.021,371.983 396.5,375C 391.999,375.663 391.665,375.163 395.5,373.5C 393.022,372.278 392.022,370.278 392.5,367.5 Z"/></g>
<g><path style="opacity:1" fill="#261332" d="M 119.5,368.5 C 120.538,374.31 120.538,375.31 119.5,371.5C 117.089,371.137 115.589,372.137 115,374.5C 114.833,374 114.667,373.5 114.5,373C 116.09,371.368 117.756,369.868 119.5,368.5 Z"/></g>
<g><path style="opacity:1" fill="#452925" d="M 136.5,368.5 C 137.468,370.607 137.802,372.941 137.5,375.5C 135.833,375.5 134.167,375.5 132.5,375.5C 132.5,373.833 132.5,372.167 132.5,370.5C 134.483,370.843 135.817,370.176 136.5,368.5 Z"/></g>
<g><path style="opacity:1" fill="#f4eddd" d="M 133.5,371.5 C 134.5,371.5 135.5,371.5 136.5,371.5C 136.5,372.5 136.5,373.5 136.5,374.5C 135.5,374.5 134.5,374.5 133.5,374.5C 133.5,373.5 133.5,372.5 133.5,371.5 Z"/></g>
<g><path style="opacity:1" fill="#c58c52" d="M 122.5,367.5 C 122.963,370.221 123.629,372.888 124.5,375.5C 122.955,374.77 122.122,373.437 122,371.5C 121.235,369.934 121.402,368.601 122.5,367.5 Z"/></g>
<g><path style="opacity:1" fill="#3d5995" d="M 127.5,373.5 C 128.268,372.737 128.768,371.737 129,370.5C 129.798,372.259 129.631,373.926 128.5,375.5C 127.702,375.043 127.369,374.376 127.5,373.5 Z"/></g>
<g><path style="opacity:1" fill="#716d7e" d="M 206.5,370.5 C 207.801,371.884 207.801,373.384 206.5,375C 204.421,375.808 202.421,375.641 200.5,374.5C 202.045,373.548 203.712,373.215 205.5,373.5C 206.404,372.791 206.737,371.791 206.5,370.5 Z"/></g>
<g><path style="opacity:1" fill="#573e43" d="M 49.5,368.5 C 51.3435,370.279 52.0102,372.612 51.5,375.5C 49.5,375.5 47.5,375.5 45.5,375.5C 45.5,373.833 45.5,372.167 45.5,370.5C 47.4832,370.843 48.8166,370.176 49.5,368.5 Z"/></g>
<g><path style="opacity:1" fill="#f3eee4" d="M 46.5,371.5 C 47.5,371.5 48.5,371.5 49.5,371.5C 49.5,372.5 49.5,373.5 49.5,374.5C 48.5,374.5 47.5,374.5 46.5,374.5C 46.5,373.5 46.5,372.5 46.5,371.5 Z"/></g>
<g><path style="opacity:1" fill="#08020e" d="M 106.5,373.5 C 108.086,374.148 109.753,374.648 111.5,375C 110.667,375.167 109.833,375.333 109,375.5C 107.624,375.316 106.791,374.649 106.5,373.5 Z"/></g>
<g><path style="opacity:1" fill="#38365f" d="M 227.5,367.5 C 233.313,367.062 234.98,369.562 232.5,375C 231.207,375.49 229.873,375.657 228.5,375.5C 227.276,375.121 226.943,372.454 227.5,367.5 Z"/></g>
<g><path style="opacity:1" fill="#eee4d3" d="M 229.5,368.5 C 231.484,368.484 232.484,369.484 232.5,371.5C 231.167,375.5 229.833,375.5 228.5,371.5C 228.685,370.416 229.018,369.416 229.5,368.5 Z"/></g>
<g><path style="opacity:1" fill="#614b5c" d="M 240.5,368.5 C 242.719,370.065 243.052,372.065 241.5,374.5C 235.916,376.34 234.083,374.34 236,368.5C 237.616,367.199 239.116,367.199 240.5,368.5 Z"/></g>
<g><path style="opacity:1" fill="#f2eee3" d="M 240.5,368.5 C 240.799,370.604 240.466,372.604 239.5,374.5C 237.717,372.977 237.051,370.977 237.5,368.5C 238.5,368.5 239.5,368.5 240.5,368.5 Z"/></g>
<g><path style="opacity:1" fill="#744d4b" d="M 248.5,367.5 C 250.369,369.635 251.036,372.302 250.5,375.5C 248.801,375.66 247.134,375.494 245.5,375C 246.448,374.517 247.448,374.351 248.5,374.5C 248.5,372.167 248.5,369.833 248.5,367.5 Z"/></g>
<g><path style="opacity:1" fill="#394775" d="M 361.5,368.5 C 358.487,369.356 357.82,371.189 359.5,374C 360.449,374.617 361.282,374.451 362,373.5C 362.49,372.207 362.657,370.873 362.5,369.5C 364.601,373.831 363.267,375.664 358.5,375C 357.409,372.936 357.242,370.769 358,368.5C 359.292,367.209 360.458,367.209 361.5,368.5 Z"/></g>
<g><path style="opacity:1" fill="#3c588d" d="M 281.5,373.5 C 282.376,373.369 283.043,373.702 283.5,374.5C 281.993,378.355 281.326,378.021 281.5,373.5 Z"/></g>
<g><path style="opacity:1" fill="#390c28" d="M 86.5,380.5 C 86.2529,383.939 86.5863,387.272 87.5,390.5C 86.8826,390.611 86.3826,390.944 86,391.5C 85.1901,387.642 85.3567,383.976 86.5,380.5 Z"/></g>
<g><path style="opacity:1" fill="#110f23" d="M 64.5,382.5 C 63.1667,382.5 61.8333,382.5 60.5,382.5C 60.5,383.5 60.5,384.5 60.5,385.5C 61.8333,385.5 63.1667,385.5 64.5,385.5C 64.5,385.833 64.5,386.167 64.5,386.5C 63.1667,386.5 61.8333,386.5 60.5,386.5C 60.5,387.833 60.5,389.167 60.5,390.5C 61.8333,390.5 63.1667,390.5 64.5,390.5C 63.0813,391.451 61.4147,391.784 59.5,391.5C 59.5,388.167 59.5,384.833 59.5,381.5C 61.4147,381.216 63.0813,381.549 64.5,382.5 Z"/></g>
<g><path style="opacity:1" fill="#343046" d="M 137.5,382.5 C 138.946,381.387 140.613,381.22 142.5,382C 143.022,382.561 143.355,383.228 143.5,384C 143.172,386.025 143.006,388.191 143,390.5C 141.274,391.576 139.441,391.743 137.5,391C 139.619,390.902 141.286,390.069 142.5,388.5C 141.91,387.201 140.91,386.368 139.5,386C 140.973,385.29 141.64,384.124 141.5,382.5C 140.167,382.5 138.833,382.5 137.5,382.5 Z"/></g>
<g><path style="opacity:1" fill="#2b2631" d="M 164.5,383.5 C 165.204,381.656 166.537,381.156 168.5,382C 167.099,382.41 165.766,382.91 164.5,383.5 Z"/></g>
<g><path style="opacity:1" fill="#322533" d="M 259.5,382.5 C 260.601,381.402 261.934,381.235 263.5,382C 264.022,382.561 264.355,383.228 264.5,384C 264.172,386.025 264.006,388.191 264,390.5C 262.274,391.576 260.441,391.743 258.5,391C 260.619,390.902 262.286,390.069 263.5,388.5C 262.91,387.201 261.91,386.368 260.5,386C 261.973,385.29 262.64,384.124 262.5,382.5C 261.5,382.5 260.5,382.5 259.5,382.5 Z"/></g>
<g><path style="opacity:1" fill="#2d1013" d="M 271.5,385.5 C 270.167,385.5 268.833,385.5 267.5,385.5C 267.5,384.167 267.5,382.833 267.5,381.5C 273.324,381.347 273.657,382.013 268.5,383.5C 269.602,384.176 270.602,384.842 271.5,385.5 Z"/></g>
<g><path style="opacity:1" fill="#2d1013" d="M 297.5,385.5 C 296.167,385.5 294.833,385.5 293.5,385.5C 293.5,384.167 293.5,382.833 293.5,381.5C 299.324,381.347 299.657,382.013 294.5,383.5C 295.602,384.176 296.602,384.842 297.5,385.5 Z"/></g>
<g><path style="opacity:1" fill="#bbb0b3" d="M 64.5,382.5 C 65.8333,383.5 65.8333,384.5 64.5,385.5C 63.1667,385.5 61.8333,385.5 60.5,385.5C 60.5,384.5 60.5,383.5 60.5,382.5C 61.8333,382.5 63.1667,382.5 64.5,382.5 Z"/></g>
<g><path style="opacity:1" fill="#3c253a" d="M 87.5,383.5 C 88.8221,383.33 89.9887,383.663 91,384.5C 91.7891,386.712 91.6225,388.712 90.5,390.5C 90.7845,388.585 90.4511,386.919 89.5,385.5C 88.8333,384.833 88.1667,384.167 87.5,383.5 Z"/></g>
<g><path style="opacity:1" fill="#44323d" d="M 95.5,383.5 C 98.9496,382.756 100.616,384.09 100.5,387.5C 94.3036,387.574 93.9703,388.741 99.5,391C 93.4123,391.084 92.079,388.584 95.5,383.5 Z"/></g>
<g><path style="opacity:1" fill="#190927" d="M 104.5,381.5 C 105.534,382.687 106.867,383.52 108.5,384C 107.552,384.483 106.552,384.649 105.5,384.5C 105.662,386.527 105.495,388.527 105,390.5C 104.933,387.953 104.099,385.786 102.5,384C 103.756,383.583 104.423,382.75 104.5,381.5 Z"/></g>
<g><path style="opacity:1" fill="#473c61" d="M 207.5,383.5 C 208.165,385.698 208.832,388.031 209.5,390.5C 210.086,390.291 210.586,389.957 211,389.5C 211.333,387.5 211.667,385.5 212,383.5C 212.497,386.146 212.664,388.813 212.5,391.5C 210.833,391.5 209.167,391.5 207.5,391.5C 207.5,388.833 207.5,386.167 207.5,383.5 Z"/></g>
<g><path style="opacity:1" fill="#304882" d="M 328.5,383.5 C 328.98,386.166 329.98,388.666 331.5,391C 330.552,391.483 329.552,391.649 328.5,391.5C 328.5,388.833 328.5,386.167 328.5,383.5 Z"/></g>
<g><path style="opacity:1" fill="#345c8f" d="M 44.5,384.5 C 46.337,384.639 46.6704,385.306 45.5,386.5C 44.7025,386.043 44.3691,385.376 44.5,384.5 Z"/></g>
<g><path style="opacity:1" fill="#685260" d="M 77.5,383.5 C 79.604,383.201 81.604,383.534 83.5,384.5C 82.4699,384.554 81.3033,384.888 80,385.5C 79.8078,387.577 79.3078,389.577 78.5,391.5C 77.52,388.914 77.1866,386.247 77.5,383.5 Z"/></g>
<g><path style="opacity:1" fill="#331f21" d="M 151.5,386.5 C 151.737,387.791 151.404,388.791 150.5,389.5C 150.833,386.5 149.5,385.167 146.5,385.5C 146.5,384.167 146.5,382.833 146.5,381.5C 152.324,381.347 152.657,382.013 147.5,383.5C 149.184,384.15 150.517,385.15 151.5,386.5 Z"/></g>
<g><path style="opacity:1" fill="#331f21" d="M 177.5,386.5 C 177.737,387.791 177.404,388.791 176.5,389.5C 176.833,386.5 175.5,385.167 172.5,385.5C 172.5,384.167 172.5,382.833 172.5,381.5C 178.324,381.347 178.657,382.013 173.5,383.5C 175.184,384.15 176.517,385.15 177.5,386.5 Z"/></g>
<g><path style="opacity:1" fill="#48396b" d="M 373.5,384.5 C 375.337,384.639 375.67,385.306 374.5,386.5C 373.702,386.043 373.369,385.376 373.5,384.5 Z"/></g>
<g><path style="opacity:1" fill="#f4e7d6" d="M 96.5,384.5 C 97.7562,384.461 98.7562,384.961 99.5,386C 98.1667,386.667 96.8333,386.667 95.5,386C 96.056,385.617 96.3893,385.117 96.5,384.5 Z"/></g>
<g><path style="opacity:1" fill="#ecd8c5" d="M 202.5,384.5 C 203.167,384.5 203.5,384.833 203.5,385.5C 203.657,386.873 203.49,388.207 203,389.5C 202.282,390.451 201.449,390.617 200.5,390C 198.82,387.189 199.487,385.356 202.5,384.5 Z"/></g>
<g><path style="opacity:1" fill="#eeefe5" d="M 228.5,384.5 C 228.5,386.5 228.5,388.5 228.5,390.5C 227.5,390.5 226.5,390.5 225.5,390.5C 225.5,388.5 225.5,386.5 225.5,384.5C 226.5,384.5 227.5,384.5 228.5,384.5 Z"/></g>
<g><path style="opacity:1" fill="#aa8772" d="M 267.5,385.5 C 268.833,385.5 270.167,385.5 271.5,385.5C 272.167,385.5 272.5,385.833 272.5,386.5C 272.737,387.791 272.404,388.791 271.5,389.5C 271.5,388.5 271.5,387.5 271.5,386.5C 269.901,386.768 268.568,386.434 267.5,385.5 Z"/></g>
<g><path style="opacity:1" fill="#594243" d="M 286.5,381.5 C 287.978,381.238 289.311,381.571 290.5,382.5C 289.174,382.205 287.841,382.705 286.5,384C 290.19,384.69 291.357,386.857 290,390.5C 288.951,391.517 287.784,391.684 286.5,391C 288.56,389.507 288.893,387.674 287.5,385.5C 286.029,386.381 285.196,387.714 285,389.5C 284.133,386.479 284.633,383.812 286.5,381.5 Z"/></g>
<g><path style="opacity:1" fill="#aa8772" d="M 293.5,385.5 C 294.833,385.5 296.167,385.5 297.5,385.5C 298.167,385.5 298.5,385.833 298.5,386.5C 298.737,387.791 298.404,388.791 297.5,389.5C 297.5,388.5 297.5,387.5 297.5,386.5C 295.901,386.768 294.568,386.434 293.5,385.5 Z"/></g>
<g><path style="opacity:1" fill="#f2f5ed" d="M 349.5,384.5 C 349.975,387.082 349.308,389.082 347.5,390.5C 345.734,387.533 346.401,385.533 349.5,384.5 Z"/></g>
<g><path style="opacity:1" fill="#a0c9ea" d="M 86.5,380.5 C 87.404,381.209 87.7373,382.209 87.5,383.5C 88.1667,384.167 88.8333,384.833 89.5,385.5C 89.9227,387.781 89.256,389.448 87.5,390.5C 86.5863,387.272 86.2529,383.939 86.5,380.5 Z"/></g>
<g><path style="opacity:1" fill="#af8e60" d="M 89.5,385.5 C 90.4511,386.919 90.7845,388.585 90.5,390.5C 89.5,391.833 88.5,391.833 87.5,390.5C 89.256,389.448 89.9227,387.781 89.5,385.5 Z"/></g>
<g><path style="opacity:1" fill="#4f404a" d="M 112.5,383.5 C 117.041,383.331 117.374,383.998 113.5,385.5C 114.32,387.111 115.654,387.778 117.5,387.5C 117.22,391.225 115.22,392.392 111.5,391C 112.938,390.781 114.271,390.281 115.5,389.5C 113.947,388.561 112.613,387.394 111.5,386C 111.743,385.098 112.077,384.265 112.5,383.5 Z"/></g>
<g><path style="opacity:1" fill="#2b2245" d="M 164.5,383.5 C 169.188,383.984 170.521,386.317 168.5,390.5C 168.657,389.127 168.49,387.793 168,386.5C 167.023,385.226 166.189,385.226 165.5,386.5C 164.596,387.209 164.263,388.209 164.5,389.5C 163.167,387.5 163.167,385.5 164.5,383.5 Z"/></g>
<g><path style="opacity:1" fill="#efdcc5" d="M 168.5,390.5 C 166.088,390.306 165.088,388.973 165.5,386.5C 166.189,385.226 167.023,385.226 168,386.5C 168.49,387.793 168.657,389.127 168.5,390.5 Z"/></g>
<g><path style="opacity:1" fill="#351830" d="M 189.5,383.5 C 191.199,383.34 192.866,383.506 194.5,384C 193.234,384.309 192.067,384.809 191,385.5C 191.992,388.57 191.659,391.57 190,394.5C 189.501,390.848 189.335,387.182 189.5,383.5 Z"/></g>
<g><path style="opacity:1" fill="#3e1c32" d="M 215.5,383.5 C 217.199,383.34 218.866,383.506 220.5,384C 219.234,384.309 218.067,384.809 217,385.5C 216.667,387.5 216.333,389.5 216,391.5C 215.503,388.854 215.336,386.187 215.5,383.5 Z"/></g>
<g><path style="opacity:1" fill="#645a76" d="M 315.5,384.5 C 317.377,385.659 317.877,387.326 317,389.5C 315.951,391.107 314.451,391.773 312.5,391.5C 312.719,392.675 312.386,393.675 311.5,394.5C 310.511,390.893 310.177,387.226 310.5,383.5C 312.415,383.216 314.081,383.549 315.5,384.5 Z"/></g>
<g><path style="opacity:1" fill="#f4efe0" d="M 315.5,384.5 C 315.799,386.604 315.466,388.604 314.5,390.5C 312.717,388.977 312.051,386.977 312.5,384.5C 313.5,384.5 314.5,384.5 315.5,384.5 Z"/></g>
<g><path style="opacity:1" fill="#2f2351" d="M 320.5,383.5 C 325.213,383.468 326.713,385.801 325,390.5C 323.99,383.136 322.324,382.802 320,389.5C 319.322,387.402 319.489,385.402 320.5,383.5 Z"/></g>
<g><path style="opacity:1" fill="#6d5f7e" d="M 336.5,383.5 C 338.199,383.34 339.866,383.506 341.5,384C 340.552,384.483 339.552,384.649 338.5,384.5C 338.808,386.924 338.474,389.257 337.5,391.5C 336.52,388.914 336.187,386.247 336.5,383.5 Z"/></g>
<g><path style="opacity:1" fill="#393c70" d="M 349.5,383.5 C 349.5,383.833 349.5,384.167 349.5,384.5C 346.401,385.533 345.734,387.533 347.5,390.5C 347.167,390.5 346.833,390.5 346.5,390.5C 345.378,388.712 345.211,386.712 346,384.5C 347.011,383.663 348.178,383.33 349.5,383.5 Z"/></g>
<g><path style="opacity:1" fill="#beb6b3" d="M 64.5,386.5 C 65.8333,387.833 65.8333,389.167 64.5,390.5C 63.1667,390.5 61.8333,390.5 60.5,390.5C 60.5,389.167 60.5,387.833 60.5,386.5C 61.8333,386.5 63.1667,386.5 64.5,386.5 Z"/></g>
<g><path style="opacity:1" fill="#3b5389" d="M 228.5,383.5 C 228.5,383.833 228.5,384.167 228.5,384.5C 227.5,384.5 226.5,384.5 225.5,384.5C 225.5,386.5 225.5,388.5 225.5,390.5C 224.532,388.393 224.198,386.059 224.5,383.5C 225.833,383.5 227.167,383.5 228.5,383.5 Z"/></g>
<g><path style="opacity:1" fill="#723810" d="M 225.5,390.5 C 226.5,390.5 227.5,390.5 228.5,390.5C 228.5,388.5 228.5,386.5 228.5,384.5C 228.5,384.167 228.5,383.833 228.5,383.5C 229.724,383.879 230.057,386.546 229.5,391.5C 227.901,391.768 226.568,391.434 225.5,390.5 Z"/></g>
<g><path style="opacity:1" fill="#554751" d="M 233.5,383.5 C 238.041,383.331 238.374,383.998 234.5,385.5C 238.021,386.15 239.021,387.983 237.5,391C 232.999,391.663 232.665,391.163 236.5,389.5C 234.022,388.278 233.022,386.278 233.5,383.5 Z"/></g>
<g><path style="opacity:1" fill="#9f622a" d="M 346.5,390.5 C 346.833,390.5 347.167,390.5 347.5,390.5C 349.308,389.082 349.975,387.082 349.5,384.5C 349.5,384.167 349.5,383.833 349.5,383.5C 350.724,383.879 351.057,386.546 350.5,391.5C 348.901,391.768 347.568,391.434 346.5,390.5 Z"/></g>
<g><path style="opacity:1" fill="#59474a" d="M 354.5,383.5 C 359.041,383.331 359.374,383.998 355.5,385.5C 359.021,386.15 360.021,387.983 358.5,391C 353.999,391.663 353.665,391.163 357.5,389.5C 355.022,388.278 354.022,386.278 354.5,383.5 Z"/></g>
<g><path style="opacity:1" fill="#716d7e" d="M 151.5,386.5 C 152.801,387.884 152.801,389.384 151.5,391C 149.421,391.808 147.421,391.641 145.5,390.5C 147.045,389.548 148.712,389.215 150.5,389.5C 151.404,388.791 151.737,387.791 151.5,386.5 Z"/></g>
<g><path style="opacity:1" fill="#6b8da6" d="M 165.5,386.5 C 165.088,388.973 166.088,390.306 168.5,390.5C 166.872,391.853 165.538,391.519 164.5,389.5C 164.263,388.209 164.596,387.209 165.5,386.5 Z"/></g>
<g><path style="opacity:1" fill="#716d7e" d="M 177.5,386.5 C 178.801,387.884 178.801,389.384 177.5,391C 175.421,391.808 173.421,391.641 171.5,390.5C 173.045,389.548 174.712,389.215 176.5,389.5C 177.404,388.791 177.737,387.791 177.5,386.5 Z"/></g>
<g><path style="opacity:1" fill="#573e43" d="M 72.5,384.5 C 74.3435,386.279 75.0102,388.612 74.5,391.5C 72.5,391.5 70.5,391.5 68.5,391.5C 68.5,389.833 68.5,388.167 68.5,386.5C 70.4832,386.843 71.8166,386.176 72.5,384.5 Z"/></g>
<g><path style="opacity:1" fill="#f3eee4" d="M 69.5,387.5 C 70.5,387.5 71.5,387.5 72.5,387.5C 72.5,388.5 72.5,389.5 72.5,390.5C 71.5,390.5 70.5,390.5 69.5,390.5C 69.5,389.5 69.5,388.5 69.5,387.5 Z"/></g>
<g><path style="opacity:1" fill="#394775" d="M 202.5,384.5 C 199.487,385.356 198.82,387.189 200.5,390C 201.449,390.617 202.282,390.451 203,389.5C 203.49,388.207 203.657,386.873 203.5,385.5C 205.601,389.831 204.267,391.664 199.5,391C 198.409,388.936 198.242,386.769 199,384.5C 200.292,383.209 201.458,383.209 202.5,384.5 Z"/></g>
<g><path style="opacity:1" fill="#374064" d="M 272.5,386.5 C 274.163,391 272.497,392.5 267.5,391C 269.058,390.79 270.391,390.29 271.5,389.5C 272.404,388.791 272.737,387.791 272.5,386.5 Z"/></g>
<g><path style="opacity:1" fill="#374064" d="M 298.5,386.5 C 300.163,391 298.497,392.5 293.5,391C 295.058,390.79 296.391,390.29 297.5,389.5C 298.404,388.791 298.737,387.791 298.5,386.5 Z"/></g>
<g><path style="opacity:1" fill="#3c588d" d="M 44.5,389.5 C 45.3764,389.369 46.0431,389.702 46.5,390.5C 44.9929,394.355 44.3262,394.021 44.5,389.5 Z"/></g>
<g><path style="opacity:1" fill="#3c588d" d="M 122.5,389.5 C 123.376,389.369 124.043,389.702 124.5,390.5C 122.993,394.355 122.326,394.021 122.5,389.5 Z"/></g>
<g><path style="opacity:1" fill="#453866" d="M 243.5,389.5 C 244.376,389.369 245.043,389.702 245.5,390.5C 243.993,394.355 243.326,394.021 243.5,389.5 Z"/></g>
<g><path style="opacity:1" fill="#453866" d="M 373.5,389.5 C 374.376,389.369 375.043,389.702 375.5,390.5C 373.993,394.355 373.326,394.021 373.5,389.5 Z"/></g>
<g><path style="opacity:1" fill="#523a43" d="M 128.5,397.5 C 133.386,396.405 135.052,398.072 133.5,402.5C 132.571,401.311 132.238,399.978 132.5,398.5C 131.178,398.33 130.011,398.663 129,399.5C 128.536,398.906 128.369,398.239 128.5,397.5 Z"/></g>
<g><path style="opacity:1" fill="#523a43" d="M 232.5,397.5 C 237.386,396.405 239.052,398.072 237.5,402.5C 236.571,401.311 236.238,399.978 236.5,398.5C 235.178,398.33 234.011,398.663 233,399.5C 232.536,398.906 232.369,398.239 232.5,397.5 Z"/></g>
<g><path style="opacity:1" fill="#44323d" d="M 69.5,399.5 C 72.9496,398.756 74.6162,400.09 74.5,403.5C 68.3036,403.574 67.9703,404.741 73.5,407C 67.4123,407.084 66.079,404.584 69.5,399.5 Z"/></g>
<g><path style="opacity:1" fill="#46232f" d="M 263.5,406.5 C 263.66,404.801 263.494,403.134 263,401.5C 262.023,400.226 261.189,400.226 260.5,401.5C 259.566,402.568 259.232,403.901 259.5,405.5C 257.327,400.539 258.827,398.872 264,400.5C 264.789,402.712 264.622,404.712 263.5,406.5 Z"/></g>
<g><path style="opacity:1" fill="#393d68" d="M 276.5,399.5 C 282.204,399.146 284.037,401.813 282,407.5C 280.333,398.167 278.667,398.167 277,407.5C 276.503,404.854 276.336,402.187 276.5,399.5 Z"/></g>
<g><path style="opacity:1" fill="#331f38" d="M 288.5,399.5 C 288.5,399.833 288.5,400.167 288.5,400.5C 287.504,400.414 286.671,400.748 286,401.5C 285.667,402.833 285.333,404.167 285,405.5C 283.608,401.78 284.775,399.78 288.5,399.5 Z"/></g>
<g><path style="opacity:1" fill="#322f3d" d="M 367.5,400.5 C 366.041,400.433 364.708,400.766 363.5,401.5C 363.62,400.414 364.287,399.747 365.5,399.5C 366.416,399.543 367.083,399.876 367.5,400.5 Z"/></g>
<g><path style="opacity:1" fill="#1e203e" d="M 373.5,397.5 C 374.534,398.687 375.867,399.52 377.5,400C 376.552,400.483 375.552,400.649 374.5,400.5C 374.5,402.5 374.5,404.5 374.5,406.5C 378.172,407.045 377.838,407.378 373.5,407.5C 373.958,404.606 373.291,402.106 371.5,400C 372.756,399.583 373.423,398.75 373.5,397.5 Z"/></g>
<g><path style="opacity:1" fill="#16104b" d="M 86.5,400.5 C 87.209,399.596 88.209,399.263 89.5,399.5C 89.665,402.85 89.4983,406.183 89,409.5C 89.0704,406.008 88.2371,403.008 86.5,400.5 Z"/></g>
<g><path style="opacity:1" fill="#42160d" d="M 94.5,400.5 C 95.209,399.596 96.209,399.263 97.5,399.5C 97.5,401.833 97.5,404.167 97.5,406.5C 100.263,407.455 99.2627,407.622 94.5,407C 95.6241,406.161 96.2908,404.994 96.5,403.5C 96.3601,401.97 95.6935,400.97 94.5,400.5 Z"/></g>
<g><path style="opacity:1" fill="#5e5361" d="M 199.5,400.5 C 200.708,399.218 202.042,399.218 203.5,400.5C 202.443,400.906 201.109,400.906 199.5,400.5 Z"/></g>
<g><path style="opacity:1" fill="#2a2133" d="M 47.5,406.5 C 46.0813,407.451 44.4147,407.784 42.5,407.5C 42.5,404.167 42.5,400.833 42.5,397.5C 44.4672,397.261 46.3005,397.594 48,398.5C 48.1745,401.192 48.0078,403.859 47.5,406.5 Z"/></g>
<g><path style="opacity:1" fill="#e7ece3" d="M 43.5,398.5 C 44.5,398.5 45.5,398.5 46.5,398.5C 46.5,399.5 46.5,400.5 46.5,401.5C 45.5,401.5 44.5,401.5 43.5,401.5C 43.5,400.5 43.5,399.5 43.5,398.5 Z"/></g>
<g><path style="opacity:1" fill="#f4e7d6" d="M 70.5,400.5 C 71.7562,400.461 72.7562,400.961 73.5,402C 72.1667,402.667 70.8333,402.667 69.5,402C 70.056,401.617 70.3893,401.117 70.5,400.5 Z"/></g>
<g><path style="opacity:1" fill="#8e94b5" d="M 140.5,403.5 C 139.5,403.5 138.5,403.5 137.5,403.5C 139.354,398.579 140.354,398.579 140.5,403.5 Z"/></g>
<g><path style="opacity:1" fill="#f2f5ed" d="M 193.5,400.5 C 193.975,403.082 193.308,405.082 191.5,406.5C 189.734,403.533 190.401,401.533 193.5,400.5 Z"/></g>
<g><path style="opacity:1" fill="#f2ebd8" d="M 263.5,406.5 C 260.916,405.952 259.916,404.285 260.5,401.5C 261.189,400.226 262.023,400.226 263,401.5C 263.494,403.134 263.66,404.801 263.5,406.5 Z"/></g>
<g><path style="opacity:1" fill="#463546" d="M 332.5,398.5 C 333.497,398.47 334.164,398.97 334.5,400C 334.431,402.213 334.097,404.38 333.5,406.5C 331.735,407.461 329.735,407.795 327.5,407.5C 327.5,404.167 327.5,400.833 327.5,397.5C 329.415,397.216 331.081,397.549 332.5,398.5 Z"/></g>
<g><path style="opacity:1" fill="#f2ebde" d="M 332.5,398.5 C 332.5,399.5 332.5,400.5 332.5,401.5C 331.5,401.5 330.5,401.5 329.5,401.5C 329.5,400.5 329.5,399.5 329.5,398.5C 330.5,398.5 331.5,398.5 332.5,398.5 Z"/></g>
<g><path style="opacity:1" fill="#e1e7e2" d="M 367.5,400.5 C 367.38,401.586 366.713,402.253 365.5,402.5C 364.584,402.457 363.917,402.124 363.5,401.5C 364.708,400.766 366.041,400.433 367.5,400.5 Z"/></g>
<g><path style="opacity:1" fill="#4f404a" d="M 60.5,399.5 C 65.0407,399.331 65.374,399.998 61.5,401.5C 62.3202,403.111 63.6536,403.778 65.5,403.5C 65.2204,407.225 63.2204,408.392 59.5,407C 60.938,406.781 62.2713,406.281 63.5,405.5C 61.9466,404.561 60.6133,403.394 59.5,402C 59.7432,401.098 60.0766,400.265 60.5,399.5 Z"/></g>
<g><path style="opacity:1" fill="#6d5f7e" d="M 76.5,399.5 C 78.1992,399.34 79.8659,399.506 81.5,400C 80.552,400.483 79.552,400.649 78.5,400.5C 78.8076,402.924 78.4742,405.257 77.5,407.5C 76.52,404.914 76.1866,402.247 76.5,399.5 Z"/></g>
<g><path style="opacity:1" fill="#645a76" d="M 159.5,400.5 C 161.377,401.659 161.877,403.326 161,405.5C 159.951,407.107 158.451,407.773 156.5,407.5C 156.719,408.675 156.386,409.675 155.5,410.5C 154.511,406.893 154.177,403.226 154.5,399.5C 156.415,399.216 158.081,399.549 159.5,400.5 Z"/></g>
<g><path style="opacity:1" fill="#f4efe0" d="M 159.5,400.5 C 159.799,402.604 159.466,404.604 158.5,406.5C 156.717,404.977 156.051,402.977 156.5,400.5C 157.5,400.5 158.5,400.5 159.5,400.5 Z"/></g>
<g><path style="opacity:1" fill="#2f2351" d="M 164.5,399.5 C 169.213,399.468 170.713,401.801 169,406.5C 167.99,399.136 166.324,398.802 164,405.5C 163.322,403.402 163.489,401.402 164.5,399.5 Z"/></g>
<g><path style="opacity:1" fill="#6d5f7e" d="M 180.5,399.5 C 182.199,399.34 183.866,399.506 185.5,400C 184.552,400.483 183.552,400.649 182.5,400.5C 182.808,402.924 182.474,405.257 181.5,407.5C 180.52,404.914 180.187,402.247 180.5,399.5 Z"/></g>
<g><path style="opacity:1" fill="#393c70" d="M 193.5,399.5 C 193.5,399.833 193.5,400.167 193.5,400.5C 190.401,401.533 189.734,403.533 191.5,406.5C 191.167,406.5 190.833,406.5 190.5,406.5C 189.378,404.712 189.211,402.712 190,400.5C 191.011,399.663 192.178,399.33 193.5,399.5 Z"/></g>
<g><path style="opacity:1" fill="#5f8caf" d="M 260.5,401.5 C 259.916,404.285 260.916,405.952 263.5,406.5C 261.872,407.853 260.538,407.519 259.5,405.5C 259.232,403.901 259.566,402.568 260.5,401.5 Z"/></g>
<g><path style="opacity:1" fill="#4f404a" d="M 294.5,399.5 C 299.041,399.331 299.374,399.998 295.5,401.5C 296.32,403.111 297.654,403.778 299.5,403.5C 299.22,407.225 297.22,408.392 293.5,407C 294.938,406.781 296.271,406.281 297.5,405.5C 295.947,404.561 294.613,403.394 293.5,402C 293.743,401.098 294.077,400.265 294.5,399.5 Z"/></g>
<g><path style="opacity:1" fill="#4f404a" d="M 346.5,399.5 C 351.041,399.331 351.374,399.998 347.5,401.5C 348.32,403.111 349.654,403.778 351.5,403.5C 351.22,407.225 349.22,408.392 345.5,407C 346.938,406.781 348.271,406.281 349.5,405.5C 347.947,404.561 346.613,403.394 345.5,402C 345.743,401.098 346.077,400.265 346.5,399.5 Z"/></g>
<g><path style="opacity:1" fill="#271b2a" d="M 367.5,400.5 C 368.478,400.811 369.145,401.478 369.5,402.5C 367.025,402.964 365.025,403.964 363.5,405.5C 362.167,404.167 362.167,402.833 363.5,401.5C 363.917,402.124 364.584,402.457 365.5,402.5C 366.713,402.253 367.38,401.586 367.5,400.5 Z"/></g>
<g><path style="opacity:1" fill="#e2dacb" d="M 47.5,406.5 C 46.1667,406.5 44.8333,406.5 43.5,406.5C 43.5,405.167 43.5,403.833 43.5,402.5C 46.5,402.167 47.8333,403.5 47.5,406.5 Z"/></g>
<g><path style="opacity:1" fill="#554751" d="M 103.5,399.5 C 108.041,399.331 108.374,399.998 104.5,401.5C 108.021,402.15 109.021,403.983 107.5,407C 102.999,407.663 102.665,407.163 106.5,405.5C 104.022,404.278 103.022,402.278 103.5,399.5 Z"/></g>
<g><path style="opacity:1" fill="#120726" d="M 137.5,403.5 C 138.5,403.5 139.5,403.5 140.5,403.5C 141.309,401.708 141.809,399.708 142,397.5C 143.169,401.01 143.169,404.343 142,407.5C 141.517,406.552 141.351,405.552 141.5,404.5C 139.901,404.768 138.568,404.434 137.5,403.5 Z"/></g>
<g><path style="opacity:1" fill="#9f622a" d="M 190.5,406.5 C 190.833,406.5 191.167,406.5 191.5,406.5C 193.308,405.082 193.975,403.082 193.5,400.5C 193.5,400.167 193.5,399.833 193.5,399.5C 194.724,399.879 195.057,402.546 194.5,407.5C 192.901,407.768 191.568,407.434 190.5,406.5 Z"/></g>
<g><path style="opacity:1" fill="#594547" d="M 199.5,400.5 C 199.787,402.121 200.787,403.121 202.5,403.5C 203.429,404.689 203.762,406.022 203.5,407.5C 197.676,407.653 197.343,406.987 202.5,405.5C 201.372,404.738 200.205,404.071 199,403.5C 198.26,402.251 198.427,401.251 199.5,400.5 Z"/></g>
<g><path style="opacity:1" fill="#916355" d="M 288.5,400.5 C 288.5,400.167 288.5,399.833 288.5,399.5C 288.281,398.325 288.614,397.325 289.5,396.5C 290.489,400.107 290.823,403.774 290.5,407.5C 289.127,407.657 287.793,407.49 286.5,407C 288.25,405.246 288.917,403.079 288.5,400.5 Z"/></g>
<g><path style="opacity:1" fill="#e8dbcf" d="M 333.5,406.5 C 332.167,406.5 330.833,406.5 329.5,406.5C 329.5,405.167 329.5,403.833 329.5,402.5C 332.5,402.167 333.833,403.5 333.5,406.5 Z"/></g>
<g><path style="opacity:1" fill="#59474a" d="M 354.5,399.5 C 359.041,399.331 359.374,399.998 355.5,401.5C 359.021,402.15 360.021,403.983 358.5,407C 353.999,407.663 353.665,407.163 357.5,405.5C 355.022,404.278 354.022,402.278 354.5,399.5 Z"/></g>
<g><path style="opacity:1" fill="#261332" d="M 55.5,400.5 C 56.5382,406.31 56.5382,407.31 55.5,403.5C 53.0885,403.137 51.5885,404.137 51,406.5C 50.8333,406 50.6667,405.5 50.5,405C 52.0898,403.368 53.7564,401.868 55.5,400.5 Z"/></g>
<g><path style="opacity:1" fill="#464c64" d="M 224.5,398.5 C 231.831,398.101 232.498,400.601 226.5,406C 227.833,406.333 229.167,406.667 230.5,407C 228.421,407.808 226.421,407.641 224.5,406.5C 226.041,404.796 227.375,402.963 228.5,401C 227.968,398.98 226.635,398.147 224.5,398.5 Z"/></g>
<g><path style="opacity:1" fill="#261332" d="M 341.5,400.5 C 342.538,406.31 342.538,407.31 341.5,403.5C 339.089,403.137 337.589,404.137 337,406.5C 336.833,406 336.667,405.5 336.5,405C 338.09,403.368 339.756,401.868 341.5,400.5 Z"/></g>
<g><path style="opacity:1" fill="#231720" d="M 129.5,404.5 C 130.045,406.042 131.711,406.875 134.5,407C 132.421,407.808 130.421,407.641 128.5,406.5C 128.863,405.817 129.196,405.15 129.5,404.5 Z"/></g>
<g><path style="opacity:1" fill="#71401d" d="M 176.5,399.5 C 177.473,401.948 177.806,404.615 177.5,407.5C 173.162,407.378 172.828,407.045 176.5,406.5C 176.5,404.167 176.5,401.833 176.5,399.5 Z"/></g>
<g><path style="opacity:1" fill="#68333f" d="M 208.5,405.5 C 210.97,406.36 211.137,407.694 209,409.5C 208.51,408.207 208.343,406.873 208.5,405.5 Z"/></g>
<g><path style="opacity:1" fill="#231720" d="M 233.5,404.5 C 234.045,406.042 235.711,406.875 238.5,407C 236.421,407.808 234.421,407.641 232.5,406.5C 232.863,405.817 233.196,405.15 233.5,404.5 Z"/></g>
<g><path style="opacity:1" fill="#38365f" d="M 250.5,399.5 C 256.313,399.062 257.98,401.562 255.5,407C 254.207,407.49 252.873,407.657 251.5,407.5C 250.276,407.121 249.943,404.454 250.5,399.5 Z"/></g>
<g><path style="opacity:1" fill="#eee4d3" d="M 252.5,400.5 C 254.484,400.484 255.484,401.484 255.5,403.5C 254.167,407.5 252.833,407.5 251.5,403.5C 251.685,402.416 252.018,401.416 252.5,400.5 Z"/></g>
<g><path style="opacity:1" fill="#744d4b" d="M 271.5,399.5 C 273.369,401.635 274.036,404.302 273.5,407.5C 271.801,407.66 270.134,407.494 268.5,407C 269.448,406.517 270.448,406.351 271.5,406.5C 271.5,404.167 271.5,401.833 271.5,399.5 Z"/></g>
<g><path style="opacity:1" fill="#68333f" d="M 312.5,405.5 C 314.97,406.36 315.137,407.694 313,409.5C 312.51,408.207 312.343,406.873 312.5,405.5 Z"/></g>
<g><path style="opacity:1" fill="#3b3d46" d="M 363.5,405.5 C 365.372,406.359 367.038,406.692 368.5,406.5C 366.418,407.894 364.751,407.561 363.5,405.5 Z"/></g>
<g><path style="opacity:1" fill="#453866" d="M 113.5,405.5 C 114.376,405.369 115.043,405.702 115.5,406.5C 113.993,410.355 113.326,410.021 113.5,405.5 Z"/></g>
<g><path style="opacity:1" fill="#390c28" d="M 242.5,412.5 C 242.253,415.939 242.586,419.272 243.5,422.5C 242.883,422.611 242.383,422.944 242,423.5C 241.19,419.642 241.357,415.976 242.5,412.5 Z"/></g>
<g><path style="opacity:1" fill="#462330" d="M 211.5,422.5 C 211.663,420.143 211.497,417.81 211,415.5C 210.023,414.226 209.189,414.226 208.5,415.5C 207.549,416.919 207.216,418.585 207.5,420.5C 206.549,419.081 206.216,417.415 206.5,415.5C 207.932,413.353 209.765,413.02 212,414.5C 212.801,417.367 212.634,420.034 211.5,422.5 Z"/></g>
<g><path style="opacity:1" fill="#3c253a" d="M 243.5,415.5 C 244.822,415.33 245.989,415.663 247,416.5C 247.789,418.712 247.622,420.712 246.5,422.5C 246.784,420.585 246.451,418.919 245.5,417.5C 244.833,416.833 244.167,416.167 243.5,415.5 Z"/></g>
<g><path style="opacity:1" fill="#5e5361" d="M 173.5,416.5 C 174.708,415.218 176.042,415.218 177.5,416.5C 176.443,416.906 175.109,416.906 173.5,416.5 Z"/></g>
<g><path style="opacity:1" fill="#985c20" d="M 202.5,413.5 C 202.795,415.735 202.461,417.735 201.5,419.5C 201.714,417.856 201.38,416.356 200.5,415C 201.044,414.283 201.711,413.783 202.5,413.5 Z"/></g>
<g><path style="opacity:1" fill="#5e5361" d="M 251.5,416.5 C 252.708,415.218 254.042,415.218 255.5,416.5C 254.443,416.906 253.109,416.906 251.5,416.5 Z"/></g>
<g><path style="opacity:1" fill="#48396b" d="M 269.5,416.5 C 271.337,416.639 271.67,417.306 270.5,418.5C 269.702,418.043 269.369,417.376 269.5,416.5 Z"/></g>
<g><path style="opacity:1" fill="#2d0d19" d="M 128.5,413.5 C 129.434,414.568 129.768,415.901 129.5,417.5C 130.833,417.5 132.167,417.5 133.5,417.5C 134.788,419.092 134.788,419.425 133.5,418.5C 132.167,418.5 130.833,418.5 129.5,418.5C 129.66,420.199 129.494,421.866 129,423.5C 128.502,420.183 128.335,416.85 128.5,413.5 Z"/></g>
<g><path style="opacity:1" fill="#f2f5ed" d="M 167.5,416.5 C 167.975,419.082 167.308,421.082 165.5,422.5C 163.734,419.533 164.401,417.533 167.5,416.5 Z"/></g>
<g><path style="opacity:1" fill="#edb168" d="M 206.5,415.5 C 206.216,417.415 206.549,419.081 207.5,420.5C 207.5,421.167 207.5,421.833 207.5,422.5C 206.007,421.688 205.34,420.355 205.5,418.5C 205.52,417.274 205.853,416.274 206.5,415.5 Z"/></g>
<g><path style="opacity:1" fill="#5c4855" d="M 227.5,419.5 C 226.609,418.89 225.609,418.557 224.5,418.5C 223.737,414.862 225.07,413.362 228.5,414C 227.572,414.388 226.905,415.055 226.5,416C 226.989,417.138 227.322,418.305 227.5,419.5 Z"/></g>
<g><path style="opacity:1" fill="#2f2351" d="M 138.5,415.5 C 143.213,415.468 144.713,417.801 143,422.5C 141.99,415.136 140.324,414.802 138,421.5C 137.322,419.402 137.489,417.402 138.5,415.5 Z"/></g>
<g><path style="opacity:1" fill="#6d5f7e" d="M 154.5,415.5 C 156.199,415.34 157.866,415.506 159.5,416C 158.552,416.483 157.552,416.649 156.5,416.5C 156.808,418.924 156.474,421.257 155.5,423.5C 154.52,420.914 154.187,418.247 154.5,415.5 Z"/></g>
<g><path style="opacity:1" fill="#393c70" d="M 167.5,415.5 C 167.5,415.833 167.5,416.167 167.5,416.5C 164.401,417.533 163.734,419.533 165.5,422.5C 165.167,422.5 164.833,422.5 164.5,422.5C 163.378,420.712 163.211,418.712 164,416.5C 165.011,415.663 166.178,415.33 167.5,415.5 Z"/></g>
<g><path style="opacity:1" fill="#6b92b1" d="M 208.5,415.5 C 208.338,417.527 208.505,419.527 209,421.5C 209.671,422.252 210.504,422.586 211.5,422.5C 210.167,423.833 208.833,423.833 207.5,422.5C 207.5,421.833 207.5,421.167 207.5,420.5C 207.216,418.585 207.549,416.919 208.5,415.5 Z"/></g>
<g><path style="opacity:1" fill="#6d5f7e" d="M 232.5,415.5 C 234.199,415.34 235.866,415.506 237.5,416C 236.552,416.483 235.552,416.649 234.5,416.5C 234.808,418.924 234.474,421.257 233.5,423.5C 232.52,420.914 232.187,418.247 232.5,415.5 Z"/></g>
<g><path style="opacity:1" fill="#a0c9ea" d="M 242.5,412.5 C 243.404,413.209 243.737,414.209 243.5,415.5C 244.167,416.167 244.833,416.833 245.5,417.5C 245.923,419.781 245.256,421.448 243.5,422.5C 242.586,419.272 242.253,415.939 242.5,412.5 Z"/></g>
<g><path style="opacity:1" fill="#af8e60" d="M 245.5,417.5 C 246.451,418.919 246.784,420.585 246.5,422.5C 245.5,423.833 244.5,423.833 243.5,422.5C 245.256,421.448 245.923,419.781 245.5,417.5 Z"/></g>
<g><path style="opacity:1" fill="#645a76" d="M 263.5,416.5 C 265.377,417.659 265.877,419.326 265,421.5C 263.951,423.107 262.451,423.773 260.5,423.5C 260.719,424.675 260.386,425.675 259.5,426.5C 258.511,422.893 258.177,419.226 258.5,415.5C 260.415,415.216 262.081,415.549 263.5,416.5 Z"/></g>
<g><path style="opacity:1" fill="#f4efe0" d="M 263.5,416.5 C 263.799,418.604 263.466,420.604 262.5,422.5C 260.717,420.977 260.051,418.977 260.5,416.5C 261.5,416.5 262.5,416.5 263.5,416.5 Z"/></g>
<g><path style="opacity:1" fill="#9f622a" d="M 164.5,422.5 C 164.833,422.5 165.167,422.5 165.5,422.5C 167.308,421.082 167.975,419.082 167.5,416.5C 167.5,416.167 167.5,415.833 167.5,415.5C 168.724,415.879 169.057,418.546 168.5,423.5C 166.901,423.768 165.568,423.434 164.5,422.5 Z"/></g>
<g><path style="opacity:1" fill="#594547" d="M 173.5,416.5 C 173.787,418.121 174.787,419.121 176.5,419.5C 177.429,420.689 177.762,422.022 177.5,423.5C 171.676,423.653 171.343,422.987 176.5,421.5C 175.372,420.738 174.205,420.071 173,419.5C 172.26,418.251 172.427,417.251 173.5,416.5 Z"/></g>
<g><path style="opacity:1" fill="#302c4d" d="M 202.5,413.5 C 204.111,416.806 204.278,420.14 203,423.5C 202.517,422.552 202.351,421.552 202.5,420.5C 197.504,420.93 196.67,419.597 200,416.5C 200.617,417.449 200.451,418.282 199.5,419C 200.094,419.464 200.761,419.631 201.5,419.5C 202.461,417.735 202.795,415.735 202.5,413.5 Z"/></g>
<g><path style="opacity:1" fill="#e4d8c5" d="M 211.5,422.5 C 210.504,422.586 209.671,422.252 209,421.5C 208.505,419.527 208.338,417.527 208.5,415.5C 209.189,414.226 210.023,414.226 211,415.5C 211.497,417.81 211.663,420.143 211.5,422.5 Z"/></g>
<g><path style="opacity:1" fill="#ebe5d3" d="M 224.5,418.5 C 225.609,418.557 226.609,418.89 227.5,419.5C 228.641,422.193 227.808,422.86 225,421.5C 224.517,420.552 224.351,419.552 224.5,418.5 Z"/></g>
<g><path style="opacity:1" fill="#594547" d="M 251.5,416.5 C 251.787,418.121 252.787,419.121 254.5,419.5C 255.429,420.689 255.762,422.022 255.5,423.5C 249.676,423.653 249.343,422.987 254.5,421.5C 253.372,420.738 252.205,420.071 251,419.5C 250.26,418.251 250.427,417.251 251.5,416.5 Z"/></g>
<g><path style="opacity:1" fill="#345c8f" d="M 278.5,421.5 C 280.337,421.639 280.67,422.306 279.5,423.5C 278.702,423.043 278.369,422.376 278.5,421.5 Z"/></g>
<g><path style="opacity:1" fill="#48396b" d="M 295.5,421.5 C 297.337,421.639 297.67,422.306 296.5,423.5C 295.702,423.043 295.369,422.376 295.5,421.5 Z"/></g>
<g><path style="opacity:1" fill="#71401d" d="M 150.5,415.5 C 151.473,417.948 151.806,420.615 151.5,423.5C 147.162,423.378 146.828,423.045 150.5,422.5C 150.5,420.167 150.5,417.833 150.5,415.5 Z"/></g>
<g><path style="opacity:1" fill="#68333f" d="M 182.5,421.5 C 184.97,422.36 185.137,423.694 183,425.5C 182.51,424.207 182.343,422.873 182.5,421.5 Z"/></g>
<g><path style="opacity:1" fill="#483745" d="M 224.5,418.5 C 224.351,419.552 224.517,420.552 225,421.5C 227.808,422.86 228.641,422.193 227.5,419.5C 229.912,419.694 230.912,421.027 230.5,423.5C 228.473,423.662 226.473,423.495 224.5,423C 223.199,421.384 223.199,419.884 224.5,418.5 Z"/></g>
<g><path style="opacity:1" fill="#453866" d="M 269.5,421.5 C 270.376,421.369 271.043,421.702 271.5,422.5C 269.993,426.355 269.326,426.021 269.5,421.5 Z"/></g>
<g><path style="opacity:1" fill="#e8e8e8" d="M 16.5,508.5 C 148.167,508.5 279.833,508.5 411.5,508.5C 411.119,509.931 410.119,510.764 408.5,511C 278.833,511.667 149.167,511.667 19.5,511C 17.8807,510.764 16.8807,509.931 16.5,508.5 Z"/></g>
<g><path style="opacity:1" fill="#7f7f7f" d="M 122.5,520.5 C 183.501,520.333 244.501,520.5 305.5,521C 306,521.5 306.5,522 307,522.5C 307.667,546.167 307.667,569.833 307,593.5C 306.5,594 306,594.5 305.5,595C 244.5,595.667 183.5,595.667 122.5,595C 122,594.5 121.5,594 121,593.5C 120.333,569.833 120.333,546.167 121,522.5C 121.717,521.956 122.217,521.289 122.5,520.5 Z"/></g>
<g><path style="opacity:1" fill="#464448" d="M 193.5,552.5 C 196.755,552.014 199.422,553.014 201.5,555.5C 204.523,553.839 206.857,554.505 208.5,557.5C 206.955,558.452 205.288,558.785 203.5,558.5C 203.5,559.5 203.5,560.5 203.5,561.5C 205.226,561.185 206.893,561.019 208.5,561C 203.438,563.911 200.938,562.411 201,556.5C 200.505,558.473 200.338,560.473 200.5,562.5C 198.143,562.663 195.81,562.497 193.5,562C 192.549,561.282 192.383,560.449 193,559.5C 194.444,561.155 196.278,561.822 198.5,561.5C 198.5,560.5 198.5,559.5 198.5,558.5C 193.735,558.687 192.069,556.687 193.5,552.5 Z"/></g>
<g><path style="opacity:1" fill="#362023" d="M 229.5,551.5 C 231.048,551.821 231.715,552.821 231.5,554.5C 232.833,554.5 234.167,554.5 235.5,554.5C 235.664,557.187 235.497,559.854 235,562.5C 234.503,560.19 234.337,557.857 234.5,555.5C 233.5,555.5 232.5,555.5 231.5,555.5C 231.808,557.924 231.474,560.257 230.5,562.5C 229.511,558.893 229.177,555.226 229.5,551.5 Z"/></g>
<g><path style="opacity:1" fill="#37333c" d="M 214.5,555.5 C 215.216,557.556 215.883,559.723 216.5,562C 214.615,561.77 212.615,561.77 210.5,562C 209.483,560.951 209.316,559.784 210,558.5C 212.026,558.085 213.526,557.085 214.5,555.5 Z"/></g>
<g><path style="opacity:1" fill="#686868" d="M 271.5,608.5 C 251.497,608.333 231.497,608.5 211.5,609C 211,609.5 210.5,610 210,610.5C 209.5,619.494 209.334,628.494 209.5,637.5C 207.779,628.176 206.779,618.509 206.5,608.5C 228.313,607.206 249.98,607.206 271.5,608.5 Z"/></g>
<g><path style="opacity:1" fill="#dedcdc" d="M 271.5,608.5 C 272.828,613.119 273.494,618.119 273.5,623.5C 273.488,628.746 273.155,633.913 272.5,639C 262,639.167 251.5,639.333 241,639.5C 230.145,639.499 219.645,638.832 209.5,637.5C 209.334,628.494 209.5,619.494 210,610.5C 210.5,610 211,609.5 211.5,609C 231.497,608.5 251.497,608.333 271.5,608.5 Z"/></g>
<g><path style="opacity:1" fill="#797979" d="M 206.5,608.5 C 190.163,608.333 173.83,608.5 157.5,609C 157,609.5 156.5,610 156,610.5C 155.667,619.5 155.333,628.5 155,637.5C 154.333,628.167 154.333,618.833 155,609.5C 155.5,609 156,608.5 156.5,608C 173.338,607.172 190.005,607.338 206.5,608.5 Z"/></g>
<g><path style="opacity:1" fill="#2e3b67" d="M 167.5,623.5 C 166.778,623.082 166.278,622.416 166,621.5C 165.667,623.5 165.333,625.5 165,627.5C 164.179,624.446 164.345,621.446 165.5,618.5C 166.95,619.85 167.617,621.516 167.5,623.5 Z"/></g>
<g><path style="opacity:1" fill="#785a60" d="M 169.5,625.5 C 169.146,622.579 170.146,620.246 172.5,618.5C 173.833,621.5 173.833,624.5 172.5,627.5C 171.702,625.922 171.202,624.256 171,622.5C 170.768,623.737 170.268,624.737 169.5,625.5 Z"/></g>
<g><path style="opacity:1" fill="#8f4e19" d="M 183.5,619.5 C 183.5,622.167 183.5,624.833 183.5,627.5C 182.833,625.5 182.167,623.5 181.5,621.5C 181.5,621.167 181.5,620.833 181.5,620.5C 182.167,620.167 182.833,619.833 183.5,619.5 Z"/></g>
<g><path style="opacity:1" fill="#2e62a1" d="M 183.5,619.5 C 184.289,619.783 184.956,620.283 185.5,621C 184.167,623 184.167,625 185.5,627C 184.906,627.464 184.239,627.631 183.5,627.5C 183.5,624.833 183.5,622.167 183.5,619.5 Z"/></g>
<g><path style="opacity:1" fill="#eae1cf" d="M 237.5,621.5 C 237.5,623.167 237.5,624.833 237.5,626.5C 236.5,626.5 235.5,626.5 234.5,626.5C 234.5,624.833 234.5,623.167 234.5,621.5C 235.5,621.5 236.5,621.5 237.5,621.5 Z"/></g>
<g><path style="opacity:1" fill="#352a36" d="M 176.5,621.5 C 177.458,624.125 178.624,624.125 180,621.5C 180.483,622.448 180.649,623.448 180.5,624.5C 178.517,624.157 177.183,624.824 176.5,626.5C 175.167,624.833 175.167,623.167 176.5,621.5 Z"/></g>
<g><path style="opacity:1" fill="#512035" d="M 221.5,620.5 C 223.167,620.5 224.833,620.5 226.5,620.5C 226.663,622.857 226.497,625.19 226,627.5C 225.505,625.527 225.338,623.527 225.5,621.5C 224.5,621.5 223.5,621.5 222.5,621.5C 222.662,623.527 222.495,625.527 222,627.5C 221.503,625.19 221.337,622.857 221.5,620.5 Z"/></g>
<g><path style="opacity:1" fill="#723319" d="M 227.5,621.5 C 228.209,620.596 229.209,620.263 230.5,620.5C 230.663,622.857 230.497,625.19 230,627.5C 229.998,624.949 229.164,622.949 227.5,621.5 Z"/></g>
<g><path style="opacity:1" fill="#352a36" d="M 241.5,621.5 C 242.458,624.125 243.624,624.125 245,621.5C 245.483,622.448 245.649,623.448 245.5,624.5C 243.517,624.157 242.183,624.824 241.5,626.5C 240.167,624.833 240.167,623.167 241.5,621.5 Z"/></g>
<g><path style="opacity:1" fill="#4b80bd" d="M 248.5,620.5 C 249.552,620.351 250.552,620.517 251.5,621C 249.901,622.786 249.067,624.953 249,627.5C 248.503,625.19 248.337,622.857 248.5,620.5 Z"/></g>
<g><path style="opacity:1" fill="#403136" d="M 259.5,621.5 C 260.224,623.218 260.891,625.052 261.5,627C 259.939,627.188 259.272,626.355 259.5,624.5C 256.282,624.651 255.949,625.484 258.5,627C 257.552,627.483 256.552,627.649 255.5,627.5C 255.5,626.167 255.5,624.833 255.5,623.5C 257.483,623.843 258.817,623.176 259.5,621.5 Z"/></g>
<g><path style="opacity:1" fill="#acb6c2" d="M 181.5,620.5 C 181.5,620.833 181.5,621.167 181.5,621.5C 181.5,623.5 181.5,625.5 181.5,627.5C 179.585,627.784 177.919,627.451 176.5,626.5C 177.183,624.824 178.517,624.157 180.5,624.5C 180.649,623.448 180.483,622.448 180,621.5C 178.624,624.125 177.458,624.125 176.5,621.5C 177.919,620.549 179.585,620.216 181.5,620.5 Z"/></g>
<g><path style="opacity:1" fill="#696078" d="M 194.5,620.5 C 196.429,620.231 198.095,620.731 199.5,622C 198.451,622.492 197.451,622.326 196.5,621.5C 195.548,623.045 195.215,624.712 195.5,626.5C 197.109,626.094 198.443,626.094 199.5,626.5C 193.74,628.213 192.074,626.213 194.5,620.5 Z"/></g>
<g><path style="opacity:1" fill="#695b72" d="M 237.5,621.5 C 236.5,621.5 235.5,621.5 234.5,621.5C 234.5,623.167 234.5,624.833 234.5,626.5C 235.5,626.5 236.5,626.5 237.5,626.5C 236.791,627.404 235.791,627.737 234.5,627.5C 234.719,628.675 234.386,629.675 233.5,630.5C 232.513,627.232 232.18,623.898 232.5,620.5C 234.415,620.216 236.081,620.549 237.5,621.5 Z"/></g>
<g><path style="opacity:1" fill="#acb6c2" d="M 241.5,626.5 C 242.183,624.824 243.517,624.157 245.5,624.5C 245.649,623.448 245.483,622.448 245,621.5C 243.624,624.125 242.458,624.125 241.5,621.5C 242.919,620.549 244.585,620.216 246.5,620.5C 246.5,622.833 246.5,625.167 246.5,627.5C 244.585,627.784 242.919,627.451 241.5,626.5 Z"/></g>
<g><path style="opacity:1" fill="#553e54" d="M 167.5,623.5 C 168.167,624.167 168.833,624.833 169.5,625.5C 169.631,626.376 169.298,627.043 168.5,627.5C 167.571,626.311 167.238,624.978 167.5,623.5 Z"/></g>
</svg>
